<svg width="77" height="77" viewBox="0 0 77 77" fill="none" xmlns="http://www.w3.org/2000/svg">
<rect width="77" height="77" rx="38.5" fill="#DFE0F2"/>
<path d="M40.7481 42.4608C40.0866 42.8378 39.3193 43.0547 38.5 43.0547C36.0168 43.0547 34.0038 41.0722 34.0038 38.6266C34.0038 36.1811 36.0168 34.1986 38.5 34.1986C39.3193 34.1986 40.0866 34.4155 40.7481 34.7925C39.4046 35.5582 38.5 36.9879 38.5 38.6266C38.5 40.2654 39.4046 41.6951 40.7481 42.4608ZM25.4611 44.6813V32.572C25.4611 28.4977 28.8066 25.1949 32.9334 25.1949H28.3836C24.245 25.1949 20.89 28.499 20.89 32.575V44.6783C20.89 48.7542 24.245 52.0584 28.3836 52.0584H32.9334C28.8066 52.0584 25.4611 48.7556 25.4611 44.6813Z" fill="#E7BDD3"/>
<path d="M48.6913 53.5344H28.3071C23.3496 53.5344 19.3163 49.5622 19.3163 44.6798V32.575C19.3163 27.6917 23.3503 23.7189 28.3087 23.7189H48.6913C53.6497 23.7189 57.6836 27.6917 57.6836 32.575V44.6783C57.6836 49.5615 53.6497 53.5344 48.6913 53.5344ZM28.3087 26.6709C25.0031 26.6709 22.3138 29.3195 22.3138 32.575V44.6798C22.3138 47.9344 25.0024 50.5823 28.3071 50.5823H48.6913C51.9969 50.5823 54.6862 47.9338 54.6862 44.6783V32.575C54.6862 29.3195 51.9969 26.6709 48.6913 26.6709H28.3087ZM38.5 44.5307C35.1944 44.5307 32.5051 41.8821 32.5051 38.6266C32.5051 35.3711 35.1944 32.7226 38.5 32.7226C41.8056 32.7226 44.4949 35.3711 44.4949 38.6266C44.4949 41.8821 41.8056 44.5307 38.5 44.5307ZM38.5 35.6746C36.8472 35.6746 35.5025 36.9989 35.5025 38.6266C35.5025 40.2544 36.8472 41.5786 38.5 41.5786C40.1528 41.5786 41.4974 40.2544 41.4974 38.6266C41.4974 36.9989 40.1528 35.6746 38.5 35.6746Z" fill="#5A62B3"/>
<path d="M50.265 35.158C47.9924 35.158 46.1435 33.3371 46.1435 31.099C46.1435 30.2838 46.8144 29.623 47.6422 29.623C48.4699 29.623 49.1409 30.2838 49.1409 31.099C49.1409 31.7094 49.6452 32.206 50.265 32.206C51.0927 32.206 51.7637 32.8668 51.7637 33.682C51.7637 34.4972 51.0927 35.158 50.265 35.158ZM31.0064 31.2466C31.0064 30.4314 30.3354 29.7706 29.5077 29.7706C28.6799 29.7706 28.0089 30.4314 28.0089 31.2466C28.0089 31.857 27.5047 32.3536 26.8849 32.3536C26.0571 32.3536 25.3862 33.0144 25.3862 33.8296C25.3862 34.6448 26.0571 35.3056 26.8849 35.3056C29.1575 35.3056 31.0064 33.4847 31.0064 31.2466ZM49.1409 46.1543C49.1409 45.5439 49.6452 45.0473 50.265 45.0473C51.0927 45.0473 51.7637 44.3865 51.7637 43.5713C51.7637 42.7561 51.0927 42.0953 50.265 42.0953C47.9924 42.0953 46.1435 43.9162 46.1435 46.1543C46.1435 46.9695 46.8144 47.6303 47.6422 47.6303C48.4699 47.6303 49.1409 46.9695 49.1409 46.1543ZM31.0064 46.0067C31.0064 43.7686 29.1575 41.9477 26.8849 41.9477C26.0571 41.9477 25.3862 42.6085 25.3862 43.4237C25.3862 44.2389 26.0571 44.8997 26.8849 44.8997C27.5047 44.8997 28.0089 45.3963 28.0089 46.0067C28.0089 46.8219 28.6799 47.4827 29.5077 47.4827C30.3354 47.4827 31.0064 46.8219 31.0064 46.0067Z" fill="#A1A3D4"/>
</svg>
