<svg width="77" height="77" viewBox="0 0 77 77" fill="none" xmlns="http://www.w3.org/2000/svg">
<rect width="77" height="77" rx="38.5" fill="#DFE0F2"/>
<path d="M26.8125 37C26.8125 29.2543 32.7775 22.8608 40.4922 21.9109C39.8397 21.8305 39.1749 21.7891 38.5 21.7891C29.8447 21.7891 22.8281 28.5992 22.8281 37C22.8281 45.4008 29.8447 52.2109 38.5 52.2109C39.1749 52.2109 39.8397 52.1695 40.4922 52.0891C32.7775 51.1392 26.8125 44.7457 26.8125 37Z" fill="#E7BDD3"/>
<path d="M50.1875 37C50.1875 37.7119 49.5929 38.2891 48.8594 38.2891H45.5842C45.5664 38.8619 45.5383 39.4315 45.4972 39.9919C45.4474 40.6709 44.8643 41.1895 44.1737 41.1895C44.1421 41.1895 44.1101 41.1884 44.0781 41.1862C43.3464 41.1356 42.7956 40.5189 42.8476 39.8089C42.8843 39.3086 42.9102 38.8004 42.9271 38.2891H34.0872C34.2669 41.5512 35.0841 44.4414 35.7172 46.4134C35.9355 47.0931 35.5447 47.8158 34.8443 48.0276C34.7129 48.0674 34.5797 48.0863 34.4488 48.0863C33.8829 48.0863 33.3584 47.7324 33.1812 47.1804C32.4949 45.0427 31.607 41.8917 31.4275 38.2891H28.1406C27.4071 38.2891 26.8125 37.7119 26.8125 37C26.8125 36.2881 27.4071 35.7109 28.1406 35.7109H31.4277C31.6084 32.1088 32.5017 28.9564 33.1921 26.8177C33.4115 26.1383 34.1568 25.76 34.8566 25.9731C35.5566 26.186 35.9462 26.9092 35.7269 27.5886C35.0901 29.5609 34.2683 32.451 34.0874 35.711H42.9159C42.7874 33.1171 42.2725 30.4467 41.3498 27.5886C41.1304 26.9092 41.52 26.1859 42.22 25.9731C42.9201 25.7601 43.6651 26.1384 43.8845 26.8177C44.8905 29.934 45.4468 32.8568 45.5757 35.7109H48.8594C49.5929 35.7109 50.1875 36.2881 50.1875 37ZM50.5209 25.3327C47.3099 22.2163 43.0409 20.5 38.5 20.5C33.9591 20.5 29.6901 22.2163 26.4791 25.3327C23.2683 28.4491 21.5 32.5927 21.5 37C21.5 41.4073 23.2683 45.5509 26.4791 48.6673C29.6901 51.7837 33.9591 53.5 38.5 53.5C39.2211 53.5 39.9476 53.4556 40.6593 53.3679C41.387 53.2783 41.9021 52.6332 41.8098 51.927C41.7174 51.2207 41.0526 50.7208 40.3251 50.8104C39.7238 50.8844 39.1097 50.9219 38.5 50.9219C30.5908 50.9219 24.1562 44.6766 24.1562 37C24.1562 29.3234 30.5908 23.0781 38.5 23.0781C46.4092 23.0781 52.8438 29.3234 52.8438 37C52.8438 37.5694 52.8073 38.1464 52.7354 38.7148C52.6461 39.4214 53.1639 40.0645 53.8919 40.1512C54.62 40.2381 55.2826 39.7354 55.3719 39.0288C55.4569 38.3565 55.5 37.674 55.5 36.9999C55.5 32.5927 53.7317 28.4491 50.5209 25.3327Z" fill="#5A62B3"/>
<path d="M45.207 50.9219C44.4735 50.9219 43.8789 50.3448 43.8789 49.6328V46.0234C43.8789 43.8911 45.6663 42.1562 47.8633 42.1562H51.6484C52.382 42.1562 52.9766 42.7334 52.9766 43.4453C52.9766 44.1573 52.382 44.7344 51.6484 44.7344H47.8633C47.131 44.7344 46.5352 45.3126 46.5352 46.0234V49.6328C46.5352 50.3448 45.9406 50.9219 45.207 50.9219ZM55.111 53.1225C55.6297 52.6191 55.6297 51.8028 55.111 51.2994L50.7282 47.0455C50.2095 46.5421 49.3686 46.5421 48.8499 47.0455C48.3313 47.549 48.3312 48.3652 48.8499 48.8686L53.2328 53.1225C53.4921 53.3742 53.8319 53.5 54.1719 53.5C54.5118 53.5 54.8517 53.3742 55.111 53.1225Z" fill="#5A62B3"/>
</svg>
