<svg width="491" height="443" viewBox="0 0 491 443" fill="none" xmlns="http://www.w3.org/2000/svg">
<path d="M268.627 443C390.958 443 490.127 343.831 490.127 221.5C490.127 99.1689 390.958 0 268.627 0C146.296 0 47.1268 99.1689 47.1268 221.5C47.1268 343.831 146.296 443 268.627 443Z" fill="#DFE0F2"/>
<path d="M391.555 124.934H255.732V335.259H391.555V124.934Z" fill="white"/>
<path d="M228.51 253.307H367.772" stroke="black" stroke-miterlimit="10"/>
<path d="M228.51 267.061H367.772" stroke="black" stroke-miterlimit="10"/>
<path d="M228.51 280.815H367.772" stroke="black" stroke-miterlimit="10"/>
<path d="M228.51 294.569H367.772" stroke="black" stroke-miterlimit="10"/>
<path d="M323.644 221.787C343.267 221.787 359.175 205.878 359.175 186.255C359.175 166.631 343.267 150.723 323.644 150.723C304.02 150.723 288.112 166.631 288.112 186.255C288.112 205.878 304.02 221.787 323.644 221.787Z" fill="#F2F2F2"/>
<path opacity="0.7" d="M423.935 199.723H367.772V251.874H423.935V199.723Z" fill="#FA9E9F"/>
<path d="M386.565 230.09L396.992 234.305V237.569L383.367 231.256V228.825L396.992 222.528V225.793L386.565 230.09ZM385.116 282.9H382.468L392.595 256.565H395.227L385.116 282.9ZM395.41 309.991L384.4 305.676V302.512L398.625 308.808V311.24L384.4 317.553V314.355L395.41 309.991Z" fill="white"/>
<path d="M324.217 21.4909H21.0513V220.927H324.217V21.4909Z" stroke="black" stroke-miterlimit="10"/>
<path d="M21.0513 32.0931H324.217" stroke="black" stroke-miterlimit="10"/>
<path d="M134.237 49.859H43.1152V140.981H134.237V49.859Z" stroke="black" stroke-miterlimit="10"/>
<path d="M151.716 57.8823H290.978" stroke="black" stroke-miterlimit="10"/>
<path d="M151.716 71.6365H290.978" stroke="black" stroke-miterlimit="10"/>
<path d="M151.716 85.3907H290.978" stroke="black" stroke-miterlimit="10"/>
<path d="M151.716 99.1449H290.978" stroke="black" stroke-miterlimit="10"/>
<path opacity="0.44" d="M88.6761 73.9288L63.8612 116.911H113.491L88.6761 73.9288Z" fill="#50B89D"/>
<path d="M27.6418 29.5142C29.0661 29.5142 30.2207 28.3596 30.2207 26.9353C30.2207 25.511 29.0661 24.3564 27.6418 24.3564C26.2175 24.3564 25.0629 25.511 25.0629 26.9353C25.0629 28.3596 26.2175 29.5142 27.6418 29.5142Z" fill="#AB8DE5"/>
<path d="M36.5247 29.5142C37.949 29.5142 39.1036 28.3596 39.1036 26.9353C39.1036 25.511 37.949 24.3564 36.5247 24.3564C35.1004 24.3564 33.9458 25.511 33.9458 26.9353C33.9458 28.3596 35.1004 29.5142 36.5247 29.5142Z" fill="#73E5E2"/>
<path d="M45.4076 29.5142C46.8319 29.5142 47.9866 28.3596 47.9866 26.9353C47.9866 25.511 46.8319 24.3564 45.4076 24.3564C43.9834 24.3564 42.8287 25.511 42.8287 26.9353C42.8287 28.3596 43.9834 29.5142 45.4076 29.5142Z" fill="#50B89D"/>
<path d="M154.582 184.106L163.178 176.512H154.41L154.582 184.106Z" fill="#BAB4E4"/>
<path d="M200.612 148.144H157.837C151.291 148.144 145.985 153.45 145.985 159.996V165.52C145.985 172.066 151.291 177.372 157.837 177.372H200.612C207.158 177.372 212.464 172.066 212.464 165.52V159.996C212.464 153.45 207.158 148.144 200.612 148.144Z" fill="#BAB4E4"/>
<path d="M170.342 165.337C171.766 165.337 172.921 164.182 172.921 162.758C172.921 161.334 171.766 160.179 170.342 160.179C168.917 160.179 167.763 161.334 167.763 162.758C167.763 164.182 168.917 165.337 170.342 165.337Z" fill="white"/>
<path d="M179.225 165.337C180.649 165.337 181.803 164.182 181.803 162.758C181.803 161.334 180.649 160.179 179.225 160.179C177.8 160.179 176.646 161.334 176.646 162.758C176.646 164.182 177.8 165.337 179.225 165.337Z" fill="white"/>
<path d="M188.107 165.337C189.532 165.337 190.686 164.182 190.686 162.758C190.686 161.334 189.532 160.179 188.107 160.179C186.683 160.179 185.529 161.334 185.529 162.758C185.529 164.182 186.683 165.337 188.107 165.337Z" fill="white"/>
<path d="M426.8 98.142L418.204 90.5485H426.972L426.8 98.142Z" fill="#F8CDBA"/>
<path d="M380.77 91.4081H423.545C430.09 91.4081 435.397 86.102 435.397 79.5566V74.032C435.397 67.4866 430.09 62.1805 423.545 62.1805L380.77 62.1805C374.224 62.1805 368.918 67.4866 368.918 74.032V79.5566C368.918 86.102 374.224 91.4081 380.77 91.4081Z" fill="#F8CDBA"/>
<path d="M411.04 79.3732C412.465 79.3732 413.619 78.2186 413.619 76.7943C413.619 75.37 412.465 74.2154 411.04 74.2154C409.616 74.2154 408.461 75.37 408.461 76.7943C408.461 78.2186 409.616 79.3732 411.04 79.3732Z" fill="white"/>
<path d="M402.157 79.3732C403.582 79.3732 404.736 78.2186 404.736 76.7943C404.736 75.37 403.582 74.2154 402.157 74.2154C400.733 74.2154 399.578 75.37 399.578 76.7943C399.578 78.2186 400.733 79.3732 402.157 79.3732Z" fill="white"/>
<path d="M393.274 79.3732C394.699 79.3732 395.853 78.2186 395.853 76.7943C395.853 75.37 394.699 74.2154 393.274 74.2154C391.85 74.2154 390.696 75.37 390.696 76.7943C390.696 78.2186 391.85 79.3732 393.274 79.3732Z" fill="white"/>
<path d="M30.7937 161.898C33.0093 161.898 34.8054 160.102 34.8054 157.887C34.8054 155.671 33.0093 153.875 30.7937 153.875C28.5782 153.875 26.7821 155.671 26.7821 157.887C26.7821 160.102 28.5782 161.898 30.7937 161.898Z" fill="#F98B67"/>
<path d="M377.629 341.133V340.56L376.254 338.841L373.073 334.978L369.692 330.886C369.692 330.886 366.436 328.634 365.6 328.244C362.551 326.834 359.548 325.757 355.96 325.757C353.754 325.757 345.507 326.089 345.49 327.476C345.49 329.534 357.038 337.322 365.508 341.104C369.227 341.133 377.629 341.133 377.629 341.133Z" fill="#1F161E"/>
<path d="M375.881 341.133C364.127 332.09 340.132 282.764 346.287 264.482C359.387 271.158 373.761 294.18 380.54 313.619C380.905 314.883 381.198 316.167 381.417 317.464L384.168 330.072L384.833 341.15L375.881 341.133Z" fill="#DFE0F2"/>
<path d="M383.904 341.133C379.939 337.912 378.672 328.376 378.638 324.817C378.575 318.175 379.595 313.281 385.274 305.974C390.953 298.667 389.44 286.546 396.982 278.368C404.524 270.19 409.522 267.909 418.473 267.909C427.425 267.909 430.268 282.42 430.222 286.07C430.119 300.799 420.84 302.885 415.178 309.911C411.069 315.011 410.748 319.184 409.504 321.568C402.834 334.416 397.412 339.247 393.401 341.133" fill="#B3E3EF"/>
<path d="M386.094 340.067C386.208 314.948 412.679 277.222 418.336 271.565" stroke="white" stroke-width="0.4" stroke-linecap="round" stroke-linejoin="round"/>
<path d="M387.52 328.651C384.592 325.459 381.927 316.41 382.328 314.06" stroke="white" stroke-width="0.4" stroke-linecap="round" stroke-linejoin="round"/>
<path d="M380.019 338.967C375.87 331.614 356.184 295.761 348.843 269.353" stroke="white" stroke-width="0.4" stroke-linecap="round" stroke-linejoin="round"/>
<path d="M393.423 341.133H405.756L395.441 379.53H367.858L357.708 341.133H393.423Z" fill="#BDBDBD"/>
<path d="M349.525 328.256C355.536 328.668 363.101 328.943 368.437 332.582" stroke="white" stroke-width="0.4" stroke-linecap="round" stroke-linejoin="round"/>
<path d="M180.733 302.558C181.214 305.424 189.386 370.934 190.71 372.017C192.034 373.1 206.092 375.501 207.295 373.696C207.536 370.831 207.868 325.149 208.613 321.063" fill="#1F161E"/>
<path d="M22.6165 288.89C16.9486 286.093 28.7658 341.419 59.8675 341.419C90.9691 341.419 143.321 294.042 151.797 294.042C170.509 294.042 214.803 330.783 218.276 330.783C220.935 328.124 226.253 323.47 226.253 321.642C226.253 319.814 183.844 250.006 152.112 250.006C139.808 249.994 35.4136 295.211 22.6165 288.89Z" fill="#4A608C"/>
<path d="M40.1187 289.83C46.3367 288.42 54.0734 284.769 60.9219 281.033C42.2907 287.119 27.0235 291.068 22.6164 288.89C19.6134 287.411 21.5161 302.22 28.5766 316.484C27.2986 313.722 25.4762 293.148 40.1187 289.83Z" fill="#1F161E"/>
<path d="M53.827 192.771C58.7269 192.903 84.2353 192.152 91.227 198.811C96.4135 203.746 112.54 246.235 115.027 261.152C104.196 266.654 26.0722 304.065 1.89341 287.612C1.36044 274.826 3.84193 224.033 19.6535 197.39C25.436 193.539 49.1162 192.645 53.827 192.771Z" fill="#B3E3EF"/>
<path d="M63.7645 180.61H48.8641V196.628C48.8641 200.639 63.7645 200.605 63.7645 196.628V180.61Z" fill="#F8CDBA"/>
<path d="M48.8641 190.266C48.8641 188.49 53.787 184.026 56.8301 184.18C56.9046 182.243 49.8785 179.378 49.8785 179.378L48.8641 182.111V190.266Z" fill="#4A608C"/>
<path d="M79.3697 180.61C79.7047 179.062 79.8737 177.483 79.8741 175.899C79.8741 164.082 70.6416 154.5 59.2428 154.5C47.844 154.5 38.6115 164.082 38.6115 175.899C38.6118 177.483 38.7809 179.062 39.1158 180.61H79.3697Z" fill="#4A608C"/>
<path d="M73.9311 166.197C71.4037 165.813 68.8821 163.824 67.1227 162.523C57.0936 169.87 50.6693 169.973 49.9758 169.973C49.2824 169.973 46.457 174.031 45.1561 174.489L45.0415 174.421C45.4311 176.553 46.2599 178.582 47.4751 180.378C48.6903 182.173 50.2655 183.697 52.1007 184.852C53.9359 186.006 55.9911 186.767 58.1359 187.085C60.2806 187.403 62.4681 187.272 64.5595 186.7C66.6509 186.128 68.6006 185.128 70.2849 183.762C71.9692 182.397 73.3513 180.696 74.3434 178.768C75.3356 176.84 75.9163 174.727 76.0485 172.563C76.1807 170.399 75.8617 168.231 75.1116 166.197C74.7196 166.245 74.3231 166.245 73.9311 166.197Z" fill="#F8CDBA"/>
<path d="M48.0676 157.165C51.4289 157.165 54.1538 154.44 54.1538 151.078C54.1538 147.717 51.4289 144.992 48.0676 144.992C44.7062 144.992 41.9813 147.717 41.9813 151.078C41.9813 154.44 44.7062 157.165 48.0676 157.165Z" fill="#4A608C"/>
<path d="M50.7782 169.635C50.1205 169.666 49.5001 169.95 49.0456 170.426C48.5912 170.902 48.3376 171.536 48.3376 172.194C48.3376 172.852 48.5912 173.486 49.0456 173.962C49.5001 174.439 50.1205 174.722 50.7782 174.753" stroke="#1F161E" stroke-miterlimit="10" stroke-linecap="round"/>
<path d="M70.2863 169.945C71.037 170.948 72.9683 172.701 70.2863 174.564" stroke="#1F161E" stroke-miterlimit="10" stroke-linecap="round"/>
<path d="M62.1541 175.939C62.1541 176.69 62.475 178.484 64.0854 178.948" stroke="#1F161E" stroke-miterlimit="10" stroke-linecap="round"/>
<path d="M57.1624 176.1C58.4664 176.1 59.5235 175.551 59.5235 174.873C59.5235 174.196 58.4664 173.647 57.1624 173.647C55.8584 173.647 54.8013 174.196 54.8013 174.873C54.8013 175.551 55.8584 176.1 57.1624 176.1Z" fill="#FA9E9F"/>
<path d="M74.7162 176.1C76.0203 176.1 77.0774 175.551 77.0774 174.873C77.0774 174.196 76.0203 173.647 74.7162 173.647C73.4122 173.647 72.3551 174.196 72.3551 174.873C72.3551 175.551 73.4122 176.1 74.7162 176.1Z" fill="#FA9E9F"/>
<path d="M90.6884 237.054L106.615 232.956C108.145 235.541 115.595 261.124 115.595 261.124L91.0093 271.485C91.3302 266.637 92.2987 244.481 90.6884 237.054Z" fill="#F8CDBA"/>
<path d="M34.8462 233.048C34.8462 234.973 33.2244 242.303 32.2673 245.748" stroke="#1F161E" stroke-miterlimit="10" stroke-linecap="round"/>
<path d="M90.6884 237.054C90.3044 234.022 88.0579 216.938 84.2354 207.946" stroke="#1F161E" stroke-miterlimit="10" stroke-linecap="round"/>
<path d="M90.6884 237.054L106.615 232.956C108.145 235.541 115.595 261.124 115.595 261.124L91.0093 271.485C91.3302 266.637 92.2987 244.481 90.6884 237.054Z" fill="#F8CDBA"/>
<path d="M218.751 329.43C219.107 329.975 223.852 335.82 225.531 335.889C227.21 335.958 237.406 329.046 236.959 327.562C236.512 326.078 230.116 327.041 229.016 326.525C227.915 326.009 225.468 323.556 225.078 322.462" fill="#1F161E"/>
<path d="M193.679 372.624C193.558 373.26 192.911 380.762 194.074 381.977C195.238 383.192 207.37 385.301 208.075 383.92C208.78 382.539 203.49 378.797 203.083 377.662C202.676 376.527 202.59 373.077 203.083 372" fill="#1F161E"/>
<path d="M174.658 262.728H120.69L133.538 228.681H187.506L174.658 262.728Z" fill="white"/>
<path d="M121.326 261.445H75.7192V262.728H120.753L121.326 261.445Z" fill="#969696"/>
<path d="M32.2673 245.748C31.23 249.639 26.1696 266.236 28.2557 269.09C30.3417 271.944 81.6907 265.456 95.4392 261.181C98.9408 260.035 101.537 257.026 103.09 256.642C105.079 256.306 107.123 256.716 108.829 257.792C110.536 258.869 111.786 260.536 112.34 262.476C106.849 265.135 27.5794 305.607 1.89343 287.595C-2.96066 284.139 5.56122 241.73 5.94519 239.587C10.2835 240.125 32.2673 245.748 32.2673 245.748Z" fill="#F8CDBA"/>
<path d="M91.4219 262.247C92.9692 261.88 94.3217 261.525 95.4335 261.181C98.9351 260.035 101.531 257.026 103.084 256.642C105.075 256.305 107.119 256.714 108.827 257.79C110.535 258.867 111.785 260.535 112.34 262.476" stroke="#1F161E" stroke-miterlimit="10" stroke-linecap="round"/>
</svg>
