<svg width="195" height="202" viewBox="0 0 195 202" fill="none" xmlns="http://www.w3.org/2000/svg">
<path d="M110.598 166.57C110.605 166.533 110.625 166.506 110.631 166.469C110.859 165.906 110.891 165.305 111.02 164.711C111.092 164.389 111.184 164.039 111.22 163.712C111.305 162.982 111.32 162.264 111.298 161.54C111.093 156.603 107.385 152.827 103.706 150.155C98.5898 146.377 92.7575 143.495 87.194 140.328C82.8432 137.877 78.4624 135.382 73.4267 134.536C68.2579 133.676 62.6291 135.23 57.7629 137.11C55.883 137.056 53.9636 137.141 52.0346 137.405C51.9747 137.403 51.9449 137.444 51.915 137.485C51.8251 137.44 51.7451 137.382 51.6552 137.338C51.5119 137.255 51.4251 137.15 51.3484 137.032C55.5424 136.517 59.7395 135.859 63.7278 134.175C71.8141 130.741 78.3336 124.566 84.4132 118.071C84.4265 118.081 84.4265 118.081 84.4398 118.09C87.309 118.633 90.0291 118.069 92.5882 116.971C95.174 115.892 97.6122 114.29 99.8974 112.701C101.472 111.638 103.03 110.625 104.648 109.697C105.462 109.226 106.269 108.792 107.117 108.387C107.967 108.006 108.845 107.644 109.739 107.315C111.498 106.697 113.276 106.219 115.079 105.821C116.898 105.455 118.727 105.16 120.526 104.821C126.651 103.732 132.427 102.451 137.789 99.0572C139.204 98.1278 140.592 97.179 141.964 96.1972C143.346 95.2018 144.704 94.2103 146.086 93.215C147.477 92.206 148.903 91.3464 150.394 90.5351C151.833 89.7686 153.332 89.0874 154.924 88.5573C154.948 88.5534 154.971 88.5495 154.981 88.5359C155.027 88.5281 155.071 88.497 155.117 88.4891C155.812 88.265 154.612 87.1434 154.485 86.8429C154.063 85.7453 153.328 84.7123 152.538 83.8675C151.39 82.6178 149.984 81.6381 148.488 80.8642C148.475 80.8545 148.462 80.8448 148.449 80.8351C146.916 80.0555 145.215 79.4235 143.48 78.9759C141.763 78.5612 139.992 78.2747 138.298 78.1065C133.909 77.6045 129.464 77.708 124.993 77.6252C122.674 77.5859 120.411 77.6086 118.089 77.7128C116.942 77.7747 115.774 77.8637 114.617 78.0225C113.459 78.1813 112.339 78.4294 111.192 78.7415C109.014 79.3461 106.94 80.3386 105.014 81.521C103.103 82.7364 101.29 84.1262 99.5667 85.4772C97.8299 86.8184 96.1631 88.2313 94.5497 89.683C92.9629 91.154 91.4194 92.6774 90.156 94.404C87.9307 97.3893 86.7645 100.852 85.9443 104.317C84.8968 108.761 83.8565 113.419 83.5079 117.913C77.5543 124.208 71.2735 130.057 63.3772 133.65C59.439 135.433 55.2987 136.153 51.1211 136.617C50.9791 135.639 51.6942 134.16 51.9085 133.337L52.5417 130.965C57.7719 131.099 62.1954 129.127 66.3163 125.811C68.302 124.214 70.4569 122.385 72.405 120.364C74.3299 118.347 76.0579 116.125 77.1569 113.759C79.6393 108.358 78.7168 102.337 78.3275 96.7029C77.8554 89.8431 77.1339 82.9895 76.4024 76.1494C76.3886 75.9729 76.2219 75.8102 76.019 75.8085C74.3456 75.8634 72.7292 76.0636 71.153 76.3763C69.5634 76.6793 68.0041 77.1085 66.4816 77.6267C63.4499 78.673 60.6587 80.1439 58.0813 81.9364C55.5637 83.7309 53.3231 85.8722 51.3958 88.2828C49.5384 90.6816 48.0044 93.3361 46.8833 96.2072C45.5772 99.6102 44.8338 103.193 44.0238 106.727C43.2663 109.966 42.7216 113.194 42.8826 116.517C43.1592 122.36 46.6061 128.028 51.6497 130.817L50.0734 136.71C48.9691 136.824 47.8748 136.924 46.7705 137.038C44.3224 137.259 41.8012 137.552 39.3706 138.14C36.9367 138.704 34.6099 139.596 32.5707 141.071C32.4511 141.151 32.5746 141.345 32.7076 141.275C38.1104 138.411 44.0444 137.89 50.0013 137.199C50.0182 137.315 50.0817 137.424 50.1884 137.501C53.9074 140.119 58.4773 140.96 62.6598 142.582C65.1107 143.529 67.2333 144.925 68.8683 146.987C70.9205 149.539 71.9433 152.968 73.3243 155.907C77.6547 165.194 84.7522 174.076 95.4413 175.343C98.28 175.676 101.2 175.173 103.782 173.904C106.274 172.675 108.405 170.683 109.73 168.23C110.115 167.677 110.38 167.12 110.598 166.57ZM147.024 91.71C144.559 93.3763 142.205 95.2267 139.813 96.9046C138.312 97.9797 136.817 98.9345 135.272 99.707C133.753 100.499 132.171 101.099 130.576 101.689C128.99 102.265 127.364 102.73 125.682 103.132C124.841 103.333 123.983 103.501 123.125 103.669C122.27 103.86 121.399 104.019 120.518 104.191C117.545 104.738 114.555 105.253 111.686 106.105C110.246 106.538 108.823 107.004 107.431 107.595C106.038 108.187 104.699 108.901 103.387 109.718C97.4936 113.392 91.9232 118.549 84.6223 117.869C86.6333 115.706 88.5944 113.529 90.5622 111.397C92.6263 109.19 94.7237 106.966 96.9243 104.795C99.155 102.668 101.452 100.588 103.906 98.6854C106.391 96.8251 108.958 95.0461 111.719 93.616C113.105 92.8942 114.524 92.2383 115.99 91.658C117.442 91.068 118.942 90.5536 120.494 90.1614C121.944 89.7984 123.391 89.4956 124.847 89.2626C126.304 89.0296 127.757 88.8568 129.238 88.7867C132.182 88.6136 135.096 88.5648 138.024 88.609C140.955 88.6766 143.856 88.7015 146.737 88.5867C148.76 88.5566 150.527 88.8198 152.397 88.8035C150.522 89.6075 148.748 90.6093 147.024 91.71ZM90.0399 95.9854C90.5404 95.1621 91.1174 94.3735 91.7477 93.6237C92.3781 92.8739 93.0617 92.1628 93.7721 91.471C95.1927 90.0876 96.7333 88.7912 98.2441 87.5357C99.941 86.1654 101.651 84.8048 103.448 83.5488C104.348 82.9325 105.258 82.3025 106.205 81.7618C107.175 81.2171 108.152 80.719 109.183 80.2596C111.18 79.3992 113.228 78.8879 115.34 78.652C117.452 78.4161 119.595 78.3897 121.654 78.3654C123.77 78.3196 125.899 78.367 128.015 78.4046C130.131 78.4423 132.234 78.4703 134.334 78.5584C136.423 78.6602 138.513 78.8453 140.503 79.1665C142.507 79.4973 144.421 79.9504 146.199 80.7006C149.626 82.1275 152.456 84.3701 154.214 87.9375C151.63 88.2051 149.18 87.6751 146.539 87.7139C143.644 87.819 140.747 87.8174 137.809 87.7867C134.884 87.7657 131.967 87.8747 129.023 88.0478C127.546 88.1411 126.079 88.3043 124.632 88.5237C123.162 88.747 121.713 89.0266 120.25 89.3799C119.501 89.5653 118.753 89.7507 118.035 89.9787C117.307 90.2204 116.593 90.4717 115.895 90.756C114.485 91.3148 113.096 91.93 111.754 92.6207C110.398 93.3017 109.102 94.068 107.84 94.9002C106.564 95.7228 105.332 96.5977 104.126 97.4919C101.719 99.3036 99.4745 101.338 97.3036 103.384C95.1459 105.44 93.125 107.616 91.1404 109.714C88.7378 112.3 86.3786 114.939 83.9593 117.491C85.9686 110.393 85.9469 102.611 90.0399 95.9854ZM76.1311 81.0119C76.4946 84.17 76.7882 87.3398 77.0918 90.4961C77.6617 96.5525 78.6917 102.985 77.9443 109.084C77.5721 112.103 76.1743 114.711 74.3667 117.042C72.5724 119.382 70.3216 121.454 68.2103 123.418C63.6525 127.666 58.8981 130.397 52.737 130.586L56.5984 116.047C56.6446 115.872 56.5977 115.713 56.4876 115.613C57.1801 114.387 57.6958 113.013 58.2651 111.761C59.162 109.809 60.0724 107.868 60.9594 105.93C61.9129 103.958 62.863 101.962 63.8031 99.9796C64.2665 98.9836 64.73 97.9876 65.1667 96.9722C65.6168 95.9666 66.0535 94.9512 66.477 93.9262C67.8429 90.525 68.1205 86.9372 69.0637 83.4164C69.8982 80.3788 72.2811 77.9035 75.4322 76.6941C76.0221 77.1434 76.0734 80.5328 76.1311 81.0119ZM43.8155 117.111C43.4759 114.2 43.7947 111.141 44.4329 108.065C45.0843 104.999 46.0153 101.969 46.8272 99.1855C47.6026 96.4797 48.7909 93.9073 50.2259 91.5556C51.6376 89.2079 53.4456 87.0439 55.4938 85.1376C56.5229 84.1777 57.5888 83.3069 58.758 82.4904C59.9271 81.6738 61.1663 80.9289 62.4389 80.2499C63.7249 79.5806 65.0343 78.9909 66.4503 78.4785C67.8664 77.9662 69.3193 77.5431 70.799 77.2227C71.7467 77.0157 72.6912 76.8688 73.6291 76.7588C73.2403 76.9553 72.8583 77.1984 72.4996 77.4376C71.4267 78.1783 70.4375 79.0839 69.6611 79.9775C68.7088 81.0557 68.4264 82.6412 68.1001 83.9242C67.5632 86.2202 67.2461 88.5508 66.6726 90.841C66.1222 93.0439 65.2057 95.1892 64.2459 97.2821C63.286 99.375 62.2263 101.437 61.2829 103.479C60.2435 105.681 59.2872 107.881 58.2943 110.075C57.5199 111.802 56.4664 113.661 55.8885 115.511C55.8121 115.559 55.7524 115.641 55.7327 115.751L51.9042 130.106C47.4722 127.096 44.4973 122.624 43.8155 117.111ZM75.9148 135.739C81.8006 137.348 87.1958 141.079 92.3797 144.095C97.7599 147.148 103.832 150.038 107.872 154.867C109.877 157.26 110.686 160.034 110.566 162.737C110.519 163.889 110.292 165.036 109.902 166.127C107.396 167.347 103.977 164.822 101.751 163.539C99.2293 162.103 96.7504 160.553 94.3476 158.87C89.3956 155.399 85.751 150.503 81.1737 146.575C74.7364 141.088 67.0929 137.639 58.8043 137.137C64.5499 135.73 70.0057 134.133 75.9148 135.739ZM104.584 172.78C103.521 173.424 102.348 173.883 101.118 174.197C98.6473 174.839 96.0022 174.771 93.4059 174.218C87.8205 173.035 83.2638 169.33 79.7634 164.935C75.7525 159.898 73.8683 153.824 70.8375 148.229C68.6054 144.11 64.7116 142.177 60.4264 140.752C58.472 140.102 56.4777 139.508 54.5563 138.758C53.7837 138.447 53.0276 138.085 52.3113 137.669C58.0856 137.115 63.8197 137.844 69.1976 139.897C75.2581 142.216 80.3715 146.388 84.8538 150.976C86.9115 153.074 88.8464 155.312 91.0999 157.198C93.5335 159.257 96.2024 160.967 98.8878 162.625C100.43 163.558 102.62 165.169 104.832 166.193C105.944 166.709 107.066 167.045 108.114 167.119C108.62 167.153 109.102 167.108 109.574 166.993C109.075 168.15 108.389 169.255 107.526 170.294C106.66 171.31 105.671 172.132 104.584 172.78Z" fill="#A1A3D4" fill-opacity="0.62"/>
<path d="M137.153 146.486C137.19 145.347 136.908 144.309 136.666 143.217C136.434 142.195 136.109 141.189 135.674 140.248C133.179 134.73 126.976 132.661 121.394 131.668C113.636 130.302 105.498 130.013 97.6641 129.196C91.551 128.566 85.3776 127.768 79.2725 129.081C76.0436 129.755 72.9928 131.162 70.1159 132.946C67.3452 134.639 64.755 136.673 62.4044 138.713C60.2203 139.438 58.0599 140.326 55.9399 141.41C55.8734 141.445 55.8436 141.486 55.8404 141.546C55.7172 141.519 55.6074 141.501 55.4842 141.474C55.2878 141.436 55.1346 141.366 54.9979 141.246C56.6993 140.4 58.3973 139.53 60.0719 138.581C62.876 136.953 65.5664 135.117 68.0064 132.871C75.8274 125.559 80.4917 115.725 84.1444 105.739C84.1577 105.749 84.1676 105.735 84.181 105.745C87.6359 104.985 90.386 103.068 92.6891 100.618C94.9789 98.1589 96.8582 95.1722 98.5514 92.3002C100.831 88.3758 103.138 84.6376 106.254 81.2998C109.29 78.0708 112.84 75.3397 116.274 72.5448C122.095 67.7984 127.28 62.7775 130.437 55.8678C133.803 48.5057 135.121 40.4268 139.906 33.7205C140.075 33.4893 139.955 33.1519 139.672 33.0922C139.189 32.9707 138.587 32.9288 138.157 32.6792C137.338 32.2089 136.402 31.8416 135.48 31.5675C134.171 31.1794 132.807 30.9796 131.429 30.937C128.614 30.8499 125.788 31.4205 123.089 32.2917C120.765 33.0401 118.521 34.0134 116.358 35.1283C111.922 37.4242 107.647 40.0865 103.334 42.5762C98.8888 45.1359 94.29 47.5426 90.5756 51.1121C87.0107 54.5611 84.896 59.2924 82.9936 63.7614C81.0778 68.2208 79.1456 72.7306 78.2686 77.528C77.5034 81.6986 78.1322 85.9447 79.0136 90.0411C80.1472 95.2993 81.3115 100.85 83.1035 105.962C79.5035 115.653 74.9611 125.013 67.4497 132.404C64.9104 134.87 62.0839 136.836 59.087 138.532C57.6317 139.349 56.1331 140.113 54.6177 140.845C54.0364 139.798 54.2513 137.831 54.1657 136.832C54.0836 135.856 54.0014 134.88 53.9059 133.895C59.9229 131.893 64.1752 127.84 67.386 122.364C70.4942 117.084 73.902 110.502 74.0469 104.278C74.2432 97.2577 70.2031 91.1171 66.8921 85.2354C62.8729 78.0897 58.5347 71.1289 54.0104 64.2827C53.8903 64.1122 53.6372 64.0116 53.4344 64.0934C40.2205 69.9875 32.2335 83.0507 32.5335 97.3435C32.6301 101.62 33.3521 105.85 33.981 110.096C34.5591 113.993 35.2969 117.839 36.8659 121.498C39.6259 127.938 45.8925 132.988 52.8385 134.098C53.0605 136.529 53.2691 138.95 53.4579 141.398C52.2416 141.972 51.0253 142.546 49.8056 143.097C47.0871 144.329 44.289 145.67 41.7378 147.315C39.1699 148.927 36.839 150.857 35.0683 153.361C34.9688 153.496 35.1954 153.661 35.2983 153.548C37.5582 151.13 40.1188 149.221 42.8463 147.558C45.5471 145.876 48.4415 144.459 51.3492 143.052C52.0836 142.69 52.8081 142.342 53.5425 141.98C53.6093 142.112 53.7293 142.199 53.8791 142.245C59.2156 143.685 64.8427 142.774 70.3223 142.819C73.5461 142.849 76.5653 143.522 79.3504 145.128C82.7886 147.125 85.4083 150.548 88.2394 153.291C97.1361 161.918 109.037 168.978 122.432 164.985C128.02 163.318 132.824 159.041 135.273 153.741C135.863 152.461 136.302 151.136 136.592 149.763C136.799 148.727 137.046 147.636 137.09 146.544C137.166 146.495 137.153 146.486 137.153 146.486ZM131.021 52.4192C127.96 60.6481 122.557 66.3853 115.856 71.8877C113.044 74.1967 110.228 76.4824 107.632 78.9696C105.037 81.4568 102.661 84.1455 100.719 87.2739C96.397 94.2959 92.7173 102.7 84.2733 105.396C85.4731 102.082 86.5665 98.7745 87.6334 95.5309C92.0893 81.9645 96.6905 67.9207 107.099 57.5741C116.091 48.6343 128.408 44.6914 137.523 35.9454C134.561 41.0815 133.057 46.9023 131.021 52.4192ZM78.9648 79.2829C79.3503 74.8781 81.1267 70.6091 82.8172 66.5691C84.6697 62.0846 86.5621 57.6291 89.4972 53.7018C92.3461 49.9202 96.529 47.5238 100.566 45.1878C104.679 42.8031 108.805 40.4282 112.918 38.0436C120.969 33.3754 129.816 29.5987 138.639 33.862C129.11 43.3691 115.965 47.6896 106.329 56.9524C96.2217 66.6641 91.6134 80.4946 87.3855 93.4145C86.0974 97.3511 84.7927 101.338 83.3515 105.288C82.1098 96.5789 78.1975 88.1991 78.9648 79.2829ZM56.3484 69.5411C58.3954 72.7142 60.3892 75.932 62.3398 79.1809C66.0674 85.386 70.5043 91.8772 72.6168 98.8665C73.6564 102.328 73.3619 105.8 72.435 109.187C71.4815 112.554 69.9056 115.824 68.4125 118.924C66.7372 122.33 64.8113 125.324 62.3952 127.817C60.0553 130.178 57.3051 132.095 53.9081 133.417C53.6861 130.987 53.4508 128.546 53.2055 126.119C52.8444 122.567 52.4901 119.062 52.0825 115.518C52.062 115.295 51.9219 115.151 51.7687 115.082C52.0176 113.43 51.9669 111.686 52.0429 110.076C52.1767 107.549 52.3039 105.06 52.4143 102.538C52.6385 97.4327 53.0022 92.3042 52.7373 87.1981C52.5276 82.9649 51.0611 79.0265 50.2229 74.8991C49.5125 71.3224 50.7318 67.8147 53.2941 65.2616C54.1264 65.4913 56.0245 69.0352 56.3484 69.5411ZM38.1176 121.824C34.889 115.607 34.4172 107.436 33.7458 100.681C32.4435 87.4507 37.8007 75.1635 48.7819 67.6895C49.6488 67.0907 50.5525 66.581 51.4829 66.0908C50.3253 67.5612 49.5278 69.3764 49.0694 71.0631C48.6571 72.5751 49.1803 74.3709 49.5166 75.8644C50.1085 78.5429 50.9397 81.1454 51.4518 83.8493C51.947 86.4367 52.0498 89.114 52.0096 91.7915C51.956 94.4594 51.7594 97.1274 51.6758 99.7526C51.586 102.581 51.473 105.414 51.3699 108.234C51.2886 110.465 50.9319 112.933 51.1004 115.242C51.0407 115.323 50.9977 115.438 51.018 115.578C51.4907 119.898 51.9401 124.222 52.3829 128.583C52.5363 130.131 52.6797 131.692 52.8198 133.231C46.4315 131.61 41.1957 127.745 38.1176 121.824ZM82.6199 129.305C86.3484 128.869 90.1682 129.061 94.0084 129.477C97.8354 129.882 101.639 130.459 105.343 130.838C112.99 131.603 121.441 131.493 128.491 134.636C133.464 136.852 135.939 141.336 136.001 146.357C133.483 149.297 128.254 148.268 125.023 148.024C121.369 147.745 117.745 147.34 114.187 146.651C106.825 145.218 100.441 141.415 93.4092 139.14C83.5372 135.947 73.3355 135.409 63.6111 138.32C69.6067 134.283 75.1629 130.177 82.6199 129.305ZM119.49 164.765C112.304 166.187 105.362 164.123 99.4521 160.706C92.6692 156.779 87.9605 150.715 82.1065 145.714C77.7893 142.016 72.4584 141.518 66.9428 141.718C64.4179 141.82 61.8898 141.983 59.3744 141.905C58.3563 141.874 57.3513 141.769 56.3495 141.603C59.51 140.13 62.8043 139.004 66.1593 138.213C69.5975 137.42 73.1397 137.016 76.7128 136.987C84.6707 136.937 92.3982 139.322 99.6016 142.367C102.905 143.767 106.153 145.355 109.629 146.38C113.404 147.498 117.275 148.123 121.211 148.546C125.112 148.963 132.292 150.618 135.994 147.539C135.888 149.19 135.536 150.871 134.921 152.548C133.682 155.916 131.512 158.63 128.806 160.682C126.063 162.729 122.839 164.094 119.49 164.765Z" fill="#4A608C" fill-opacity="0.5"/>
<path d="M113.6 140.9L114.427 140.338L114.421 140.328L114.414 140.319L113.6 140.9ZM117.3 144.9L116.7 145.7L116.722 145.717L116.745 145.732L117.3 144.9ZM122.4 147L123.4 147L123.4 146.206L122.627 146.026L122.4 147ZM122.4 149L122.338 149.998L123.4 150.064L123.4 149L122.4 149ZM100.1 149L99.1 149L99.1 150.063L100.161 149.998L100.1 149ZM100.1 147L100.058 146.001L99.1 146.041L99.1 147L100.1 147ZM103.6 146.4L104.014 147.31L103.6 146.4ZM103.7 142.5L102.867 143.053L102.876 143.067L102.886 143.081L103.7 142.5ZM89.1 120.5L88.265 121.05L88.2668 121.053L89.1 120.5ZM84.2 114.8L83.6265 115.619L83.6406 115.629L83.655 115.638L84.2 114.8ZM78.6 113.2L78.6555 112.202L77.6 112.143L77.6 113.2L78.6 113.2ZM79.2 143.9L80.143 143.567L79.2 143.9ZM81.4 146.2L81.0489 147.136L81.058 147.14L81.0672 147.143L81.4 146.2ZM86.7 147L87.7 147L87.7 146.054L86.7555 146.002L86.7 147ZM86.7 149L86.6349 149.998L87.7 150.067L87.7 149L86.7 149ZM61.2 149L60.2 149L60.2 150.074L61.2712 149.997L61.2 149ZM61.2 147L61.1445 146.002L60.2 146.054L60.2 147L61.2 147ZM66.4 146.2L66.0672 145.257L66.058 145.26L66.0489 145.264L66.4 146.2ZM68.7 83.3L67.757 83.6328L68.7 83.3ZM66.4 81L66.0489 81.9363L66.058 81.9397L66.0672 81.943L66.4 81ZM61.2 80.2L60.2 80.2L60.2 81.146L61.1445 81.1985L61.2 80.2ZM61.2 78.2L61.2712 77.2025L60.2 77.126L60.2 78.2L61.2 78.2ZM86.7 78.2L87.7 78.2L87.7 77.1341L86.6363 77.202L86.7 78.2ZM86.7 80.2L86.7555 81.1985L87.7 81.146L87.7 80.2L86.7 80.2ZM81.4 81L81.0672 80.057L81.058 80.0602L81.0489 80.0637L81.4 81ZM79.2 83.3L80.143 83.6328L79.2 83.3ZM78.6 111.2L77.6 111.2L77.6 112.242L78.6411 112.199L78.6 111.2ZM90 105.6L89.2141 104.982L89.209 104.988L90 105.6ZM99.6 93.4L98.8227 92.7707L98.8141 92.7816L99.6 93.4ZM98.5 80.2L97.5 80.2L97.5 81.184L98.4839 81.1999L98.5 80.2ZM98.5 78.2L98.5526 77.2014L97.5 77.146L97.5 78.2L98.5 78.2ZM118.5 78.2L119.5 78.2L119.5 77.095L118.4 77.205L118.5 78.2ZM118.5 80.2L118.65 81.1887L119.5 81.0599L119.5 80.2L118.5 80.2ZM112.3 82.4L112.783 83.2756L112.794 83.2693L112.806 83.2627L112.3 82.4ZM106.7 87.5L107.489 88.115L107.492 88.1108L106.7 87.5ZM90.4 108.4L89.6115 107.785L89.1525 108.374L89.5861 108.981L90.4 108.4ZM112.773 141.462C113.956 143.202 115.262 144.622 116.7 145.7L117.9 144.1C116.671 143.178 115.511 141.932 114.427 140.338L112.773 141.462ZM116.745 145.732C118.264 146.745 120.081 147.486 122.173 147.974L122.627 146.026C120.719 145.581 119.136 144.922 117.855 144.068L116.745 145.732ZM121.4 147L121.4 149L123.4 149L123.4 147L121.4 147ZM122.462 148.002C119.234 147.8 115.212 147.7 110.4 147.7L110.4 149.7C115.188 149.7 119.166 149.8 122.338 149.998L122.462 148.002ZM110.4 147.7C106.782 147.7 103.328 147.801 100.039 148.002L100.161 149.998C103.406 149.799 106.818 149.7 110.4 149.7L110.4 147.7ZM101.1 149L101.1 147L99.1 147L99.1 149L101.1 149ZM100.142 147.999C101.769 147.931 103.097 147.727 104.014 147.31L103.186 145.49C102.636 145.74 101.631 145.935 100.058 146.001L100.142 147.999ZM104.014 147.31C104.491 147.093 104.921 146.79 105.231 146.366C105.55 145.932 105.7 145.429 105.7 144.9L103.7 144.9C103.7 145.038 103.666 145.118 103.619 145.184C103.563 145.26 103.442 145.373 103.186 145.49L104.014 147.31ZM105.7 144.9C105.7 143.922 105.224 142.913 104.514 141.919L102.886 143.081C103.51 143.954 103.7 144.545 103.7 144.9L105.7 144.9ZM104.533 141.947L89.9332 119.947L88.2668 121.053L102.867 143.053L104.533 141.947ZM89.935 119.95C87.9957 117.007 86.2665 114.951 84.745 113.962L83.655 115.638C84.8002 116.383 86.3376 118.126 88.265 121.05L89.935 119.95ZM84.7735 113.981C83.2313 112.901 81.1583 112.341 78.6555 112.202L78.5445 114.198C80.8417 114.326 82.502 114.832 83.6265 115.619L84.7735 113.981ZM77.6 113.2L77.6 138.4L79.6 138.4L79.6 113.2L77.6 113.2ZM77.6 138.4C77.6 140.95 77.7967 142.929 78.257 144.233L80.143 143.567C79.8033 142.605 79.6 140.917 79.6 138.4L77.6 138.4ZM78.257 144.233C78.7492 145.627 79.6885 146.626 81.0489 147.136L81.7511 145.264C80.9782 144.974 80.4508 144.439 80.143 143.567L78.257 144.233ZM81.0672 147.143C82.3402 147.592 84.2245 147.864 86.6445 147.998L86.7555 146.002C84.3755 145.869 82.7265 145.608 81.7328 145.257L81.0672 147.143ZM85.7 147L85.7 149L87.7 149L87.7 147L85.7 147ZM86.7651 148.002C83.6665 147.8 79.4081 147.7 74 147.7L74 149.7C79.3919 149.7 83.6002 149.8 86.6349 149.998L86.7651 148.002ZM74 147.7C68.262 147.7 63.9659 147.8 61.1288 148.003L61.2712 149.997C64.0341 149.8 68.2713 149.7 74 149.7L74 147.7ZM62.2 149L62.2 147L60.2 147L60.2 149L62.2 149ZM61.2555 147.998C63.6702 147.864 65.5331 147.593 66.7511 147.136L66.0489 145.264C65.1336 145.607 63.5298 145.869 61.1445 146.002L61.2555 147.998ZM66.7328 147.143C68.1513 146.642 69.1423 145.651 69.643 144.233L67.757 143.567C67.4577 144.415 66.9153 144.958 66.0672 145.257L66.7328 147.143ZM69.643 144.233C70.1033 142.929 70.3 140.95 70.3 138.4L68.3 138.4C68.3 140.917 68.0967 142.605 67.757 143.567L69.643 144.233ZM70.3 138.4L70.3 88.8L68.3 88.8L68.3 138.4L70.3 138.4ZM70.3 88.8C70.3 86.2504 70.1033 84.2713 69.643 82.9672L67.757 83.6328C68.0967 84.5953 68.3 86.2829 68.3 88.8L70.3 88.8ZM69.643 82.9672C69.1423 81.5486 68.1513 80.5577 66.7328 80.057L66.0672 81.943C66.9153 82.2423 67.4577 82.7847 67.757 83.6328L69.643 82.9672ZM66.7511 80.0637C65.5331 79.6069 63.6702 79.3357 61.2555 79.2015L61.1445 81.1985C63.5298 81.331 65.1336 81.5931 66.0489 81.9363L66.7511 80.0637ZM62.2 80.2L62.2 78.2L60.2 78.2L60.2 80.2L62.2 80.2ZM61.1288 79.1975C63.9659 79.4001 68.262 79.5 74 79.5L74 77.5C68.2713 77.5 64.0341 77.3999 61.2712 77.2025L61.1288 79.1975ZM74 79.5C79.3421 79.5 83.5996 79.3999 86.7637 79.198L86.6363 77.202C83.5337 77.4001 79.3245 77.5 74 77.5L74 79.5ZM85.7 78.2L85.7 80.2L87.7 80.2L87.7 78.2L85.7 78.2ZM86.6445 79.2015C84.2245 79.336 82.3402 79.6077 81.0672 80.057L81.7328 81.943C82.7265 81.5923 84.3755 81.3307 86.7555 81.1985L86.6445 79.2015ZM81.0489 80.0637C79.6885 80.5738 78.7492 81.5726 78.257 82.9672L80.143 83.6328C80.4508 82.7607 80.9782 82.2262 81.7511 81.9363L81.0489 80.0637ZM78.257 82.9672C77.7967 84.2713 77.6 86.2504 77.6 88.8L79.6 88.8C79.6 86.2829 79.8033 84.5953 80.143 83.6328L78.257 82.9672ZM77.6 88.8L77.6 111.2L79.6 111.2L79.6 88.8L77.6 88.8ZM78.6411 112.199C83.7724 111.988 87.8593 110.002 90.791 106.212L89.209 104.988C86.674 108.265 83.1609 110.012 78.5589 110.201L78.6411 112.199ZM90.7859 106.218L100.386 94.0184L98.8141 92.7816L89.2141 104.982L90.7859 106.218ZM100.377 94.0292C102.1 91.9011 103.417 89.996 104.308 88.3192C105.191 86.6575 105.7 85.1369 105.7 83.8L103.7 83.8C103.7 84.6631 103.359 85.8425 102.542 87.3808C101.733 88.904 100.5 90.6989 98.8228 92.7708L100.377 94.0292ZM105.7 83.8C105.7 82.2664 104.984 81.0588 103.652 80.2852C102.399 79.5577 100.645 79.2345 98.5161 79.2001L98.4839 81.1999C100.488 81.2322 101.834 81.5423 102.648 82.0148C103.382 82.4412 103.7 83.0002 103.7 83.8L105.7 83.8ZM99.5 80.2L99.5 78.2L97.5 78.2L97.5 80.2L99.5 80.2ZM98.4474 79.1986C102.265 79.3996 106.116 79.5 110 79.5L110 77.5C106.151 77.5 102.335 77.4004 98.5526 77.2014L98.4474 79.1986ZM110 79.5C113.678 79.5 116.55 79.4 118.6 79.195L118.4 77.205C116.45 77.4 113.656 77.5 110 77.5L110 79.5ZM117.5 78.2L117.5 80.2L119.5 80.2L119.5 78.2L117.5 78.2ZM118.35 79.2113C116.024 79.5638 113.836 80.3402 111.794 81.5373L112.806 83.2627C114.63 82.1931 116.576 81.5029 118.65 81.1887L118.35 79.2113ZM111.817 81.5244C109.731 82.6754 107.765 84.4818 105.908 86.8892L107.492 88.1108C109.235 85.8516 111.003 84.2579 112.783 83.2756L111.817 81.5244ZM105.911 86.885L89.6115 107.785L91.1885 109.015L107.489 88.115L105.911 86.885ZM89.5861 108.981L112.786 141.481L114.414 140.319L91.2139 107.819L89.5861 108.981Z" fill="#A1A3D4"/>
<path d="M108.6 138.9C109.733 140.567 110.967 141.9 112.3 142.9C113.7 143.833 115.4 144.533 117.4 145L117.4 147C114.2 146.8 110.2 146.7 105.4 146.7C101.8 146.7 98.3667 146.8 95.1 147L95.1 145C96.7 144.933 97.8667 144.733 98.6 144.4C99.3333 144.067 99.7 143.567 99.7 142.9C99.7 142.233 99.3667 141.433 98.7 140.5L84.1 118.5C82.1667 115.567 80.5333 113.667 79.2 112.8C77.8667 111.867 76 111.333 73.6 111.2L73.6 136.4C73.6 138.933 73.8 140.767 74.2 141.9C74.6 143.033 75.3333 143.8 76.4 144.2C77.5333 144.6 79.3 144.867 81.7 145L81.7 147C78.6333 146.8 74.4 146.7 69 146.7C63.2667 146.7 59 146.8 56.2 147L56.2 145C58.6 144.867 60.3333 144.6 61.4 144.2C62.5333 143.8 63.3 143.033 63.7 141.9C64.1 140.767 64.3 138.933 64.3 136.4L64.3 86.8C64.3 84.2667 64.1 82.4333 63.7 81.3C63.3 80.1667 62.5333 79.4 61.4 79C60.3333 78.6 58.6 78.3333 56.2 78.2L56.2 76.2C59 76.4 63.2667 76.5 69 76.5C74.3333 76.5 78.5667 76.4 81.7 76.2L81.7 78.2C79.3 78.3333 77.5333 78.6 76.4 79C75.3333 79.4 74.6 80.1667 74.2 81.3C73.8 82.4333 73.6 84.2667 73.6 86.8L73.6 109.2C78.4667 109 82.2667 107.133 85 103.6L94.6 91.4C98 87.2 99.7 84 99.7 81.8C99.7 79.4667 97.6333 78.2667 93.5 78.2L93.5 76.2C97.3 76.4 101.133 76.5 105 76.5C108.667 76.5 111.5 76.4 113.5 76.2L113.5 78.2C111.3 78.5333 109.233 79.2667 107.3 80.4C105.367 81.4667 103.5 83.1667 101.7 85.5L85.4 106.4L108.6 138.9Z" fill="#4A608C"/>
</svg>
