<svg width="1581" height="1230" viewBox="0 0 1581 1230" fill="none" xmlns="http://www.w3.org/2000/svg">
<g clip-path="url(#clip0)">
<path d="M753.742 1022.75C753.761 1022.55 753.855 1022.4 753.873 1022.2C754.835 1019.08 754.73 1015.85 755.144 1012.62C755.384 1010.86 755.718 1008.95 755.759 1007.18C755.878 1003.24 755.629 999.395 755.182 995.535C751.825 969.225 730.263 950.731 709.364 938.128C680.276 920.269 647.766 907.527 616.564 893.145C592.174 882.027 567.605 870.694 540.288 868.475C512.254 866.246 482.865 877.138 457.704 889.417C447.626 889.992 437.4 891.322 427.206 893.621C426.885 893.639 426.744 893.871 426.603 894.103C426.102 893.906 425.648 893.632 425.146 893.435C424.342 893.056 423.83 892.536 423.365 891.939C445.558 887.266 467.701 881.825 488.257 870.992C529.926 848.922 561.96 812.912 591.496 775.395C591.572 775.44 591.572 775.44 591.647 775.486C607.239 777.075 621.526 772.809 634.709 765.765C648.042 758.813 660.347 749.127 671.839 739.586C679.771 733.177 687.639 727.046 695.866 721.343C700.003 718.453 704.122 715.763 708.468 713.21C712.843 710.78 717.37 708.441 722.001 706.271C731.121 702.163 740.415 698.792 749.87 695.836C759.429 693.048 769.075 690.63 778.541 687.996C810.8 679.363 841.1 669.866 868.217 649.263C875.358 643.644 882.348 637.934 889.234 632.056C896.166 626.1 902.976 620.175 909.909 614.22C916.888 608.186 924.116 602.936 931.722 597.915C939.065 593.157 946.768 588.827 955.04 585.263C955.163 585.231 955.286 585.2 955.333 585.122C955.578 585.059 955.795 584.873 956.04 584.81C959.653 583.293 952.72 577.845 951.902 576.296C949.144 570.62 944.744 565.432 940.129 561.277C933.421 555.12 925.452 550.525 917.099 547.072C917.023 547.026 916.948 546.98 916.872 546.935C908.321 543.467 898.932 540.867 889.452 539.268C880.076 537.838 870.477 537.117 861.342 536.993C837.639 536.32 813.918 538.91 789.968 540.516C777.549 541.368 765.462 542.526 753.093 544.147C746.984 545.003 740.781 546.014 734.664 547.394C728.548 548.774 722.669 550.613 716.678 552.808C705.31 557.039 694.675 563.296 684.913 570.502C675.255 577.877 666.196 586.14 657.598 594.154C648.925 602.122 640.659 610.441 632.696 618.944C624.884 627.537 617.329 636.39 611.363 646.203C600.831 663.186 596.181 682.239 593.382 701.141C589.817 725.389 586.388 750.774 586.583 774.966C557.629 811.356 526.722 845.512 486.142 868.344C465.899 879.682 444.088 885.429 421.96 889.824C420.753 884.661 423.899 876.422 424.668 871.923L426.967 858.95C454.998 857.27 477.75 844.699 498.267 825.079C508.154 815.625 518.84 804.858 528.332 793.16C537.701 781.493 545.924 768.819 550.717 755.659C561.517 725.639 553.825 693.864 549.162 663.915C543.495 627.448 536.496 591.128 529.451 554.886C529.297 553.948 528.33 553.154 527.244 553.238C518.321 554.298 509.769 556.109 501.483 558.504C493.122 560.853 484.98 563.862 477.075 567.331C461.342 574.315 447.09 583.459 434.128 594.226C421.487 604.975 410.487 617.453 401.285 631.227C392.451 644.906 385.464 659.803 380.784 675.671C375.359 694.467 373.025 713.966 370.312 733.237C367.746 750.907 366.312 768.414 368.695 786.112C372.852 817.234 393.881 845.965 422.129 858.566L416.4 890.8C410.547 891.916 404.741 892.955 398.888 894.072C385.898 896.374 372.55 899.095 359.821 903.35C347.063 907.483 335.03 913.319 324.801 922.144C324.198 922.625 324.947 923.605 325.626 923.169C353.206 905.38 384.7 899.876 416.239 893.448C416.382 894.063 416.771 894.614 417.377 894.98C438.465 907.274 463.288 909.679 486.397 916.435C499.938 920.377 511.928 926.869 521.616 937.146C533.759 949.855 540.8 967.722 549.532 982.807C576.944 1030.49 618.967 1074.73 676.709 1076.61C692.042 1077.09 707.426 1073.06 720.652 1065.1C733.417 1057.38 743.901 1045.75 749.863 1032.03C751.666 1028.89 752.827 1025.79 753.742 1022.75ZM914.235 605.742C901.818 615.782 890.076 626.756 878.056 636.824C870.521 643.261 862.964 649.052 855.055 653.891C847.297 658.821 839.111 662.754 830.849 666.641C822.634 670.451 814.153 673.677 805.34 676.599C800.933 678.059 796.422 679.351 791.911 680.643C787.429 682.058 782.842 683.305 778.209 684.628C762.561 688.918 746.809 693.04 731.857 698.911C724.357 701.885 716.961 705.028 709.786 708.831C702.61 712.633 695.776 717.065 689.133 722.034C659.301 744.379 631.876 774.51 592.522 774.218C602.285 761.734 611.774 749.189 621.321 736.891C631.348 724.143 641.545 711.286 652.318 698.671C663.272 686.271 674.605 674.099 686.856 662.798C699.288 651.712 712.203 641.022 726.315 632.109C733.394 627.615 740.682 623.457 748.254 619.682C755.751 615.862 763.533 612.424 771.657 609.615C779.243 607.01 786.839 604.728 794.522 602.814C802.205 600.901 809.898 599.311 817.783 598.258C833.446 595.984 849.008 594.387 864.685 593.283C880.391 592.301 895.917 591.105 911.27 589.171C922.073 588.083 931.644 588.681 941.635 587.738C931.979 592.896 922.95 599.066 914.235 605.742ZM611.467 654.713C613.766 650.08 616.49 645.599 619.518 641.3C622.545 637.002 625.875 632.886 629.357 628.861C636.32 620.812 643.965 613.174 651.469 605.768C659.915 597.663 668.437 589.603 677.47 582.064C682.002 578.355 686.58 574.57 691.396 571.244C696.334 567.887 701.33 564.776 706.629 561.847C716.917 556.33 727.635 552.658 738.822 550.429C750.008 548.2 761.453 547.077 772.454 546.003C783.748 544.789 795.157 544.067 806.49 543.299C817.822 542.531 829.08 541.717 840.347 541.227C851.568 540.813 862.828 540.846 873.619 541.651C884.485 542.503 894.928 544.049 904.782 547.246C923.761 553.306 939.921 564.002 950.959 582.274C937.261 584.889 923.917 583.177 909.809 584.595C894.381 586.483 878.884 587.802 863.16 588.984C847.511 590.211 831.96 592.131 816.296 594.405C808.441 595.581 800.672 597.125 793.036 598.962C785.277 600.829 777.652 602.988 769.99 605.548C766.074 606.882 762.159 608.216 758.423 609.765C754.641 611.391 750.934 613.062 747.331 614.902C740.051 618.536 732.904 622.462 726.042 626.771C719.103 631.034 712.526 635.726 706.157 640.754C699.712 645.737 693.524 650.98 687.487 656.315C675.441 667.106 664.372 679.015 653.7 690.952C643.104 702.934 633.293 715.496 623.642 727.626C611.979 742.555 600.571 757.744 588.804 772.504C596.296 733.625 592.615 692.02 611.467 654.713ZM530.228 581.013C533.619 597.734 536.641 614.551 539.71 631.29C545.533 663.416 553.988 697.341 552.785 730.298C552.179 746.616 545.899 761.201 537.3 774.494C528.777 787.832 517.69 799.941 507.299 811.414C484.872 836.218 460.699 853 427.839 856.835L441.827 777.315C441.993 776.36 441.669 775.531 441.035 775.042C444.176 768.173 446.305 760.587 448.775 753.63C452.678 742.785 456.656 731.985 460.512 721.217C464.707 710.232 468.874 699.123 472.993 688.092C475.015 682.554 477.037 677.015 478.907 671.385C480.853 665.801 482.724 660.171 484.518 654.496C490.265 635.682 490.105 616.369 493.536 597.109C496.607 580.482 508.216 566.154 524.512 558.243C527.873 560.375 529.7 578.477 530.228 581.013ZM373.956 788.863C370.806 773.448 371.11 756.948 373.113 740.206C375.192 723.509 378.782 706.88 381.848 691.623C384.755 676.799 389.931 662.498 396.528 649.265C403.001 636.063 411.679 623.663 421.758 612.53C426.822 606.925 432.123 601.781 438.001 596.878C443.879 591.976 450.164 587.425 456.659 583.211C463.229 579.043 469.961 575.289 477.298 571.9C484.636 568.512 492.212 565.583 499.978 563.192C504.951 561.651 509.935 560.433 514.9 559.415C512.911 560.644 510.979 562.119 509.171 563.562C503.773 568.015 498.897 573.311 495.155 578.445C490.556 584.647 489.773 593.255 488.616 600.265C486.797 612.79 486.168 625.398 484.151 637.908C482.217 649.941 478.299 661.832 474.125 673.464C469.951 685.096 465.228 696.608 461.12 707.963C456.57 720.212 452.464 732.413 448.159 744.6C444.81 754.195 440.027 764.615 437.784 774.772C437.398 775.067 437.116 775.53 437.062 776.131L423.165 854.65C398.085 840.582 380.128 818.032 373.956 788.863ZM554.145 873.77C586.357 879.68 616.918 897.16 646.02 910.909C676.191 924.775 709.985 937.446 733.804 961.419C745.623 973.298 751.216 987.758 751.813 1002.27C752.089 1008.45 751.401 1014.69 749.815 1020.7C736.975 1028.37 717.533 1016.44 705.044 1010.6C690.9 1004.07 676.933 996.918 663.314 989.021C635.242 972.725 613.509 948.215 587.232 929.307C550.294 902.913 507.839 887.975 463.285 889.087C493.366 878.93 521.809 867.891 554.145 873.77ZM724.428 1058.72C719.038 1062.64 712.975 1065.64 706.54 1067.88C693.623 1072.45 679.447 1073.3 665.31 1071.53C634.899 1067.76 608.834 1050.04 588.102 1028.14C564.345 1003.04 551.487 971.421 532.716 942.89C518.892 921.882 497.184 913.332 473.615 907.671C462.866 905.096 451.93 902.829 441.311 899.699C437.037 898.388 432.828 896.801 428.807 894.904C459.432 889.298 490.429 890.569 520.128 899.082C553.6 908.708 582.856 928.674 608.928 951.155C620.893 961.432 632.265 972.514 645.18 981.57C659.137 991.465 674.193 999.383 689.314 1007.02C697.99 1011.31 710.437 1018.92 722.733 1023.38C728.918 1025.63 735.072 1026.91 740.711 1026.83C743.431 1026.78 745.99 1026.31 748.462 1025.48C746.32 1031.9 743.157 1038.12 739.021 1044.07C734.856 1049.9 729.941 1054.75 724.428 1058.72Z" fill="#A1A3D4"/>
<path d="M844.882 842.885C844.559 836.778 842.576 831.358 840.781 825.63C839.072 820.27 836.872 815.037 834.117 810.207C818.246 781.841 784.127 773.62 753.824 770.867C711.71 767.115 668.056 769.299 625.791 768.518C592.812 767.953 559.434 766.513 527.387 776.33C510.429 781.414 494.76 790.336 480.192 801.191C466.152 811.519 453.232 823.578 441.597 835.567C430.249 840.445 419.103 846.182 408.262 852.949C407.923 853.167 407.782 853.399 407.793 853.722C407.122 853.634 406.526 853.592 405.855 853.504C404.788 853.388 403.936 853.086 403.15 852.506C411.861 847.2 420.543 841.771 429.063 835.928C443.312 825.937 456.859 814.889 468.877 801.759C507.351 759.072 527.788 704.348 542.746 649.276C542.822 649.322 542.869 649.244 542.945 649.29C561.072 643.644 574.901 632.133 586.094 617.977C597.212 603.775 605.893 586.942 613.632 570.808C624.025 548.777 634.648 527.73 649.782 508.453C664.541 489.795 682.274 473.563 699.354 457.044C728.307 428.996 753.733 399.77 767.452 361.373C782.08 320.462 785.428 276.655 807.943 238.6C808.742 237.286 807.943 235.537 806.402 235.347C803.765 234.919 800.525 234.971 798.113 233.833C793.515 231.693 788.342 230.158 783.285 229.115C776.111 227.639 768.722 227.195 761.336 227.599C746.244 228.422 731.39 232.769 717.354 238.664C705.27 243.731 693.72 249.964 682.662 256.917C659.992 271.227 638.348 287.423 616.428 302.712C593.828 318.437 570.338 333.414 552.111 354.204C534.627 374.281 525.486 400.551 517.36 425.322C509.158 450.046 500.892 475.048 498.4 501.105C496.218 523.758 501.527 546.176 508.117 567.678C516.588 595.278 525.357 624.429 537.282 650.944C522.47 704.415 502.468 756.55 465.687 799.518C453.237 813.867 439.022 825.673 423.773 836.117C416.365 841.153 408.702 845.928 400.933 850.536C397.345 845.204 397.593 834.583 396.677 829.28C395.791 824.099 394.905 818.919 393.942 813.692C425.202 800.234 446.084 776.609 460.746 745.855C474.948 716.196 490.156 679.436 488.08 646.085C485.913 608.456 461.495 577.469 441.094 547.533C416.327 511.162 389.939 475.926 362.609 441.388C361.888 440.531 360.488 440.109 359.442 440.64C291.479 478.213 254.753 551.729 262.905 628.024C265.381 650.846 271.18 673.138 276.489 695.557C281.366 716.131 287.073 736.362 297.14 755.209C314.849 788.379 350.675 812.518 388.327 815.269C390.628 828.166 392.853 841.017 394.985 854.022C388.743 857.65 382.502 861.277 376.232 864.782C362.259 872.616 347.91 881.068 335.021 891.034C322.027 900.832 310.447 912.221 302.125 926.419C301.655 927.192 302.942 927.968 303.441 927.319C314.418 913.348 327.236 901.967 341.06 891.825C354.732 881.592 369.561 872.69 384.466 863.834C388.227 861.562 391.942 859.368 395.703 857.096C396.121 857.77 396.803 858.181 397.625 858.36C426.822 863.614 456.496 856.168 485.819 853.895C503.073 852.579 519.527 854.794 535.156 862.107C554.457 871.213 570.035 888.315 586.431 901.687C637.959 943.744 704.834 976.048 774.635 948.558C803.757 937.084 827.487 912.009 838.157 882.544C840.721 875.432 842.463 868.141 843.383 860.671C844.016 855.034 844.836 849.088 844.571 843.226C844.957 842.931 844.882 842.885 844.882 842.885ZM768.996 342.664C756.395 388.071 730.133 421.227 696.821 453.721C682.839 467.358 668.828 480.871 656.086 495.361C643.345 509.851 631.872 525.317 622.919 542.936C603.026 582.467 587.199 629.096 543.278 647.379C548.176 629.11 552.508 610.921 556.727 593.087C574.34 518.497 592.511 441.288 643.433 381.19C687.42 329.264 751.48 302.536 796.217 251.59C782.73 280.413 777.358 312.229 768.996 342.664ZM502.927 510.17C502.97 486.438 510.514 462.796 517.703 440.417C525.555 415.587 533.634 390.894 547.53 368.547C561.032 347.019 582.303 332.288 602.819 317.946C623.722 303.31 644.701 288.719 665.603 274.083C706.513 245.431 752.095 221.181 801.232 239.937C754.629 295.143 686.317 324.27 639.03 378.219C589.429 434.784 571.122 510.855 554.432 581.883C549.347 603.524 544.197 625.443 538.3 647.228C527.67 601.221 502.908 558.202 502.927 510.17ZM377.52 468.437C389.92 484.467 402.057 500.761 413.976 517.242C436.753 548.716 463.454 581.396 477.953 617.804C485.098 635.84 485.113 654.538 481.709 673.075C478.153 691.52 471.223 709.727 464.659 726.992C457.261 745.971 448.334 762.867 436.555 777.304C425.124 791 411.296 802.512 393.736 811.139C391.435 798.242 389.058 785.3 386.635 772.435C383.076 753.606 379.576 735.023 375.772 716.257C375.56 715.073 374.746 714.371 373.894 714.068C374.469 705.123 373.399 695.819 373.067 687.172C372.625 673.601 372.165 660.231 371.6 646.691C370.459 619.289 370.055 591.698 366.299 564.514C363.238 541.972 353.592 521.583 347.218 499.895C341.78 481.094 346.694 461.778 359.227 446.951C363.783 447.798 375.556 465.88 377.52 468.437ZM303.983 756.379C283.869 724.61 277.602 681.129 270.917 645.315C257.892 575.162 280.911 507.001 336.209 462.002C340.571 458.402 345.17 455.263 349.921 452.215C344.404 460.608 340.971 470.681 339.292 479.91C337.78 488.185 341.401 497.549 343.883 505.381C348.276 519.434 353.913 532.97 357.891 547.194C361.724 560.804 363.501 575.074 364.512 589.411C365.448 603.702 365.619 618.06 366.374 632.136C367.19 647.306 367.884 662.506 368.624 677.629C369.212 689.599 368.435 702.963 370.394 715.231C370.112 715.694 369.934 716.326 370.107 717.064C374.614 739.95 378.998 762.867 383.364 785.984C384.894 794.192 386.376 802.477 387.83 810.64C352.926 804.901 323.156 786.631 303.983 756.379ZM545.391 775.994C565.129 771.954 585.644 771.232 606.371 771.695C627.022 772.111 647.628 773.451 667.608 773.78C708.853 774.367 753.991 769.911 793.134 783.486C820.74 793.059 836.035 815.904 838.665 842.727C826.546 859.598 798.112 856.494 780.722 856.671C761.055 856.848 741.49 856.347 722.147 854.291C682.118 850.002 646.24 832.589 607.593 823.643C553.339 811.092 498.538 812.888 447.869 832.909C478.082 808.577 505.914 784.075 545.391 775.994ZM758.803 948.725C721.026 959.627 682.96 951.77 649.789 936.201C611.718 918.309 583.759 888.039 550.163 863.977C525.383 846.182 496.646 845.958 467.243 849.555C453.788 851.261 440.343 853.289 426.856 854.026C421.397 854.324 415.975 854.221 410.542 853.796C426.767 844.469 443.868 836.937 461.447 831.172C479.47 825.358 498.227 821.57 517.322 819.781C559.854 815.866 602.271 825.079 642.187 838.064C660.495 844.036 678.589 851.041 697.646 854.931C718.347 859.179 739.332 860.748 760.579 861.207C781.626 861.651 820.781 867.208 839.168 849.048C839.359 857.927 838.246 867.076 835.727 876.327C830.641 894.906 820.283 910.411 806.75 922.628C793.018 934.831 776.403 943.607 758.803 948.725Z" fill="#4A608C"/>
</g>
<path d="M914.508 871L908.539 870.391L907.979 875.88L913.402 876.897L914.508 871ZM917.156 825.984L923.152 826.191L923.153 826.188L917.156 825.984ZM912.522 696.563L911.306 690.687L904.261 692.145L906.96 698.814L912.522 696.563ZM949.925 696.563L955.904 697.066L956.361 691.635L950.998 690.66L949.925 696.563ZM946.284 781.961L940.285 781.882L940.079 797.396L950.669 786.056L946.284 781.961ZM996.265 724.367L991.401 720.854L991.395 720.862L991.389 720.871L996.265 724.367ZM1009.17 698.218L1008.07 692.32L1003.17 693.233V698.218H1009.17ZM1050.55 694.577L1054.67 698.936L1065.62 688.577H1050.55V694.577ZM982.032 767.066L977.556 763.07L974.556 766.431L976.946 770.25L982.032 767.066ZM1057.17 866.035L1059.61 871.518L1069.11 867.292L1060.69 861.18L1057.17 866.035ZM1038.63 871.331L1037.81 865.387L1037.7 865.404L1037.58 865.424L1038.63 871.331ZM1017.12 872.986L1011.96 876.054L1013.71 878.986H1017.12V872.986ZM961.179 790.236L966.063 786.751L961.644 780.557L956.651 786.299L961.179 790.236ZM954.559 797.849L950.031 793.912L949.951 794.005L949.874 794.101L954.559 797.849ZM946.284 807.448L942.041 803.205L940.251 804.995L940.285 807.526L946.284 807.448ZM951.58 871L952.882 876.857L959.527 875.38L957.227 868.973L951.58 871ZM933.044 866.986C928.223 866.986 922.43 866.381 915.614 865.103L913.402 876.897C920.709 878.267 927.273 878.986 933.044 878.986V866.986ZM920.477 871.609C921.601 860.599 922.489 845.438 923.152 826.191L911.16 825.777C910.499 844.926 909.622 859.776 908.539 870.391L920.477 871.609ZM923.153 826.188C923.817 806.71 924.149 788.326 924.149 771.038H912.149C912.149 788.174 911.819 806.421 911.159 825.78L923.153 826.188ZM924.149 771.038C924.149 750.776 923.679 734.307 922.725 721.681C921.79 709.301 920.35 699.912 918.084 694.312L906.96 698.814C908.445 702.482 909.819 710.14 910.759 722.585C911.681 734.784 912.149 750.918 912.149 771.038H924.149ZM913.738 702.439C919.808 701.183 925.354 700.577 930.396 700.577V688.577C924.404 688.577 918.035 689.295 911.306 690.687L913.738 702.439ZM930.396 700.577C935.687 700.577 941.828 701.189 948.852 702.466L950.998 690.66C943.458 689.289 936.579 688.577 930.396 688.577V700.577ZM943.946 696.06C941.945 719.856 940.727 748.471 940.285 781.882L952.283 782.04C952.724 748.809 953.933 720.493 955.904 697.066L943.946 696.06ZM950.669 786.056C975.594 759.367 992.502 739.912 1001.14 727.863L991.389 720.871C983.257 732.213 966.845 751.153 941.899 777.866L950.669 786.056ZM1001.13 727.88C1005.54 721.773 1008.97 716.317 1011.33 711.549C1013.62 706.903 1015.17 702.353 1015.17 698.218H1003.17C1003.17 699.6 1002.58 702.166 1000.57 706.237C998.617 710.185 995.597 715.045 991.401 720.854L1001.13 727.88ZM1010.27 704.116C1022.9 701.763 1036.32 700.577 1050.55 700.577V688.577C1035.65 688.577 1021.49 689.818 1008.07 692.32L1010.27 704.116ZM1046.43 690.218C1029.91 705.844 1006.93 730.16 977.556 763.07L986.508 771.061C1015.83 738.213 1038.53 714.203 1054.67 698.936L1046.43 690.218ZM976.946 770.25C993.988 797.472 1008.85 819.456 1021.52 836.149C1034.11 852.721 1044.83 864.494 1053.64 870.89L1060.69 861.18C1053.39 855.88 1043.55 845.312 1031.08 828.893C1018.71 812.597 1004.06 790.944 987.118 763.882L976.946 770.25ZM1054.73 860.552C1049.28 862.974 1043.65 864.582 1037.81 865.387L1039.45 877.275C1046.42 876.314 1053.14 874.392 1059.61 871.518L1054.73 860.552ZM1037.58 865.424C1031.83 866.45 1025.03 866.986 1017.12 866.986V878.986C1025.54 878.986 1033.08 878.418 1039.69 877.238L1037.58 865.424ZM1022.27 869.918C1011.76 852.253 992.991 824.494 966.063 786.751L956.295 793.721C983.21 831.446 1001.73 858.854 1011.96 876.054L1022.27 869.918ZM956.651 786.299L950.031 793.912L959.087 801.786L965.707 794.173L956.651 786.299ZM949.874 794.101C946.373 798.477 943.783 801.464 942.041 803.205L950.527 811.691C952.757 809.46 955.684 806.047 959.244 801.597L949.874 794.101ZM940.285 807.526C940.506 824.477 941.061 838.368 941.96 849.156C942.844 859.765 944.097 867.913 945.933 873.027L957.227 868.973C955.974 865.481 954.799 858.734 953.918 848.159C953.052 837.763 952.503 824.181 952.283 807.37L940.285 807.526ZM950.278 865.143C944.768 866.367 939.027 866.986 933.044 866.986V878.986C939.86 878.986 946.476 878.281 952.882 876.857L950.278 865.143ZM1078.59 856.105L1074.11 860.101L1074.11 860.101L1078.59 856.105ZM1070.97 768.721L1065.69 765.876L1065.68 765.895L1065.67 765.914L1070.97 768.721ZM1096.46 742.241L1099.44 747.45L1099.45 747.441L1099.47 747.431L1096.46 742.241ZM1166.63 741.248L1163.53 746.382L1163.57 746.409L1163.62 746.435L1166.63 741.248ZM1188.48 764.749L1183.11 767.432L1183.13 767.479L1183.16 767.524L1188.48 764.749ZM1186.82 838.893L1181.58 835.971L1181.57 835.988L1181.56 836.005L1186.82 838.893ZM1160.67 865.373L1163.56 870.632L1163.6 870.611L1163.64 870.589L1160.67 865.373ZM1157.69 848.161L1162.28 852.026L1162.31 851.997L1162.33 851.967L1157.69 848.161ZM1158.69 776.665L1153.64 779.915L1153.64 779.915L1158.69 776.665ZM1132.21 756.474L1134 750.749L1133.13 750.474H1132.21V756.474ZM1101.42 769.714L1096.91 765.763L1096.9 765.771L1101.42 769.714ZM1100.76 845.844L1095.84 849.27L1095.88 849.332L1095.92 849.392L1100.76 845.844ZM1122.28 868.641C1105.72 868.641 1092.84 863.065 1083.06 852.109L1074.11 860.101C1086.39 873.86 1102.65 880.641 1122.28 880.641V868.641ZM1083.06 852.109C1073.21 841.073 1068.04 826.383 1068.04 807.448H1056.04C1056.04 828.675 1061.9 846.422 1074.11 860.101L1083.06 852.109ZM1068.04 807.448C1068.04 793.721 1070.84 781.8 1076.28 771.528L1065.67 765.914C1059.19 778.15 1056.04 792.047 1056.04 807.448H1068.04ZM1076.26 771.566C1081.93 761.031 1089.65 753.046 1099.44 747.45L1093.48 737.032C1081.65 743.794 1072.37 753.461 1065.69 765.876L1076.26 771.566ZM1099.47 747.431C1109.51 741.609 1120.92 738.642 1133.86 738.642V726.642C1119 726.642 1105.48 730.074 1093.45 737.051L1099.47 747.431ZM1133.86 738.642C1145.25 738.642 1155.08 741.274 1163.53 746.382L1169.74 736.114C1159.21 729.747 1147.19 726.642 1133.86 726.642V738.642ZM1163.62 746.435C1172.06 751.343 1178.54 758.29 1183.11 767.432L1193.84 762.066C1188.26 750.907 1180.18 742.186 1169.65 736.061L1163.62 746.435ZM1183.16 767.524C1187.94 776.693 1190.42 787.41 1190.42 799.835H1202.42C1202.42 785.78 1199.61 773.106 1193.8 761.974L1183.16 767.524ZM1190.42 799.835C1190.42 813.489 1187.43 825.483 1181.58 835.971L1192.06 841.815C1199.01 829.353 1202.42 815.309 1202.42 799.835H1190.42ZM1181.56 836.005C1175.92 846.278 1168.01 854.302 1157.71 860.157L1163.64 870.589C1175.85 863.645 1185.36 854.016 1192.08 841.781L1181.56 836.005ZM1157.79 860.114C1147.52 865.752 1135.73 868.641 1122.28 868.641V880.641C1137.51 880.641 1151.32 877.352 1163.56 870.632L1157.79 860.114ZM1128.24 866.739C1142.29 866.739 1153.91 861.973 1162.28 852.026L1153.11 844.296C1147.36 851.12 1139.34 854.739 1128.24 854.739V866.739ZM1162.33 851.967C1170.56 841.938 1174.29 828.384 1174.29 812.082H1162.29C1162.29 826.673 1158.95 837.172 1153.06 844.355L1162.33 851.967ZM1174.29 812.082C1174.29 797.434 1170.85 784.459 1163.73 773.415L1153.64 779.915C1159.33 788.731 1162.29 799.367 1162.29 812.082H1174.29ZM1163.73 773.415C1156.57 762.308 1146.6 754.7 1134 750.749L1130.41 762.199C1140.32 765.309 1148 771.162 1153.64 779.915L1163.73 773.415ZM1132.21 750.474C1117.86 750.474 1105.88 755.506 1096.91 765.763L1105.94 773.665C1112.41 766.268 1120.96 762.474 1132.21 762.474V750.474ZM1096.9 765.771C1088.19 775.76 1084.17 789.003 1084.17 804.8H1096.17C1096.17 791.028 1099.65 780.88 1105.95 773.657L1096.9 765.771ZM1084.17 804.8C1084.17 822.771 1087.85 837.79 1095.84 849.27L1105.69 842.418C1099.55 833.597 1096.17 821.252 1096.17 804.8H1084.17ZM1095.92 849.392C1104.19 860.657 1115.05 866.739 1128.24 866.739V854.739C1119.36 854.739 1111.9 850.891 1105.6 842.296L1095.92 849.392ZM1232.57 866.035L1228.09 870.021L1228.16 870.109L1228.25 870.194L1232.57 866.035ZM1302.74 798.511L1303.12 804.499L1308.74 804.142V798.511H1302.74ZM1296.45 768.059L1301.3 764.519L1301.3 764.519L1296.45 768.059ZM1252.43 762.763L1250.64 757.036L1250.61 757.044L1250.59 757.053L1252.43 762.763ZM1233.56 771.7L1228.03 774.028L1230.83 780.659L1236.85 776.722L1233.56 771.7ZM1230.92 765.411L1225.8 762.273L1224.19 764.899L1225.39 767.739L1230.92 765.411ZM1255.08 741.91L1258.12 747.084L1258.16 747.06L1258.2 747.035L1255.08 741.91ZM1319.29 744.227L1315.05 748.47L1315.08 748.5L1315.11 748.531L1319.29 744.227ZM1329.22 803.807L1323.26 803.144L1323.25 803.226L1323.24 803.309L1329.22 803.807ZM1330.55 846.837L1324.94 848.973L1324.94 848.973L1330.55 846.837ZM1340.81 862.063L1344.73 866.601L1349.41 862.554L1345.22 858.001L1340.81 862.063ZM1314 874.641L1310.67 879.633L1312.56 880.893L1314.81 880.586L1314 874.641ZM1301.42 856.436L1307.17 854.726L1304.81 846.778L1298 851.508L1301.42 856.436ZM1276.59 869.676L1274.44 864.076L1274.44 864.076L1276.59 869.676ZM1266 858.753L1262.91 863.898L1264.56 864.887L1266.48 864.734L1266 858.753ZM1283.54 854.119L1285.91 859.634L1285.91 859.634L1283.54 854.119ZM1300.09 844.52L1303.76 849.268L1306.09 847.466V844.52H1300.09ZM1301.09 822.343L1307.06 822.94L1307.07 822.85L1307.07 822.761L1301.09 822.343ZM1302.08 808.11L1308.07 808.528L1308.54 801.72L1301.73 802.12L1302.08 808.11ZM1267.33 817.709L1270.59 822.743L1270.64 822.712L1270.68 822.681L1267.33 817.709ZM1258.06 850.478L1252.75 853.285L1252.79 853.353L1252.83 853.42L1258.06 850.478ZM1252.76 868.641C1246.45 868.641 1241.28 866.44 1236.9 861.876L1228.25 870.194C1234.89 877.105 1243.18 880.641 1252.76 880.641V868.641ZM1237.06 862.049C1232.87 857.338 1230.63 851.317 1230.63 843.527H1218.63C1218.63 853.832 1221.68 862.816 1228.09 870.021L1237.06 862.049ZM1230.63 843.527C1230.63 832.628 1235.71 824.04 1247.15 817.446C1258.98 810.627 1277.42 806.133 1303.12 804.499L1302.36 792.523C1275.99 794.199 1255.37 798.863 1241.16 807.049C1226.56 815.461 1218.63 827.725 1218.63 843.527H1230.63ZM1308.74 798.511C1308.74 783.775 1306.7 771.912 1301.3 764.519L1291.61 771.599C1294.59 775.68 1296.74 784.119 1296.74 798.511H1308.74ZM1301.3 764.519C1295.44 756.503 1285.31 753.453 1273.28 753.453V765.453C1283.76 765.453 1289.08 768.14 1291.61 771.599L1301.3 764.519ZM1273.28 753.453C1265.79 753.453 1258.23 754.663 1250.64 757.036L1254.22 768.49C1260.75 766.45 1267.1 765.453 1273.28 765.453V753.453ZM1250.59 757.053C1243.26 759.416 1236.49 762.62 1230.28 766.678L1236.85 776.722C1242.12 773.277 1247.92 770.524 1254.27 768.473L1250.59 757.053ZM1239.09 769.372L1236.45 763.083L1225.39 767.739L1228.03 774.028L1239.09 769.372ZM1236.03 768.549C1241.46 759.707 1248.78 752.561 1258.12 747.084L1252.04 736.736C1241.07 743.175 1232.29 751.696 1225.8 762.273L1236.03 768.549ZM1258.2 747.035C1267.53 741.357 1276.83 738.642 1286.19 738.642V726.642C1274.37 726.642 1262.93 730.106 1251.96 736.785L1258.2 747.035ZM1286.19 738.642C1299.46 738.642 1308.77 742.191 1315.05 748.47L1323.54 739.984C1314.37 730.816 1301.61 726.642 1286.19 726.642V738.642ZM1315.11 748.531C1321.32 754.566 1324.88 763.715 1324.88 776.996H1336.88C1336.88 761.59 1332.71 748.894 1323.47 739.923L1315.11 748.531ZM1324.88 776.996C1324.88 784.671 1324.34 793.381 1323.26 803.144L1335.19 804.47C1336.31 794.373 1336.88 785.209 1336.88 776.996H1324.88ZM1323.24 803.309C1322.36 813.928 1321.9 821.969 1321.9 827.308H1333.9C1333.9 822.496 1334.32 814.87 1335.2 804.305L1323.24 803.309ZM1321.9 827.308C1321.9 835.99 1322.8 843.344 1324.94 848.973L1336.15 844.701C1334.77 841.062 1333.9 835.397 1333.9 827.308H1321.9ZM1324.94 848.973C1327.08 854.586 1331.04 860.306 1336.39 866.125L1345.22 858.001C1340.43 852.786 1337.55 848.356 1336.15 844.701L1324.94 848.973ZM1336.88 857.525C1329.5 863.906 1321.63 867.545 1313.19 868.696L1314.81 880.586C1325.78 879.089 1335.78 874.343 1344.73 866.601L1336.88 857.525ZM1317.32 869.649C1312.74 866.595 1309.28 861.813 1307.17 854.726L1295.67 858.146C1298.42 867.388 1303.33 874.743 1310.67 879.633L1317.32 869.649ZM1298 851.508C1290.43 856.764 1282.58 860.947 1274.44 864.076L1278.75 875.276C1287.82 871.785 1296.52 867.141 1304.84 861.364L1298 851.508ZM1274.44 864.076C1266.35 867.189 1259.14 868.641 1252.76 868.641V880.641C1260.95 880.641 1269.63 878.783 1278.75 875.276L1274.44 864.076ZM1266.48 864.734C1272.77 864.231 1279.25 862.485 1285.91 859.634L1281.18 848.604C1275.48 851.049 1270.27 852.393 1265.52 852.772L1266.48 864.734ZM1285.91 859.634C1292.51 856.805 1298.47 853.357 1303.76 849.268L1296.43 839.772C1292.01 843.186 1286.94 846.137 1281.18 848.604L1285.91 859.634ZM1306.09 844.52V842.865H1294.09V844.52H1306.09ZM1306.09 842.865C1306.09 835.991 1306.42 829.35 1307.06 822.94L1295.12 821.746C1294.43 828.576 1294.09 835.616 1294.09 842.865H1306.09ZM1307.07 822.761L1308.07 808.528L1296.1 807.692L1295.1 821.925L1307.07 822.761ZM1301.73 802.12C1286.17 803.036 1273.37 806.38 1263.97 812.737L1270.68 822.681C1277.61 818.004 1287.98 814.95 1302.43 814.1L1301.73 802.12ZM1264.06 812.675C1254.34 818.978 1249.08 827.967 1249.08 839.224H1261.08C1261.08 832.387 1263.98 827.032 1270.59 822.743L1264.06 812.675ZM1249.08 839.224C1249.08 844.076 1250.37 848.784 1252.75 853.285L1263.36 847.671C1261.77 844.669 1261.08 841.874 1261.08 839.224H1249.08ZM1252.83 853.42C1255.3 857.812 1258.67 861.349 1262.91 863.898L1269.09 853.608C1266.72 852.185 1264.79 850.206 1263.29 847.536L1252.83 853.42ZM1385 868.352L1380.01 871.68L1380.06 871.747L1380.1 871.812L1385 868.352ZM1381.69 814.068L1387.69 814.244L1387.69 814.235L1387.69 814.226L1381.69 814.068ZM1376.07 696.563L1373.87 690.978L1368.85 692.952L1370.28 698.156L1376.07 696.563ZM1393.61 691.598L1394.56 697.523L1394.65 697.508L1394.74 697.49L1393.61 691.598ZM1412.48 689.943L1418.45 690.521L1419.09 683.943H1412.48V689.943ZM1409.5 835.252L1403.53 835.849L1403.54 835.961L1403.55 836.072L1409.5 835.252ZM1413.47 850.478L1408.04 853.033L1408.04 853.033L1413.47 850.478ZM1421.74 862.063L1426.23 866.049L1429.88 861.94L1426.11 857.943L1421.74 862.063ZM1410.16 871L1412.73 876.422L1412.73 876.422L1410.16 871ZM1398.91 867.979C1393.32 867.979 1390.99 866.426 1389.91 864.892L1380.1 871.812C1384.32 877.781 1391.25 879.979 1398.91 879.979V867.979ZM1390 865.024C1388.43 862.668 1387.03 857.125 1387.03 846.837H1375.03C1375.03 857.292 1376.29 866.092 1380.01 871.68L1390 865.024ZM1387.03 846.837C1387.03 840.091 1387.25 829.243 1387.69 814.244L1375.7 813.892C1375.25 828.904 1375.03 839.902 1375.03 846.837H1387.03ZM1387.69 814.226C1388.13 797.428 1388.36 783.579 1388.36 772.693H1376.36C1376.36 783.433 1376.14 797.167 1375.7 813.91L1387.69 814.226ZM1388.36 772.693C1388.36 737.127 1386.28 711.041 1381.85 694.97L1370.28 698.156C1374.24 712.537 1376.36 737.204 1376.36 772.693H1388.36ZM1378.26 702.148C1384.11 699.849 1389.54 698.326 1394.56 697.523L1392.66 685.673C1386.65 686.636 1380.38 688.422 1373.87 690.978L1378.26 702.148ZM1394.74 697.49C1400.05 696.469 1405.95 695.943 1412.48 695.943V683.943C1405.32 683.943 1398.64 684.52 1392.48 685.706L1394.74 697.49ZM1406.5 689.365C1403.83 717.018 1402.5 756.414 1402.5 807.448H1414.5C1414.5 756.534 1415.83 717.594 1418.45 690.521L1406.5 689.365ZM1402.5 807.448C1402.5 819.434 1402.84 828.934 1403.53 835.849L1415.47 834.655C1414.84 828.33 1414.5 819.294 1414.5 807.448H1402.5ZM1403.55 836.072C1404.48 842.776 1405.92 848.515 1408.04 853.033L1418.9 847.923C1417.49 844.938 1416.28 840.526 1415.44 834.432L1403.55 836.072ZM1408.04 853.033C1410.15 857.509 1413.33 861.887 1417.38 866.183L1426.11 857.943C1422.66 854.295 1420.32 850.95 1418.9 847.923L1408.04 853.033ZM1417.26 858.077C1414.19 861.533 1410.96 863.983 1407.59 865.578L1412.73 876.422C1417.75 874.045 1422.24 870.537 1426.23 866.049L1417.26 858.077ZM1407.59 865.578C1403.9 867.326 1401.05 867.979 1398.91 867.979V879.979C1403.39 879.979 1408.03 878.646 1412.73 876.422L1407.59 865.578ZM1458.19 866.035L1453.71 870.021L1453.79 870.109L1453.87 870.194L1458.19 866.035ZM1528.37 798.511L1528.75 804.499L1534.37 804.142V798.511H1528.37ZM1522.08 768.059L1526.92 764.519L1526.92 764.519L1522.08 768.059ZM1478.05 762.763L1476.26 757.036L1476.24 757.044L1476.21 757.053L1478.05 762.763ZM1459.19 771.7L1453.66 774.028L1456.45 780.659L1462.47 776.722L1459.19 771.7ZM1456.54 765.411L1451.42 762.273L1449.81 764.899L1451.01 767.739L1456.54 765.411ZM1480.7 741.91L1483.74 747.084L1483.78 747.06L1483.82 747.035L1480.7 741.91ZM1544.92 744.227L1540.67 748.47L1540.7 748.5L1540.73 748.531L1544.92 744.227ZM1554.85 803.807L1548.88 803.144L1548.87 803.226L1548.87 803.309L1554.85 803.807ZM1556.17 846.837L1550.56 848.973L1550.56 848.973L1556.17 846.837ZM1566.43 862.063L1570.36 866.601L1575.04 862.554L1570.85 858.001L1566.43 862.063ZM1539.62 874.641L1536.29 879.633L1538.18 880.893L1540.43 880.586L1539.62 874.641ZM1527.04 856.436L1532.79 854.726L1530.43 846.778L1523.62 851.508L1527.04 856.436ZM1502.22 869.676L1500.06 864.076L1500.06 864.076L1502.22 869.676ZM1491.62 858.753L1488.54 863.898L1490.19 864.887L1492.1 864.734L1491.62 858.753ZM1509.17 854.119L1511.53 859.634L1511.53 859.634L1509.17 854.119ZM1525.72 844.52L1529.39 849.268L1531.72 847.466V844.52H1525.72ZM1526.71 822.343L1532.68 822.94L1532.69 822.85L1532.7 822.761L1526.71 822.343ZM1527.7 808.11L1533.69 808.528L1534.16 801.72L1527.35 802.12L1527.7 808.11ZM1492.95 817.709L1496.21 822.743L1496.26 822.712L1496.31 822.681L1492.95 817.709ZM1483.68 850.478L1478.38 853.285L1478.41 853.353L1478.45 853.42L1483.68 850.478ZM1478.38 868.641C1472.08 868.641 1466.91 866.44 1462.52 861.876L1453.87 870.194C1460.51 877.105 1468.8 880.641 1478.38 880.641V868.641ZM1462.68 862.049C1458.49 857.338 1456.25 851.317 1456.25 843.527H1444.25C1444.25 853.832 1447.3 862.816 1453.71 870.021L1462.68 862.049ZM1456.25 843.527C1456.25 832.628 1461.33 824.04 1472.77 817.446C1484.61 810.627 1503.04 806.133 1528.75 804.499L1527.99 792.523C1501.61 794.199 1480.99 798.863 1466.78 807.049C1452.19 815.461 1444.25 827.725 1444.25 843.527H1456.25ZM1534.37 798.511C1534.37 783.775 1532.32 771.912 1526.92 764.519L1517.23 771.599C1520.21 775.68 1522.37 784.119 1522.37 798.511H1534.37ZM1526.92 764.519C1521.06 756.503 1510.94 753.453 1498.91 753.453V765.453C1509.38 765.453 1514.7 768.14 1517.23 771.599L1526.92 764.519ZM1498.91 753.453C1491.41 753.453 1483.86 754.663 1476.26 757.036L1479.84 768.49C1486.37 766.45 1492.72 765.453 1498.91 765.453V753.453ZM1476.21 757.053C1468.89 759.416 1462.11 762.62 1455.9 766.678L1462.47 776.722C1467.74 773.277 1473.54 770.524 1479.9 768.473L1476.21 757.053ZM1464.72 769.372L1462.07 763.083L1451.01 767.739L1453.66 774.028L1464.72 769.372ZM1461.65 768.549C1467.08 759.707 1474.41 752.561 1483.74 747.084L1477.66 736.736C1466.69 743.175 1457.91 751.696 1451.42 762.273L1461.65 768.549ZM1483.82 747.035C1493.15 741.357 1502.45 738.642 1511.82 738.642V726.642C1499.99 726.642 1488.55 730.106 1477.58 736.785L1483.82 747.035ZM1511.82 738.642C1525.09 738.642 1534.39 742.191 1540.67 748.47L1549.16 739.984C1539.99 730.816 1527.23 726.642 1511.82 726.642V738.642ZM1540.73 748.531C1546.95 754.566 1550.5 763.715 1550.5 776.996H1562.5C1562.5 761.59 1558.33 748.894 1549.1 739.923L1540.73 748.531ZM1550.5 776.996C1550.5 784.671 1549.97 793.381 1548.88 803.144L1560.81 804.47C1561.93 794.373 1562.5 785.209 1562.5 776.996H1550.5ZM1548.87 803.309C1547.98 813.928 1547.52 821.969 1547.52 827.308H1559.52C1559.52 822.496 1559.94 814.87 1560.82 804.305L1548.87 803.309ZM1547.52 827.308C1547.52 835.99 1548.42 843.344 1550.56 848.973L1561.78 844.701C1560.39 841.062 1559.52 835.397 1559.52 827.308H1547.52ZM1550.56 848.973C1552.7 854.586 1556.66 860.306 1562.02 866.125L1570.85 858.001C1566.05 852.786 1563.17 848.356 1561.78 844.701L1550.56 848.973ZM1562.51 857.525C1555.13 863.906 1547.25 867.545 1538.81 868.696L1540.43 880.586C1551.41 879.089 1561.4 874.343 1570.36 866.601L1562.51 857.525ZM1542.95 869.649C1538.37 866.595 1534.9 861.813 1532.79 854.726L1521.29 858.146C1524.04 867.388 1528.96 874.743 1536.29 879.633L1542.95 869.649ZM1523.62 851.508C1516.05 856.764 1508.2 860.947 1500.06 864.076L1504.37 875.276C1513.45 871.785 1522.14 867.141 1530.46 861.364L1523.62 851.508ZM1500.06 864.076C1491.97 867.189 1484.76 868.641 1478.38 868.641V880.641C1486.57 880.641 1495.25 878.783 1504.37 875.276L1500.06 864.076ZM1492.1 864.734C1498.39 864.231 1504.88 862.485 1511.53 859.634L1506.8 848.604C1501.1 851.049 1495.89 852.393 1491.15 852.772L1492.1 864.734ZM1511.53 859.634C1518.13 856.805 1524.09 853.357 1529.39 849.268L1522.05 839.772C1517.63 843.186 1512.56 846.137 1506.8 848.604L1511.53 859.634ZM1531.72 844.52V842.865H1519.72V844.52H1531.72ZM1531.72 842.865C1531.72 835.991 1532.04 829.35 1532.68 822.94L1520.74 821.746C1520.06 828.576 1519.72 835.616 1519.72 842.865H1531.72ZM1532.7 822.761L1533.69 808.528L1521.72 807.692L1520.73 821.925L1532.7 822.761ZM1527.35 802.12C1511.79 803.036 1499 806.38 1489.59 812.737L1496.31 822.681C1503.23 818.004 1513.61 814.95 1528.06 814.1L1527.35 802.12ZM1489.68 812.675C1479.97 818.978 1474.7 827.967 1474.7 839.224H1486.7C1486.7 832.387 1489.6 827.032 1496.21 822.743L1489.68 812.675ZM1474.7 839.224C1474.7 844.076 1475.99 848.784 1478.38 853.285L1488.98 847.671C1487.39 844.669 1486.7 841.874 1486.7 839.224H1474.7ZM1478.45 853.42C1480.92 857.812 1484.29 861.349 1488.54 863.898L1494.71 853.608C1492.34 852.185 1490.41 850.206 1488.91 847.536L1478.45 853.42Z" fill="#A1A3D4"/>
<path d="M923.044 864.986C917.748 864.986 911.569 864.324 904.508 863C905.611 852.187 906.494 837.182 907.156 817.984C907.818 798.565 908.149 780.25 908.149 763.038C908.149 722.656 906.273 697.831 902.522 688.563C908.921 687.239 914.879 686.577 920.396 686.577C926.133 686.577 932.643 687.239 939.925 688.563C937.939 712.174 936.725 740.64 936.284 773.961C961.219 747.26 977.88 728.062 986.265 716.367C994.871 704.451 999.174 695.735 999.174 690.218C1012.19 687.791 1025.99 686.577 1040.55 686.577C1024.22 702.024 1001.38 726.187 972.032 759.066C1006.01 813.35 1031.06 846.34 1047.17 858.035C1041.21 860.683 1035.03 862.448 1028.63 863.331C1022.45 864.434 1015.28 864.986 1007.12 864.986C996.747 847.553 978.1 819.97 951.179 782.236L944.559 789.849C941.028 794.262 938.27 797.462 936.284 799.448C936.725 833.21 938.491 854.394 941.58 863C935.622 864.324 929.443 864.986 923.044 864.986ZM1112.28 866.641C1094.18 866.641 1079.62 860.462 1068.59 848.105C1057.55 835.748 1052.04 819.529 1052.04 799.448C1052.04 784.884 1055.01 771.975 1060.97 760.721C1067.15 749.246 1075.65 740.42 1086.46 734.241C1097.49 727.842 1109.96 724.642 1123.86 724.642C1136.22 724.642 1147.14 727.511 1156.63 733.248C1166.12 738.765 1173.4 746.598 1178.48 756.749C1183.77 766.9 1186.42 778.595 1186.42 791.835C1186.42 806.399 1183.22 819.418 1176.82 830.893C1170.64 842.147 1161.93 850.974 1150.67 857.373C1139.42 863.552 1126.62 866.641 1112.28 866.641ZM1118.24 852.739C1130.81 852.739 1140.63 848.546 1147.69 840.161C1154.76 831.555 1158.29 819.529 1158.29 804.082C1158.29 790.401 1155.09 778.595 1148.69 768.665C1142.29 758.735 1133.46 752.005 1122.21 748.474C1109.41 748.474 1099.15 752.887 1091.42 761.714C1083.92 770.32 1080.17 782.015 1080.17 796.8C1080.17 814.012 1083.7 827.693 1090.76 837.844C1098.04 847.774 1107.2 852.739 1118.24 852.739ZM1242.76 866.641C1234.82 866.641 1228.09 863.772 1222.57 858.035C1217.27 852.077 1214.63 844.574 1214.63 835.527C1214.63 808.826 1240.67 793.821 1292.74 790.511C1292.74 775.947 1290.65 765.796 1286.45 760.059C1282.26 754.322 1274.54 751.453 1263.28 751.453C1256.44 751.453 1249.49 752.556 1242.43 754.763C1235.59 756.97 1229.3 759.949 1223.56 763.7L1220.92 757.411C1226.87 747.702 1234.93 739.868 1245.08 733.91C1255.23 727.731 1265.6 724.642 1276.19 724.642C1290.54 724.642 1301.57 728.504 1309.29 736.227C1317.02 743.73 1320.88 754.653 1320.88 768.996C1320.88 776.94 1320.33 785.877 1319.22 795.807C1318.34 806.399 1317.9 814.233 1317.9 819.308C1317.9 827.693 1318.78 834.203 1320.55 838.837C1322.31 843.471 1325.73 848.546 1330.81 854.063C1322.64 861.124 1313.71 865.317 1304 866.641C1298.04 862.669 1293.85 856.601 1291.42 848.436C1283.47 853.953 1275.2 858.366 1266.59 861.676C1257.99 864.986 1250.04 866.641 1242.76 866.641ZM1256 850.753C1261.52 850.312 1267.37 848.767 1273.54 846.119C1279.72 843.471 1285.24 840.271 1290.09 836.52V834.865C1290.09 827.804 1290.43 820.963 1291.09 814.343L1292.08 800.11C1277.08 800.993 1265.49 804.192 1257.33 809.709C1249.16 815.005 1245.08 822.177 1245.08 831.224C1245.08 834.975 1246.07 838.727 1248.06 842.478C1250.04 846.009 1252.69 848.767 1256 850.753ZM1388.91 865.979C1382.29 865.979 1377.65 864.103 1375 860.352C1372.36 856.38 1371.03 849.208 1371.03 838.837C1371.03 831.996 1371.25 821.073 1371.69 806.068C1372.14 789.297 1372.36 775.506 1372.36 764.693C1372.36 729.166 1370.26 703.789 1366.07 688.563C1372.25 686.136 1378.09 684.481 1383.61 683.598C1389.35 682.495 1395.64 681.943 1402.48 681.943C1399.83 709.306 1398.5 748.474 1398.5 799.448C1398.5 811.364 1398.84 820.632 1399.5 827.252C1400.38 833.651 1401.7 838.727 1403.47 842.478C1405.24 846.229 1407.99 850.091 1411.74 854.063C1408.21 858.035 1404.35 861.014 1400.16 863C1395.97 864.986 1392.22 865.979 1388.91 865.979ZM1468.38 866.641C1460.44 866.641 1453.71 863.772 1448.19 858.035C1442.9 852.077 1440.25 844.574 1440.25 835.527C1440.25 808.826 1466.29 793.821 1518.37 790.511C1518.37 775.947 1516.27 765.796 1512.08 760.059C1507.88 754.322 1500.16 751.453 1488.91 751.453C1482.07 751.453 1475.11 752.556 1468.05 754.763C1461.21 756.97 1454.92 759.949 1449.19 763.7L1446.54 757.411C1452.5 747.702 1460.55 739.868 1470.7 733.91C1480.85 727.731 1491.22 724.642 1501.82 724.642C1516.16 724.642 1527.19 728.504 1534.92 736.227C1542.64 743.73 1546.5 754.653 1546.5 768.996C1546.5 776.94 1545.95 785.877 1544.85 795.807C1543.96 806.399 1543.52 814.233 1543.52 819.308C1543.52 827.693 1544.4 834.203 1546.17 838.837C1547.93 843.471 1551.36 848.546 1556.43 854.063C1548.27 861.124 1539.33 865.317 1529.62 866.641C1523.66 862.669 1519.47 856.601 1517.04 848.436C1509.1 853.953 1500.82 858.366 1492.22 861.676C1483.61 864.986 1475.67 866.641 1468.38 866.641ZM1481.62 850.753C1487.14 850.312 1492.99 848.767 1499.17 846.119C1505.35 843.471 1510.86 840.271 1515.72 836.52V834.865C1515.72 827.804 1516.05 820.963 1516.71 814.343L1517.7 800.11C1502.7 800.993 1491.11 804.192 1482.95 809.709C1474.78 815.005 1470.7 822.177 1470.7 831.224C1470.7 834.975 1471.69 838.727 1473.68 842.478C1475.67 846.009 1478.31 848.767 1481.62 850.753Z" fill="#4A608C"/>
<defs>
<clipPath id="clip0">
<rect width="884.269" height="904.206" fill="white" transform="matrix(0.856335 0.516421 -0.519488 0.854478 469.724 0)"/>
</clipPath>
</defs>
</svg>
