<?xml version="1.0" standalone="no"?>
<!DOCTYPE svg PUBLIC "-//W3C//DTD SVG 20010904//EN"
 "http://www.w3.org/TR/2001/REC-SVG-20010904/DTD/svg10.dtd">
<svg version="1.0" xmlns="http://www.w3.org/2000/svg"
 width="100.000000pt" height="100.000000pt" viewBox="0 0 100.000000 100.000000"
 preserveAspectRatio="xMidYMid meet">

<g transform="translate(0.000000,100.000000) scale(0.100000,-0.100000)"
fill="#000000" stroke="none">
<path d="M55 640 c-3 -5 -3 -63 1 -130 5 -91 10 -120 21 -120 9 0 13 14 13 45
0 25 3 45 8 45 4 0 16 -17 27 -37 21 -39 49 -53 68 -34 9 9 6 13 -11 18 -29 7
-75 92 -62 114 5 8 17 14 27 14 24 0 23 29 0 33 -10 2 -27 -4 -38 -14 -18 -17
-19 -16 -19 23 0 39 -21 65 -35 43z"/>
<path d="M626 599 c-3 -17 -6 -62 -6 -99 0 -51 5 -73 19 -91 16 -21 22 -22 45
-11 33 15 35 41 2 35 -30 -6 -34 10 -29 115 3 66 1 82 -10 82 -8 0 -17 -14
-21 -31z"/>
<path d="M280 583 c-26 -9 -40 -35 -40 -74 0 -90 25 -128 76 -115 17 5 26 17
35 48 11 44 7 114 -8 128 -13 12 -46 19 -63 13z m46 -58 c10 -42 -4 -95 -26
-95 -14 0 -21 10 -26 35 -9 49 2 85 26 85 13 0 22 -9 26 -25z"/>
<path d="M401 571 c-21 -13 -5 -29 24 -23 27 5 55 -12 55 -34 0 -8 -10 -14
-24 -14 -27 0 -56 -24 -56 -45 0 -19 32 -52 57 -60 15 -4 28 1 41 15 17 18 20
19 25 6 7 -18 57 -22 57 -5 0 6 -9 13 -20 16 -26 7 -50 52 -50 92 0 16 -7 37
-16 45 -17 17 -70 21 -93 7z m73 -97 c22 -8 20 -31 -4 -44 -15 -8 -21 -6 -29
8 -7 13 -7 22 1 30 14 14 12 14 32 6z"/>
<path d="M771 571 c-21 -13 -5 -29 24 -23 27 5 55 -12 55 -34 0 -8 -10 -14
-24 -14 -27 0 -56 -24 -56 -45 0 -19 32 -52 57 -60 15 -4 28 1 41 15 17 18 20
19 25 6 7 -18 57 -22 57 -5 0 6 -9 13 -20 16 -26 7 -50 52 -50 92 0 16 -7 37
-16 45 -17 17 -70 21 -93 7z m73 -97 c22 -8 20 -31 -4 -44 -15 -8 -21 -6 -29
8 -7 13 -7 22 1 30 14 14 12 14 32 6z"/>
</g>
</svg>
