<svg width="1062" height="541" viewBox="0 0 1062 541" fill="none" xmlns="http://www.w3.org/2000/svg">
<path d="M303.514 477.327C303.536 477.23 303.593 477.16 303.616 477.063C304.303 475.6 304.473 474.007 304.899 472.447C305.138 471.602 305.433 470.687 305.575 469.821C305.904 467.894 306.046 465.989 306.092 464.064C306.254 450.917 296.941 440.355 287.548 432.73C274.496 421.963 259.413 413.472 245.085 404.266C233.876 397.13 222.594 389.877 209.336 386.909C195.727 383.886 180.551 387.212 167.354 391.51C162.367 391.099 157.256 391.049 152.093 391.476C151.935 391.463 151.849 391.567 151.764 391.671C151.532 391.54 151.328 391.374 151.095 391.243C150.726 391.002 150.511 390.711 150.324 390.386C161.54 389.619 172.784 388.47 183.62 384.566C205.594 376.597 223.797 361.123 240.877 344.736C240.911 344.764 240.911 344.764 240.945 344.791C248.49 346.644 255.797 345.532 262.753 342.981C269.777 340.485 276.483 336.576 282.781 332.683C287.116 330.082 291.4 327.613 295.831 325.379C298.061 324.245 300.268 323.208 302.577 322.253C304.892 321.361 307.275 320.525 309.697 319.778C314.457 318.388 319.251 317.373 324.096 316.572C328.981 315.861 333.883 315.337 338.711 314.695C355.141 312.675 370.669 310.097 385.398 301.848C389.29 299.58 393.114 297.258 396.899 294.846C400.712 292.399 404.462 289.959 408.275 287.512C412.116 285.03 416.026 282.95 420.105 281.008C424.037 279.177 428.116 277.581 432.422 276.4C432.485 276.393 432.547 276.386 432.576 276.352C432.7 276.337 432.819 276.261 432.944 276.247C434.822 275.751 431.793 272.599 431.499 271.783C430.535 268.807 428.731 265.957 426.752 263.6C423.882 260.116 420.286 257.312 416.423 255.042C416.389 255.015 416.355 254.987 416.321 254.959C412.362 252.669 407.931 250.747 403.387 249.31C398.883 247.963 394.22 246.949 389.744 246.26C378.154 244.299 366.332 243.939 354.463 243.08C348.308 242.645 342.295 242.382 336.111 242.327C333.053 242.327 329.939 242.397 326.841 242.653C323.743 242.91 320.731 243.409 317.639 244.074C311.767 245.369 306.116 247.71 300.828 250.576C295.58 253.532 290.564 256.966 285.792 260.308C280.986 263.624 276.356 267.139 271.862 270.765C267.436 274.447 263.118 278.273 259.515 282.68C253.176 290.293 249.583 299.327 246.909 308.414C243.492 320.072 240.062 332.298 238.494 344.188C221.778 360.061 204.256 374.703 182.764 383.12C172.047 387.294 160.944 388.616 149.779 389.251C149.541 386.634 151.653 382.805 152.34 380.65L154.361 374.439C168.237 375.542 180.271 370.936 191.692 362.715C197.196 358.754 203.182 354.203 208.647 349.113C214.049 344.03 218.957 338.374 222.215 332.243C229.581 318.248 227.991 302.12 227.761 287.098C227.487 268.806 226.55 250.494 225.583 232.218C225.572 231.747 225.152 231.291 224.613 231.257C220.16 231.164 215.837 231.465 211.605 232.07C207.338 232.648 203.134 233.566 199.016 234.725C190.812 237.072 183.186 240.581 176.083 244.975C169.138 249.382 162.879 254.751 157.414 260.88C152.137 266.988 147.682 273.821 144.294 281.288C140.338 290.143 137.851 299.555 135.194 308.828C132.718 317.326 130.81 325.822 130.763 334.674C130.663 350.238 139.011 365.789 152.012 373.918L146.982 389.348C144.032 389.493 141.111 389.604 138.16 389.75C131.625 389.987 124.885 390.404 118.344 391.618C111.797 392.769 105.488 394.807 99.8593 398.435C99.5302 398.63 99.8307 399.163 100.194 398.996C114.957 392.159 130.796 391.623 146.721 390.637C146.749 390.949 146.902 391.246 147.175 391.467C156.681 398.953 168.702 401.841 179.582 406.747C185.958 409.613 191.398 413.625 195.447 419.336C200.534 426.41 202.762 435.666 206.011 443.672C216.189 468.964 233.776 493.574 261.993 498.467C269.487 499.758 277.316 498.839 284.357 495.838C291.154 492.926 297.101 487.939 300.971 481.613C302.072 480.198 302.855 478.755 303.514 477.327ZM410.982 283.647C404.196 287.722 397.677 292.302 391.084 296.418C386.942 299.06 382.834 301.383 378.618 303.214C374.471 305.101 370.181 306.469 365.858 307.809C361.563 309.114 357.178 310.115 352.651 310.943C350.387 311.357 348.083 311.681 345.78 312.005C343.482 312.391 341.145 312.688 338.779 313.019C330.803 314.049 322.786 314.989 315.042 316.842C311.156 317.787 307.309 318.821 303.525 320.194C299.741 321.567 296.081 323.273 292.478 325.256C276.296 334.173 260.761 347.079 241.461 344.229C247.113 338.772 252.634 333.266 258.166 327.885C263.966 322.316 269.855 316.706 276.012 311.254C282.242 305.92 288.643 300.724 295.434 296.019C302.3 291.432 309.375 287.072 316.916 283.667C320.7 281.948 324.564 280.408 328.541 279.076C332.484 277.716 336.541 276.563 340.722 275.743C344.625 274.986 348.511 274.388 352.415 273.977C356.318 273.566 360.204 273.315 364.147 273.34C371.993 273.301 379.742 273.587 387.514 274.123C395.292 274.721 402.996 275.202 410.666 275.309C416.044 275.518 420.702 276.469 425.671 276.693C420.576 278.562 415.72 280.969 410.982 283.647ZM258.981 286.865C260.428 284.749 262.074 282.736 263.855 280.834C265.637 278.932 267.555 277.141 269.541 275.405C273.513 271.932 277.791 268.708 281.984 265.588C286.688 262.19 291.426 258.82 296.379 255.74C298.859 254.231 301.366 252.687 303.959 251.386C306.615 250.078 309.281 248.894 312.084 247.821C317.514 245.82 323.028 244.754 328.673 244.429C334.318 244.104 340.014 244.34 345.488 244.57C351.116 244.751 356.766 245.181 362.383 245.583C367.999 245.985 373.581 246.36 379.147 246.894C384.683 247.463 390.209 248.254 395.451 249.391C400.726 250.556 405.747 252.034 410.364 254.281C419.264 258.561 426.462 264.923 430.624 274.652C423.72 274.994 417.287 273.236 410.264 272.961C402.56 272.827 394.861 272.409 387.061 271.908C379.294 271.434 371.528 271.307 363.682 271.346C359.745 271.383 355.825 271.607 351.95 271.983C348.013 272.367 344.121 272.902 340.183 273.632C338.169 274.017 336.155 274.403 334.215 274.906C332.246 275.444 330.312 276.01 328.417 276.665C324.593 277.949 320.814 279.385 317.149 281.028C313.45 282.643 309.898 284.494 306.425 286.525C302.919 288.528 299.52 290.676 296.19 292.88C289.534 297.349 283.281 302.434 277.221 307.56C271.195 312.713 265.515 318.205 259.943 323.496C253.191 330.023 246.546 336.695 239.754 343.132C246.106 324.561 247.16 303.883 258.981 286.865ZM224.168 245.097C224.682 253.539 225.01 262.003 225.365 270.431C226.014 286.603 227.832 303.839 224.975 319.935C223.555 327.904 219.468 334.632 214.333 340.566C209.232 346.528 202.956 351.71 197.066 356.628C184.35 367.262 171.329 373.838 154.934 373.461L167.27 335.385C167.417 334.928 167.315 334.498 167.037 334.215C169.052 331.059 170.619 327.481 172.31 324.236C174.972 319.18 177.667 314.152 180.301 309.131C183.116 304.027 185.925 298.86 188.706 293.728C190.08 291.148 191.453 288.568 192.758 285.933C194.098 283.325 195.403 280.69 196.675 278.028C200.789 269.187 202.04 259.695 205.048 250.476C207.699 242.525 214.384 236.289 222.928 233.526C224.431 234.804 224.083 243.816 224.168 245.097ZM133.157 336.386C132.671 328.602 133.955 320.523 136.089 312.442C138.258 304.388 141.165 296.472 143.719 289.193C146.166 282.115 149.69 275.451 153.839 269.408C157.924 263.372 163.037 257.882 168.751 253.11C171.622 250.706 174.578 248.545 177.801 246.543C181.024 244.541 184.422 242.739 187.9 241.117C191.412 239.522 194.976 238.142 198.811 236.984C202.646 235.825 206.566 234.908 210.543 234.269C213.091 233.854 215.621 233.599 218.129 233.44C217.068 233.907 216.018 234.498 215.031 235.082C212.075 236.897 209.317 239.162 207.127 241.425C204.443 244.153 203.466 248.325 202.416 251.687C200.661 257.71 199.486 263.857 197.635 269.859C195.858 275.633 193.117 281.201 190.268 286.625C187.419 292.048 184.309 297.375 181.511 302.666C178.435 308.367 175.58 314.074 172.629 319.76C170.324 324.24 167.26 329.027 165.46 333.859C165.25 333.977 165.08 334.185 165.012 334.476L152.79 372.067C141.445 363.435 134.181 351.13 133.157 336.386ZM215.775 390.461C231.182 395.578 244.982 406.261 258.324 415.012C272.181 423.894 287.9 432.439 297.944 445.845C302.929 452.49 304.68 459.973 303.975 467.137C303.685 470.192 302.919 473.207 301.727 476.05C294.896 478.933 286.172 471.736 280.443 468.01C273.948 463.834 267.584 459.361 261.441 454.548C248.781 444.617 239.797 431.09 228.198 420.001C211.88 404.503 192.066 394.25 170.117 391.732C185.582 388.814 200.305 385.351 215.775 390.461ZM286.65 492.965C283.733 494.523 280.551 495.576 277.237 496.235C270.582 497.588 263.565 497.029 256.746 495.189C242.076 491.248 230.5 480.754 221.828 468.577C211.892 454.622 207.754 438.217 200.501 422.919C195.16 411.656 185.091 405.965 173.91 401.565C168.81 399.562 163.597 397.697 158.6 395.43C156.592 394.493 154.634 393.424 152.791 392.216C168.211 391.57 183.34 394.326 197.335 400.548C213.105 407.575 226.093 419.389 237.346 432.218C242.513 438.086 247.334 444.309 253.051 449.643C259.223 455.46 266.069 460.383 272.966 465.173C276.931 467.872 282.518 472.465 288.248 475.499C291.129 477.03 294.062 478.083 296.836 478.43C298.175 478.593 299.463 478.541 300.734 478.303C299.241 481.306 297.26 484.143 294.82 486.781C292.375 489.356 289.629 491.399 286.65 492.965Z" fill="#A1A3D4" fill-opacity="0.62"/>
<path d="M360.626 395.295C360.887 392.274 360.287 389.477 359.799 386.542C359.329 383.793 358.609 381.073 357.589 378.512C351.749 363.496 335.564 357.113 320.877 353.677C300.461 348.939 278.881 347.009 258.186 343.719C242.035 341.173 225.748 338.171 209.341 340.786C200.666 342.116 192.36 345.418 184.462 349.745C176.859 353.849 169.687 358.881 163.151 363.966C157.244 365.58 151.378 367.63 145.591 370.207C145.409 370.29 145.324 370.394 145.307 370.554C144.984 370.465 144.694 370.403 144.371 370.314C143.855 370.183 143.458 369.976 143.112 369.638C147.753 367.632 152.388 365.564 156.973 363.281C164.655 359.357 172.065 354.865 178.868 349.246C200.691 330.936 214.488 305.477 225.619 279.47C225.653 279.497 225.681 279.463 225.715 279.49C235.002 277.966 242.583 273.265 249.051 267.086C255.486 260.878 260.906 253.212 265.814 245.824C272.431 235.723 279.094 226.122 287.849 217.699C296.378 209.555 306.199 202.806 315.72 195.871C331.863 184.093 346.355 171.494 355.731 153.588C365.725 134.51 370.382 113.235 384.052 96.1018C384.534 95.5119 384.262 94.5982 383.519 94.3991C382.254 94.0073 380.66 93.8102 379.554 93.0855C377.444 91.719 375.01 90.6096 372.599 89.7494C369.179 88.5315 365.582 87.8057 361.929 87.4957C354.463 86.8622 346.872 87.9744 339.576 89.9032C333.295 91.5595 327.196 93.8249 321.29 96.4777C309.177 101.943 297.438 108.406 285.625 114.404C273.449 120.569 260.887 126.306 250.509 135.259C240.545 143.912 234.251 156.18 228.559 167.781C222.832 179.355 217.054 191.06 214.039 203.68C211.41 214.651 212.474 226.022 214.23 237.031C216.491 251.162 218.791 266.076 222.822 279.913C211.873 305.144 198.468 329.362 177.456 347.926C170.358 354.114 162.567 358.932 154.363 363.01C150.38 364.973 146.289 366.79 142.159 368.518C140.764 365.654 141.616 360.457 141.531 357.79C141.453 355.186 141.374 352.582 141.261 349.95C157.532 345.493 169.408 335.332 178.721 321.242C187.733 307.659 197.727 290.659 199.001 274.144C200.526 255.522 190.669 238.631 182.714 222.532C173.056 202.973 162.525 183.86 151.484 165.026C151.189 164.555 150.531 164.252 149.981 164.44C114.033 178.211 90.9471 211.776 89.7022 249.791C89.348 261.165 90.6617 272.507 91.7258 283.878C92.7051 294.314 94.1154 304.638 97.7611 314.582C104.174 332.084 120.101 346.398 138.396 350.338C138.638 356.827 138.847 363.289 138.999 369.821C135.685 371.172 132.372 372.524 129.053 373.813C121.654 376.698 114.029 379.86 107.016 383.866C99.9636 387.782 93.4952 392.577 88.4334 398.975C88.1497 399.322 88.7282 399.792 89.0176 399.507C95.3672 393.404 102.443 388.698 109.926 384.67C117.342 380.587 125.234 377.236 133.16 373.914C135.163 373.057 137.137 372.235 139.14 371.379C139.299 371.738 139.605 371.987 139.997 372.132C153.969 376.719 169.048 375.104 183.6 376.005C192.16 376.546 200.085 378.765 207.255 383.43C216.104 389.227 222.575 398.694 229.704 406.387C252.108 430.577 282.716 451.035 318.873 442.34C333.958 438.71 347.332 428.033 354.597 414.301C356.345 410.986 357.702 407.527 358.667 403.923C359.365 401.199 360.177 398.337 360.45 395.441C360.66 395.322 360.626 395.295 360.626 395.295ZM357.775 144.51C348.467 165.934 333.293 180.405 314.705 194.066C306.903 199.798 299.096 205.469 291.844 211.706C284.593 217.942 277.897 224.746 272.29 232.78C259.805 250.818 248.829 272.62 226.01 278.575C229.671 269.943 233.049 261.312 236.347 252.847C250.123 217.442 264.353 180.788 293.485 154.787C318.65 132.321 351.936 123.606 377.402 101.672C368.799 114.894 363.973 130.144 357.775 144.51ZM215.638 208.442C217.291 196.795 222.621 185.707 227.689 175.215C233.251 163.566 238.915 151.999 247.274 141.985C255.383 132.345 266.838 126.576 277.897 120.947C289.165 115.199 300.467 109.479 311.735 103.731C333.789 92.4795 357.834 83.7096 380.665 96.2967C353.991 120.193 318.452 129.794 291.528 153.026C263.287 177.383 249.069 213.468 235.99 247.189C232.006 257.463 227.97 267.869 223.577 278.159C221.522 254.842 212.325 232.02 215.638 208.442ZM156.944 179.33C161.929 188.052 166.766 196.886 171.484 205.796C180.501 222.814 191.361 240.693 195.975 259.564C198.242 268.909 196.964 278.089 194.018 286.955C191.003 295.766 186.349 304.227 181.94 312.251C177.002 321.059 171.458 328.74 164.683 335.017C158.129 340.955 150.549 345.655 141.335 348.683C141.092 342.193 140.816 335.676 140.511 329.194C140.059 319.705 139.618 310.342 139.042 300.868C139.019 300.272 138.668 299.871 138.271 299.665C139.168 295.313 139.282 290.672 139.714 286.404C140.431 279.711 141.124 273.116 141.778 266.43C143.103 252.9 144.802 239.327 144.828 225.724C144.875 214.447 141.542 203.775 139.905 192.689C138.528 183.085 142.269 173.941 149.441 167.524C151.619 168.253 156.156 177.939 156.944 179.33ZM101.04 315.627C93.3509 298.648 93.2648 276.872 92.446 258.83C90.8765 223.495 106.865 191.617 137.106 173.33C139.495 171.862 141.969 170.638 144.511 169.468C141.225 173.209 138.847 177.918 137.388 182.333C136.077 186.291 137.21 191.137 137.89 195.153C139.08 202.353 140.917 209.386 141.891 216.643C142.837 223.588 142.727 230.716 142.238 237.823C141.715 244.903 140.811 251.963 140.214 258.926C139.571 266.429 138.866 273.938 138.189 281.414C137.655 287.33 136.354 293.837 136.472 299.994C136.302 300.203 136.171 300.501 136.205 300.875C136.844 312.419 137.42 323.971 137.974 335.62C138.16 339.755 138.318 343.924 138.47 348.031C121.73 342.813 108.372 331.797 101.04 315.627ZM218.202 341.86C228.17 341.234 238.29 342.29 248.433 343.943C258.543 345.567 268.567 347.643 278.352 349.178C298.56 352.303 321.025 353.22 339.308 362.576C352.201 369.174 358.138 381.441 357.585 394.789C350.475 402.238 336.73 398.759 328.181 397.65C318.514 396.384 308.944 394.793 299.589 392.453C280.233 387.595 263.818 376.578 245.461 369.529C219.69 359.636 192.664 356.749 166.413 363.093C182.918 353.226 198.266 343.112 218.202 341.86ZM311.089 441.333C291.794 444.087 273.647 437.612 258.434 427.687C240.975 416.286 229.331 399.503 214.494 385.38C203.552 374.94 189.461 372.854 174.779 372.597C168.056 372.509 161.316 372.58 154.645 372.014C151.944 371.785 149.289 371.362 146.652 370.779C155.258 367.317 164.171 364.795 173.198 363.174C182.445 361.559 191.914 360.99 201.411 361.425C222.56 362.428 242.749 369.868 261.451 378.988C270.028 383.179 278.429 387.862 287.517 391.082C297.387 394.591 307.582 396.805 317.98 398.491C328.282 400.157 347.122 405.578 357.397 397.928C356.88 402.299 355.705 406.714 353.832 411.082C350.057 419.853 343.906 426.752 336.422 431.819C328.842 436.866 320.082 440.031 311.089 441.333Z" fill="#4A608C"/>
<path d="M457.4 375L451.431 374.391L450.871 379.88L456.294 380.897L457.4 375ZM459.8 334.2L465.796 334.407L465.797 334.404L459.8 334.2ZM455.6 216.9L454.384 211.024L447.339 212.482L450.038 219.151L455.6 216.9ZM489.5 216.9L495.479 217.403L495.936 211.972L490.573 210.997L489.5 216.9ZM486.2 294.3L480.201 294.221L479.995 309.735L490.585 298.395L486.2 294.3ZM531.5 242.1L526.636 238.587L526.63 238.595L526.624 238.604L531.5 242.1ZM543.2 218.4L542.1 212.502L537.2 213.415L537.2 218.4L543.2 218.4ZM580.7 215.1L584.823 219.459L595.774 209.1L580.7 209.1L580.7 215.1ZM518.6 280.8L514.124 276.804L511.124 280.165L513.514 283.984L518.6 280.8ZM586.7 370.5L589.137 375.983L598.644 371.757L590.225 365.645L586.7 370.5ZM569.9 375.3L569.08 369.356L568.962 369.373L568.845 369.393L569.9 375.3ZM550.4 376.8L545.244 379.868L546.988 382.8L550.4 382.8L550.4 376.8ZM499.7 301.8L504.584 298.315L500.165 292.121L495.172 297.863L499.7 301.8ZM493.7 308.7L489.172 304.763L489.092 304.856L489.015 304.952L493.7 308.7ZM486.2 317.4L481.957 313.157L480.167 314.947L480.201 317.478L486.2 317.4ZM491 375L492.302 380.857L498.947 379.38L496.647 372.973L491 375ZM474.2 370.8C469.875 370.8 464.661 370.257 458.506 369.103L456.294 380.897C462.939 382.143 468.925 382.8 474.2 382.8L474.2 370.8ZM463.369 375.609C464.389 365.611 465.195 351.856 465.796 334.407L453.804 333.993C453.205 351.344 452.411 364.789 451.431 374.391L463.369 375.609ZM465.797 334.404C466.399 316.745 466.7 300.076 466.7 284.4L454.7 284.4C454.7 299.924 454.401 316.455 453.803 333.996L465.797 334.404ZM466.7 284.4C466.7 266.029 466.274 251.086 465.408 239.623C464.56 228.405 463.253 219.815 461.162 214.649L450.038 219.151C451.347 222.385 452.59 229.245 453.442 240.527C454.276 251.564 454.7 266.171 454.7 284.4L466.7 284.4ZM456.816 222.776C462.287 221.644 467.275 221.1 471.8 221.1L471.8 209.1C466.325 209.1 460.513 209.756 454.384 211.024L456.816 222.776ZM471.8 221.1C476.554 221.1 482.085 221.65 488.427 222.803L490.573 210.997C483.715 209.75 477.446 209.1 471.8 209.1L471.8 221.1ZM483.521 216.397C481.706 237.982 480.602 263.931 480.201 294.221L492.199 294.379C492.598 264.269 493.694 238.618 495.479 217.403L483.521 216.397ZM490.585 298.395C513.174 274.207 528.523 256.55 536.376 245.596L526.624 238.604C519.277 248.85 504.426 265.993 481.815 290.205L490.585 298.395ZM536.364 245.613C540.371 240.064 543.503 235.091 545.655 230.731C547.747 226.494 549.2 222.276 549.2 218.4L537.2 218.4C537.2 219.524 536.703 221.756 534.895 225.419C533.147 228.959 530.429 233.336 526.636 238.587L536.364 245.613ZM544.3 224.298C555.703 222.172 567.833 221.1 580.7 221.1L580.7 209.1C567.167 209.1 554.297 210.228 542.1 212.502L544.3 224.298ZM576.577 210.741C561.587 224.92 540.751 246.974 514.124 276.804L523.076 284.795C549.649 255.026 570.213 233.28 584.823 219.459L576.577 210.741ZM513.514 283.984C528.964 308.664 542.446 328.605 553.946 343.753C565.354 358.779 575.12 369.507 583.175 375.355L590.225 365.645C583.68 360.893 574.796 351.371 563.504 336.497C552.304 321.745 539.036 302.136 523.686 277.616L513.514 283.984ZM584.263 365.017C579.373 367.191 574.317 368.634 569.08 369.356L570.72 381.244C577.083 380.366 583.227 378.609 589.137 375.983L584.263 365.017ZM568.845 369.393C563.679 370.316 557.545 370.8 550.4 370.8L550.4 382.8C558.055 382.8 564.921 382.284 570.955 381.207L568.845 369.393ZM555.556 373.732C546.018 357.7 528.99 332.524 504.584 298.315L494.816 305.285C519.21 339.476 535.982 364.3 545.244 379.868L555.556 373.732ZM495.172 297.863L489.172 304.763L498.228 312.637L504.228 305.737L495.172 297.863ZM489.015 304.952C485.844 308.915 483.513 311.602 481.957 313.157L490.443 321.643C492.487 319.598 495.156 316.485 498.385 312.448L489.015 304.952ZM480.201 317.478C480.401 332.848 480.904 345.452 481.721 355.248C482.522 364.866 483.662 372.316 485.353 377.027L496.647 372.973C495.538 369.884 494.478 363.834 493.679 354.252C492.896 344.848 492.399 332.552 492.199 317.322L480.201 317.478ZM489.698 369.143C484.746 370.243 479.583 370.8 474.2 370.8L474.2 382.8C480.417 382.8 486.454 382.157 492.302 380.857L489.698 369.143ZM606.111 361.5L601.635 365.496L601.635 365.496L606.111 361.5ZM599.211 282.3L593.928 279.455L593.918 279.474L593.908 279.493L599.211 282.3ZM622.311 258.3L625.288 263.509L625.305 263.5L625.321 263.49L622.311 258.3ZM685.911 257.4L682.806 262.534L682.851 262.561L682.895 262.587L685.911 257.4ZM705.711 278.7L700.344 281.383L700.368 281.43L700.391 281.475L705.711 278.7ZM704.211 345.9L698.971 342.978L698.961 342.995L698.951 343.012L704.211 345.9ZM680.511 369.9L683.398 375.159L683.438 375.138L683.477 375.116L680.511 369.9ZM677.811 354.3L682.4 358.165L682.425 358.136L682.449 358.106L677.811 354.3ZM678.711 289.5L673.668 292.75L673.668 292.75L678.711 289.5ZM654.711 271.2L656.507 265.475L655.63 265.2L654.711 265.2L654.711 271.2ZM626.811 283.2L622.295 279.249L622.288 279.257L626.811 283.2ZM626.211 352.2L621.286 355.626L621.328 355.688L621.373 355.748L626.211 352.2ZM645.711 372.3C630.843 372.3 619.336 367.303 610.587 357.504L601.635 365.496C612.886 378.097 627.779 384.3 645.711 384.3L645.711 372.3ZM610.587 357.504C601.767 347.626 597.111 334.454 597.111 317.4L585.111 317.4C585.111 336.746 590.455 352.974 601.635 365.496L610.587 357.504ZM597.111 317.4C597.111 305.037 599.634 294.325 604.514 285.107L593.908 279.493C587.988 290.675 585.111 303.363 585.111 317.4L597.111 317.4ZM604.494 285.145C609.587 275.685 616.509 268.526 625.288 263.509L619.334 253.091C608.513 259.274 600.034 268.115 593.928 279.455L604.494 285.145ZM625.321 263.49C634.326 258.268 644.57 255.6 656.211 255.6L656.211 243.6C642.652 243.6 630.296 246.732 619.301 253.11L625.321 263.49ZM656.211 255.6C666.445 255.6 675.247 257.964 682.806 262.534L689.015 252.266C679.375 246.436 668.377 243.6 656.211 243.6L656.211 255.6ZM682.895 262.587C690.449 266.979 696.248 273.192 700.344 281.383L711.078 276.017C705.973 265.808 698.573 257.821 688.927 252.213L682.895 262.587ZM700.391 281.475C704.679 289.693 706.911 299.315 706.911 310.5L718.911 310.5C718.911 297.685 716.343 286.107 711.03 275.925L700.391 281.475ZM706.911 310.5C706.911 322.79 704.22 333.565 698.971 342.978L709.451 348.822C715.802 337.435 718.911 324.61 718.911 310.5L706.911 310.5ZM698.951 343.012C693.891 352.23 686.788 359.428 677.545 364.684L683.477 375.116C694.633 368.772 703.331 359.969 709.47 348.788L698.951 343.012ZM677.623 364.641C668.408 369.7 657.822 372.3 645.711 372.3L645.711 384.3C659.6 384.3 672.214 381.3 683.398 375.159L677.623 364.641ZM651.111 371.7C663.99 371.7 674.685 367.327 682.4 358.165L673.221 350.435C668.137 356.473 661.032 359.7 651.111 359.7L651.111 371.7ZM682.449 358.106C690.017 348.883 693.411 336.455 693.411 321.6L681.411 321.6C681.411 334.745 678.405 344.117 673.173 350.494L682.449 358.106ZM693.411 321.6C693.411 308.234 690.273 296.364 683.754 286.25L673.668 292.75C678.749 300.636 681.411 310.166 681.411 321.6L693.411 321.6ZM683.754 286.25C677.196 276.073 668.048 269.096 656.507 265.475L652.915 276.925C661.774 279.704 668.626 284.927 673.668 292.75L683.754 286.25ZM654.711 265.2C641.558 265.2 630.547 269.819 622.295 279.249L631.326 287.151C637.075 280.581 644.663 277.2 654.711 277.2L654.711 265.2ZM622.288 279.257C614.283 288.44 610.611 300.588 610.611 315L622.611 315C622.611 302.612 625.739 293.56 631.334 287.143L622.288 279.257ZM610.611 315C610.611 331.359 613.96 345.096 621.286 355.626L631.136 348.774C625.662 340.904 622.611 329.84 622.611 315L610.611 315ZM621.373 355.748C628.951 366.083 638.957 371.7 651.111 371.7L651.111 359.7C643.265 359.7 636.671 356.317 631.049 348.652L621.373 355.748ZM745.674 370.5L741.19 374.486L741.268 374.574L741.349 374.659L745.674 370.5ZM809.274 309.3L809.655 315.288L815.274 314.931L815.274 309.3L809.274 309.3ZM803.574 281.7L808.419 278.16L808.419 278.16L803.574 281.7ZM763.674 276.9L761.885 271.173L761.858 271.181L761.832 271.19L763.674 276.9ZM746.574 285L741.044 287.328L743.836 293.959L749.858 290.022L746.574 285ZM744.174 279.3L739.06 276.162L737.449 278.788L738.644 281.628L744.174 279.3ZM766.074 258L769.111 263.174L769.153 263.15L769.194 263.125L766.074 258ZM824.274 260.1L820.032 264.343L820.062 264.373L820.094 264.404L824.274 260.1ZM833.274 314.1L827.311 313.437L827.302 313.519L827.295 313.602L833.274 314.1ZM834.474 353.1L828.867 355.236L828.867 355.236L834.474 353.1ZM843.774 366.9L847.699 371.438L852.379 367.391L848.19 362.838L843.774 366.9ZM819.474 378.3L816.146 383.292L818.035 384.552L820.285 384.245L819.474 378.3ZM808.074 361.8L813.825 360.09L811.463 352.142L804.652 356.872L808.074 361.8ZM785.574 373.8L783.42 368.2L783.42 368.2L785.574 373.8ZM775.974 363.9L772.887 369.045L774.536 370.034L776.453 369.881L775.974 363.9ZM791.874 359.7L794.238 365.215L794.238 365.215L791.874 359.7ZM806.874 351L810.543 355.748L812.874 353.946L812.874 351L806.874 351ZM807.774 330.9L813.744 331.497L813.753 331.407L813.76 331.318L807.774 330.9ZM808.674 318L814.66 318.418L815.135 311.61L808.322 312.01L808.674 318ZM777.174 326.7L780.439 331.734L780.487 331.703L780.533 331.672L777.174 326.7ZM768.774 356.4L763.471 359.207L763.507 359.275L763.545 359.342L768.774 356.4ZM763.974 372.3C758.41 372.3 753.87 370.367 749.999 366.341L741.349 374.659C747.478 381.033 755.139 384.3 763.974 384.3L763.974 372.3ZM750.159 366.514C746.467 362.361 744.474 357.043 744.474 350.1L732.474 350.1C732.474 359.557 735.281 367.839 741.19 374.486L750.159 366.514ZM744.474 350.1C744.474 340.451 748.948 332.839 759.17 326.949C769.784 320.832 786.392 316.766 809.655 315.288L808.894 303.312C784.957 304.833 766.165 309.068 753.178 316.551C739.801 324.261 732.474 335.549 732.474 350.1L744.474 350.1ZM815.274 309.3C815.274 295.928 813.429 285.016 808.419 278.16L798.73 285.24C801.32 288.784 803.274 296.272 803.274 309.3L815.274 309.3ZM808.419 278.16C802.953 270.681 793.551 267.9 782.574 267.9L782.574 279.9C791.997 279.9 796.595 282.319 798.73 285.24L808.419 278.16ZM782.574 267.9C775.72 267.9 768.817 269.007 761.885 271.173L765.464 282.627C771.332 280.793 777.029 279.9 782.574 279.9L782.574 267.9ZM761.832 271.19C755.148 273.346 748.96 276.272 743.291 279.978L749.858 290.022C754.589 286.928 759.801 284.454 765.516 282.61L761.832 271.19ZM752.104 282.672L749.704 276.972L738.644 281.628L741.044 287.328L752.104 282.672ZM749.288 282.438C754.156 274.505 760.731 268.093 769.111 263.174L763.037 252.825C753.017 258.707 744.992 266.495 739.06 276.162L749.288 282.438ZM769.194 263.125C777.572 258.026 785.905 255.6 794.274 255.6L794.274 243.6C783.444 243.6 772.977 246.774 762.955 252.875L769.194 263.125ZM794.274 255.6C806.201 255.6 814.476 258.788 820.032 264.343L828.517 255.857C820.072 247.412 808.348 243.6 794.274 243.6L794.274 255.6ZM820.094 264.404C825.583 269.736 828.774 277.862 828.774 289.8L840.774 289.8C840.774 275.738 836.966 264.064 828.455 255.796L820.094 264.404ZM828.774 289.8C828.774 296.731 828.292 304.604 827.311 313.437L839.238 314.763C840.256 305.596 840.774 297.269 840.774 289.8L828.774 289.8ZM827.295 313.602C826.493 323.229 826.074 330.537 826.074 335.4L838.074 335.4C838.074 331.063 838.456 324.171 839.254 314.598L827.295 313.602ZM826.074 335.4C826.074 343.297 826.888 350.041 828.867 355.236L840.081 350.964C838.86 347.759 838.074 342.703 838.074 335.4L826.074 335.4ZM828.867 355.236C830.84 360.415 834.481 365.66 839.359 370.962L848.19 362.838C843.868 358.14 841.308 354.185 840.081 350.964L828.867 355.236ZM839.849 362.362C833.236 368.081 826.195 371.328 818.664 372.355L820.285 384.245C830.353 382.872 839.512 378.519 847.699 371.438L839.849 362.362ZM822.802 373.308C818.781 370.626 815.705 366.413 813.825 360.09L802.323 363.51C804.843 371.987 809.368 378.774 816.146 383.292L822.802 373.308ZM804.652 356.872C797.827 361.611 790.751 365.381 783.42 368.2L787.728 379.4C795.998 376.219 803.921 371.989 811.497 366.728L804.652 356.872ZM783.42 368.2C776.132 371.003 769.671 372.3 763.974 372.3L763.974 384.3C771.478 384.3 779.416 382.597 787.728 379.4L783.42 368.2ZM776.453 369.881C782.224 369.419 788.163 367.818 794.238 365.215L789.511 354.185C784.385 356.382 779.724 357.581 775.496 357.919L776.453 369.881ZM794.238 365.215C800.259 362.634 805.706 359.485 810.543 355.748L803.206 346.252C799.243 349.315 794.689 351.966 789.511 354.185L794.238 365.215ZM812.874 351L812.874 349.5L800.874 349.5L800.874 351L812.874 351ZM812.874 349.5C812.874 343.287 813.165 337.287 813.744 331.497L801.804 330.303C801.183 336.513 800.874 342.913 800.874 349.5L812.874 349.5ZM813.76 331.318L814.66 318.418L802.689 317.582L801.789 330.482L813.76 331.318ZM808.322 312.01C794.167 312.843 782.459 315.888 773.815 321.728L780.533 331.672C786.69 327.512 795.981 324.757 809.027 323.99L808.322 312.01ZM773.909 321.666C764.958 327.473 760.074 335.79 760.074 346.2L772.074 346.2C772.074 340.21 774.591 335.527 780.439 331.734L773.909 321.666ZM760.074 346.2C760.074 350.701 761.275 355.057 763.471 359.207L774.077 353.593C772.674 350.943 772.074 348.499 772.074 346.2L760.074 346.2ZM763.545 359.342C765.829 363.403 768.949 366.682 772.887 369.045L779.061 358.755C776.999 357.518 775.319 355.797 774.004 353.458L763.545 359.342ZM883.831 372.6L878.839 375.928L878.883 375.995L878.929 376.06L883.831 372.6ZM880.831 323.4L886.829 323.576L886.829 323.567L886.829 323.558L880.831 323.4ZM875.731 216.9L873.537 211.315L868.514 213.289L869.947 218.493L875.731 216.9ZM891.631 212.4L892.579 218.325L892.672 218.31L892.764 218.292L891.631 212.4ZM908.731 210.9L914.703 211.478L915.34 204.9L908.731 204.9L908.731 210.9ZM906.031 342.6L900.061 343.197L900.072 343.309L900.088 343.42L906.031 342.6ZM909.631 356.4L904.202 358.955L904.202 358.955L909.631 356.4ZM917.131 366.9L921.616 370.886L925.268 366.777L921.493 362.78L917.131 366.9ZM906.631 375L909.2 380.422L909.2 380.422L906.631 375ZM896.431 371.7C891.464 371.7 889.568 370.322 888.733 369.14L878.929 376.06C882.895 381.678 889.398 383.7 896.431 383.7L896.431 371.7ZM888.824 369.272C887.501 367.288 886.231 362.416 886.231 353.1L874.231 353.1C874.231 362.584 875.361 370.712 878.839 375.928L888.824 369.272ZM886.231 353.1C886.231 346.995 886.429 337.17 886.829 323.576L874.834 323.224C874.434 336.83 874.231 346.805 874.231 353.1L886.231 353.1ZM886.829 323.558C887.23 308.33 887.431 295.773 887.431 285.9L875.431 285.9C875.431 295.627 875.233 308.07 874.833 323.242L886.829 323.558ZM887.431 285.9C887.431 253.661 885.549 229.952 881.516 215.307L869.947 218.493C873.514 231.448 875.431 253.739 875.431 285.9L887.431 285.9ZM877.925 222.484C883.196 220.414 888.076 219.045 892.579 218.325L890.683 206.475C885.186 207.355 879.466 208.986 873.537 211.315L877.925 222.484ZM892.764 218.292C897.534 217.375 902.849 216.9 908.731 216.9L908.731 204.9C902.214 204.9 896.128 205.425 890.498 206.508L892.764 218.292ZM902.759 210.322C900.331 235.412 899.131 271.14 899.131 317.4L911.131 317.4C911.131 271.26 912.331 235.988 914.703 211.478L902.759 210.322ZM899.131 317.4C899.131 328.27 899.432 336.902 900.061 343.197L912.001 342.003C911.431 336.298 911.131 328.13 911.131 317.4L899.131 317.4ZM900.088 343.42C900.93 349.525 902.242 354.789 904.202 358.955L915.06 353.845C913.821 351.211 912.733 347.275 911.975 341.78L900.088 343.42ZM904.202 358.955C906.143 363.079 909.063 367.096 912.769 371.02L921.493 362.78C918.399 359.504 916.319 356.521 915.06 353.845L904.202 358.955ZM912.647 362.914C909.905 365.998 907.036 368.169 904.063 369.578L909.2 380.422C913.827 378.231 917.957 375.002 921.616 370.886L912.647 362.914ZM904.063 369.578C900.764 371.14 898.261 371.7 896.431 371.7L896.431 383.7C900.602 383.7 904.899 382.46 909.2 380.422L904.063 369.578ZM950.166 370.5L945.682 374.486L945.76 374.574L945.841 374.659L950.166 370.5ZM1013.77 309.3L1014.15 315.288L1019.77 314.931L1019.77 309.3L1013.77 309.3ZM1008.07 281.7L1012.91 278.16L1012.91 278.16L1008.07 281.7ZM968.166 276.9L966.377 271.173L966.351 271.181L966.324 271.19L968.166 276.9ZM951.066 285L945.537 287.328L948.328 293.959L954.35 290.022L951.066 285ZM948.666 279.3L943.552 276.162L941.941 278.788L943.137 281.628L948.666 279.3ZM970.566 258L973.604 263.174L973.645 263.15L973.686 263.125L970.566 258ZM1028.77 260.1L1024.52 264.343L1024.55 264.373L1024.59 264.404L1028.77 260.1ZM1037.77 314.1L1031.8 313.437L1031.79 313.519L1031.79 313.602L1037.77 314.1ZM1038.97 353.1L1033.36 355.236L1033.36 355.236L1038.97 353.1ZM1048.27 366.9L1052.19 371.438L1056.87 367.391L1052.68 362.838L1048.27 366.9ZM1023.97 378.3L1020.64 383.292L1022.53 384.552L1024.78 384.245L1023.97 378.3ZM1012.57 361.8L1018.32 360.09L1015.95 352.142L1009.14 356.872L1012.57 361.8ZM990.066 373.8L987.913 368.2L987.913 368.2L990.066 373.8ZM980.466 363.9L977.379 369.045L979.028 370.034L980.945 369.881L980.466 363.9ZM996.366 359.7L998.73 365.215L998.73 365.215L996.366 359.7ZM1011.37 351L1015.04 355.748L1017.37 353.946L1017.37 351L1011.37 351ZM1012.27 330.9L1018.24 331.497L1018.25 331.407L1018.25 331.318L1012.27 330.9ZM1013.17 318L1019.15 318.418L1019.63 311.61L1012.81 312.01L1013.17 318ZM981.666 326.7L984.932 331.734L984.979 331.703L985.026 331.672L981.666 326.7ZM973.266 356.4L967.964 359.207L967.999 359.275L968.037 359.342L973.266 356.4ZM968.466 372.3C962.902 372.3 958.363 370.367 954.491 366.341L945.841 374.659C951.97 381.033 959.631 384.3 968.466 384.3L968.466 372.3ZM954.651 366.514C950.959 362.361 948.966 357.043 948.966 350.1L936.966 350.1C936.966 359.557 939.773 367.839 945.682 374.486L954.651 366.514ZM948.966 350.1C948.966 340.451 953.44 332.839 963.662 326.949C974.276 320.832 990.884 316.766 1014.15 315.288L1013.39 303.312C989.449 304.833 970.657 309.068 957.671 316.551C944.293 324.261 936.966 335.549 936.966 350.1L948.966 350.1ZM1019.77 309.3C1019.77 295.928 1017.92 285.016 1012.91 278.16L1003.22 285.24C1005.81 288.784 1007.77 296.272 1007.77 309.3L1019.77 309.3ZM1012.91 278.16C1007.45 270.681 998.043 267.9 987.066 267.9L987.066 279.9C996.489 279.9 1001.09 282.319 1003.22 285.24L1012.91 278.16ZM987.066 267.9C980.212 267.9 973.309 269.007 966.377 271.173L969.956 282.627C975.824 280.793 981.521 279.9 987.066 279.9L987.066 267.9ZM966.324 271.19C959.64 273.346 953.452 276.272 947.783 279.978L954.35 290.022C959.081 286.928 964.293 284.454 970.008 282.61L966.324 271.19ZM956.596 282.672L954.196 276.972L943.137 281.628L945.537 287.328L956.596 282.672ZM953.78 282.438C958.648 274.505 965.223 268.093 973.604 263.174L967.529 252.825C957.51 258.707 949.485 266.495 943.552 276.162L953.78 282.438ZM973.686 263.125C982.064 258.026 990.397 255.6 998.766 255.6L998.766 243.6C987.936 243.6 977.469 246.774 967.447 252.875L973.686 263.125ZM998.766 255.6C1010.69 255.6 1018.97 258.788 1024.52 264.343L1033.01 255.857C1024.56 247.412 1012.84 243.6 998.766 243.6L998.766 255.6ZM1024.59 264.404C1030.07 269.736 1033.27 277.862 1033.27 289.8L1045.27 289.8C1045.27 275.738 1041.46 264.064 1032.95 255.796L1024.59 264.404ZM1033.27 289.8C1033.27 296.731 1032.78 304.604 1031.8 313.437L1043.73 314.763C1044.75 305.596 1045.27 297.269 1045.27 289.8L1033.27 289.8ZM1031.79 313.602C1030.98 323.229 1030.57 330.537 1030.57 335.4L1042.57 335.4C1042.57 331.063 1042.95 324.171 1043.75 314.598L1031.79 313.602ZM1030.57 335.4C1030.57 343.297 1031.38 350.041 1033.36 355.236L1044.57 350.964C1043.35 347.759 1042.57 342.703 1042.57 335.4L1030.57 335.4ZM1033.36 355.236C1035.33 360.415 1038.97 365.66 1043.85 370.962L1052.68 362.838C1048.36 358.14 1045.8 354.185 1044.57 350.964L1033.36 355.236ZM1044.34 362.362C1037.73 368.081 1030.69 371.328 1023.16 372.355L1024.78 384.245C1034.85 382.872 1044 378.519 1052.19 371.438L1044.34 362.362ZM1027.29 373.308C1023.27 370.626 1020.2 366.413 1018.32 360.09L1006.82 363.51C1009.34 371.987 1013.86 378.774 1020.64 383.292L1027.29 373.308ZM1009.14 356.872C1002.32 361.611 995.243 365.381 987.913 368.2L992.22 379.4C1000.49 376.219 1008.41 371.989 1015.99 366.728L1009.14 356.872ZM987.913 368.2C980.625 371.003 974.163 372.3 968.466 372.3L968.466 384.3C975.97 384.3 983.908 382.597 992.22 379.4L987.913 368.2ZM980.945 369.881C986.717 369.419 992.655 367.818 998.73 365.215L994.003 354.185C988.878 356.382 984.216 357.581 979.988 357.919L980.945 369.881ZM998.73 365.215C1004.75 362.634 1010.2 359.485 1015.04 355.748L1007.7 346.252C1003.73 349.314 999.181 351.966 994.003 354.185L998.73 365.215ZM1017.37 351L1017.37 349.5L1005.37 349.5L1005.37 351L1017.37 351ZM1017.37 349.5C1017.37 343.287 1017.66 337.287 1018.24 331.497L1006.3 330.303C1005.68 336.513 1005.37 342.913 1005.37 349.5L1017.37 349.5ZM1018.25 331.318L1019.15 318.418L1007.18 317.582L1006.28 330.482L1018.25 331.318ZM1012.81 312.01C998.66 312.843 986.951 315.888 978.307 321.728L985.026 331.672C991.182 327.512 1000.47 324.757 1013.52 323.99L1012.81 312.01ZM978.401 321.666C969.45 327.473 964.566 335.79 964.566 346.2L976.566 346.2C976.566 340.21 979.083 335.527 984.932 331.734L978.401 321.666ZM964.566 346.2C964.566 350.701 965.767 355.057 967.964 359.207L978.569 353.593C977.166 350.943 976.566 348.499 976.566 346.2L964.566 346.2ZM968.037 359.342C970.321 363.403 973.441 366.682 977.379 369.045L983.553 358.755C981.492 357.518 979.811 355.797 978.496 353.458L968.037 359.342Z" fill="#A1A3D4"/>
<path d="M464.2 368.8C459.4 368.8 453.8 368.2 447.4 367C448.4 357.2 449.2 343.6 449.8 326.2C450.4 308.6 450.7 292 450.7 276.4C450.7 239.8 449 217.3 445.6 208.9C451.4 207.7 456.8 207.1 461.8 207.1C467 207.1 472.9 207.7 479.5 208.9C477.7 230.3 476.6 256.1 476.2 286.3C498.8 262.1 513.9 244.7 521.5 234.1C529.3 223.3 533.2 215.4 533.2 210.4C545 208.2 557.5 207.1 570.7 207.1C555.9 221.1 535.2 243 508.6 272.8C539.4 322 562.1 351.9 576.7 362.5C571.3 364.9 565.7 366.5 559.9 367.3C554.3 368.3 547.8 368.8 540.4 368.8C531 353 514.1 328 489.7 293.8L483.7 300.7C480.5 304.7 478 307.6 476.2 309.4C476.6 340 478.2 359.2 481 367C475.6 368.2 470 368.8 464.2 368.8ZM635.711 370.3C619.311 370.3 606.111 364.7 596.111 353.5C586.111 342.3 581.111 327.6 581.111 309.4C581.111 296.2 583.811 284.5 589.211 274.3C594.811 263.9 602.511 255.9 612.311 250.3C622.311 244.5 633.611 241.6 646.211 241.6C657.411 241.6 667.311 244.2 675.911 249.4C684.511 254.4 691.111 261.5 695.711 270.7C700.511 279.9 702.911 290.5 702.911 302.5C702.911 315.7 700.011 327.5 694.211 337.9C688.611 348.1 680.711 356.1 670.511 361.9C660.311 367.5 648.711 370.3 635.711 370.3ZM641.111 357.7C652.511 357.7 661.411 353.9 667.811 346.3C674.211 338.5 677.411 327.6 677.411 313.6C677.411 301.2 674.511 290.5 668.711 281.5C662.911 272.5 654.911 266.4 644.711 263.2C633.111 263.2 623.811 267.2 616.811 275.2C610.011 283 606.611 293.6 606.611 307C606.611 322.6 609.811 335 616.211 344.2C622.811 353.2 631.111 357.7 641.111 357.7ZM753.974 370.3C746.774 370.3 740.674 367.7 735.674 362.5C730.874 357.1 728.474 350.3 728.474 342.1C728.474 317.9 752.074 304.3 799.274 301.3C799.274 288.1 797.374 278.9 793.574 273.7C789.774 268.5 782.774 265.9 772.574 265.9C766.374 265.9 760.074 266.9 753.674 268.9C747.474 270.9 741.774 273.6 736.574 277L734.174 271.3C739.574 262.5 746.874 255.4 756.074 250C765.274 244.4 774.674 241.6 784.274 241.6C797.274 241.6 807.274 245.1 814.274 252.1C821.274 258.9 824.774 268.8 824.774 281.8C824.774 289 824.274 297.1 823.274 306.1C822.474 315.7 822.074 322.8 822.074 327.4C822.074 335 822.874 340.9 824.474 345.1C826.074 349.3 829.174 353.9 833.774 358.9C826.374 365.3 818.274 369.1 809.474 370.3C804.074 366.7 800.274 361.2 798.074 353.8C790.874 358.8 783.374 362.8 775.574 365.8C767.774 368.8 760.574 370.3 753.974 370.3ZM765.974 355.9C770.974 355.5 776.274 354.1 781.874 351.7C787.474 349.3 792.474 346.4 796.874 343L796.874 341.5C796.874 335.1 797.174 328.9 797.774 322.9L798.674 310C785.074 310.8 774.574 313.7 767.174 318.7C759.774 323.5 756.074 330 756.074 338.2C756.074 341.6 756.974 345 758.774 348.4C760.574 351.6 762.974 354.1 765.974 355.9ZM886.431 369.7C880.431 369.7 876.231 368 873.831 364.6C871.431 361 870.231 354.5 870.231 345.1C870.231 338.9 870.431 329 870.831 315.4C871.231 300.2 871.431 287.7 871.431 277.9C871.431 245.7 869.531 222.7 865.731 208.9C871.331 206.7 876.631 205.2 881.631 204.4C886.831 203.4 892.531 202.9 898.731 202.9C896.331 227.7 895.131 263.2 895.131 309.4C895.131 320.2 895.431 328.6 896.031 334.6C896.831 340.4 898.031 345 899.631 348.4C901.231 351.8 903.731 355.3 907.131 358.9C903.931 362.5 900.431 365.2 896.631 367C892.831 368.8 889.431 369.7 886.431 369.7ZM958.466 370.3C951.266 370.3 945.166 367.7 940.166 362.5C935.366 357.1 932.966 350.3 932.966 342.1C932.966 317.9 956.566 304.3 1003.77 301.3C1003.77 288.1 1001.87 278.9 998.066 273.7C994.266 268.5 987.266 265.9 977.066 265.9C970.866 265.9 964.566 266.9 958.166 268.9C951.966 270.9 946.266 273.6 941.066 277L938.666 271.3C944.066 262.5 951.366 255.4 960.566 250C969.766 244.4 979.166 241.6 988.766 241.6C1001.77 241.6 1011.77 245.1 1018.77 252.1C1025.77 258.9 1029.27 268.8 1029.27 281.8C1029.27 289 1028.77 297.1 1027.77 306.1C1026.97 315.7 1026.57 322.8 1026.57 327.4C1026.57 335 1027.37 340.9 1028.97 345.1C1030.57 349.3 1033.67 353.9 1038.27 358.9C1030.87 365.3 1022.77 369.1 1013.97 370.3C1008.57 366.7 1004.77 361.2 1002.57 353.8C995.366 358.8 987.866 362.8 980.066 365.8C972.266 368.8 965.066 370.3 958.466 370.3ZM970.466 355.9C975.466 355.5 980.766 354.1 986.366 351.7C991.966 349.3 996.966 346.4 1001.37 343L1001.37 341.5C1001.37 335.1 1001.67 328.9 1002.27 322.9L1003.17 310C989.566 310.8 979.066 313.7 971.666 318.7C964.266 323.5 960.566 330 960.566 338.2C960.566 341.6 961.466 345 963.266 348.4C965.066 351.6 967.466 354.1 970.466 355.9Z" fill="#4A608C"/>
</svg>
