<svg width="357" height="238" viewBox="0 0 357 238" fill="none" xmlns="http://www.w3.org/2000/svg">
<path d="M137.934 210.468C137.942 210.424 137.966 210.392 137.973 210.348C138.243 209.684 138.28 208.973 138.432 208.272C138.518 207.892 138.627 207.479 138.669 207.092C138.769 206.23 138.787 205.383 138.761 204.528C138.519 198.698 134.14 194.239 129.796 191.084C123.755 186.623 116.868 183.219 110.299 179.481C105.161 176.586 99.9882 173.64 94.0421 172.641C87.9387 171.626 81.2921 173.461 75.5461 175.68C73.3263 175.617 71.0598 175.717 68.782 176.029C68.7113 176.027 68.6761 176.075 68.6408 176.123C68.5346 176.071 68.4402 176.002 68.334 175.95C68.1649 175.851 68.0624 175.728 67.9717 175.588C72.9241 174.981 77.88 174.204 82.5895 172.215C92.1379 168.16 99.8362 160.868 107.015 153.199C107.031 153.21 107.031 153.21 107.047 153.222C110.434 153.863 113.646 153.196 116.668 151.9C119.722 150.626 122.601 148.734 125.299 146.858C127.158 145.603 128.998 144.406 130.908 143.311C131.869 142.755 132.823 142.243 133.823 141.765C134.828 141.314 135.864 140.887 136.92 140.498C138.996 139.769 141.097 139.204 143.225 138.734C145.373 138.302 147.533 137.953 149.657 137.554C156.89 136.267 163.711 134.754 170.042 130.747C171.713 129.65 173.352 128.53 174.972 127.37C176.603 126.195 178.207 125.024 179.839 123.849C181.482 122.657 183.165 121.642 184.926 120.684C186.625 119.779 188.395 118.975 190.275 118.349C190.303 118.344 190.33 118.34 190.342 118.324C190.397 118.314 190.448 118.278 190.503 118.269C191.323 118.004 189.906 116.679 189.756 116.325C189.258 115.029 188.391 113.809 187.457 112.811C186.102 111.336 184.442 110.179 182.676 109.265C182.66 109.253 182.644 109.242 182.629 109.231C180.819 108.31 178.81 107.564 176.762 107.035C174.734 106.546 172.643 106.207 170.643 106.009C165.46 105.416 160.212 105.538 154.932 105.44C152.193 105.394 149.522 105.421 146.78 105.544C145.425 105.617 144.046 105.722 142.68 105.909C141.313 106.097 139.99 106.39 138.635 106.758C136.064 107.472 133.615 108.644 131.34 110.04C129.085 111.476 126.944 113.117 124.908 114.712C122.858 116.296 120.889 117.964 118.984 119.678C117.111 121.415 115.288 123.214 113.796 125.253C111.168 128.778 109.791 132.867 108.823 136.958C107.586 142.206 106.358 147.706 105.946 153.013C98.9159 160.446 91.4996 167.352 82.1756 171.595C77.5253 173.7 72.6363 174.55 67.7034 175.098C67.5357 173.944 68.3801 172.197 68.6332 171.225L69.3808 168.424C75.5568 168.583 80.7801 166.254 85.646 162.339C87.9908 160.452 90.5353 158.293 92.8356 155.907C95.1085 153.526 97.1491 150.902 98.4467 148.107C101.378 141.729 100.289 134.62 99.8289 127.967C99.2715 119.867 98.4195 111.774 97.5558 103.698C97.5396 103.489 97.3427 103.297 97.103 103.295C95.1272 103.36 93.2185 103.596 91.3572 103.966C89.4803 104.323 87.639 104.83 85.8412 105.442C82.2614 106.678 78.9655 108.414 75.922 110.531C72.9493 112.65 70.3035 115.178 68.0278 118.025C65.8346 120.857 64.0231 123.992 62.6994 127.382C61.1572 131.4 60.2793 135.631 59.3228 139.804C58.4283 143.629 57.7852 147.44 57.9752 151.364C58.3019 158.264 62.372 164.957 68.3275 168.25L66.4662 175.208C65.1623 175.343 63.8701 175.461 62.5661 175.596C59.6754 175.857 56.6984 176.202 53.8283 176.896C50.9543 177.562 48.2068 178.616 45.7988 180.358C45.6576 180.452 45.8035 180.681 45.9605 180.598C52.3402 177.217 59.3472 176.602 66.3812 175.785C66.4011 175.923 66.4761 176.051 66.602 176.142C70.9935 179.233 76.3897 180.227 81.3284 182.142C84.2224 183.26 86.7288 184.908 88.6595 187.343C91.0827 190.357 92.2905 194.405 93.9212 197.876C99.0345 208.842 107.415 219.33 120.037 220.826C123.389 221.22 126.837 220.626 129.886 219.128C132.829 217.676 135.345 215.324 136.91 212.428C137.364 211.774 137.677 211.116 137.934 210.468ZM180.946 122.072C178.036 124.039 175.256 126.224 172.432 128.206C170.659 129.475 168.894 130.602 167.07 131.515C165.276 132.45 163.408 133.158 161.524 133.855C159.652 134.536 157.732 135.084 155.745 135.559C154.752 135.796 153.739 135.995 152.726 136.193C151.717 136.419 150.688 136.606 149.647 136.809C146.137 137.456 142.607 138.063 139.219 139.07C137.519 139.581 135.839 140.131 134.194 140.829C132.55 141.528 130.969 142.371 129.419 143.336C122.461 147.674 115.883 153.763 107.262 152.96C109.637 150.407 111.952 147.835 114.276 145.319C116.713 142.713 119.19 140.086 121.788 137.523C124.422 135.011 127.135 132.555 130.033 130.308C132.966 128.112 135.998 126.011 139.258 124.322C140.895 123.47 142.57 122.696 144.301 122.01C146.016 121.314 147.786 120.706 149.62 120.243C151.332 119.815 153.04 119.457 154.76 119.182C156.48 118.907 158.196 118.703 159.944 118.62C163.42 118.416 166.862 118.358 170.319 118.41C173.78 118.49 177.206 118.519 180.607 118.384C182.996 118.348 185.083 118.659 187.29 118.64C185.077 119.589 182.982 120.772 180.946 122.072ZM113.659 127.12C114.25 126.148 114.931 125.217 115.676 124.331C116.42 123.446 117.227 122.606 118.066 121.79C119.744 120.156 121.563 118.625 123.347 117.143C125.35 115.525 127.37 113.918 129.492 112.435C130.554 111.707 131.629 110.963 132.747 110.325C133.893 109.682 135.046 109.093 136.263 108.551C138.622 107.535 141.04 106.931 143.534 106.653C146.028 106.374 148.558 106.343 150.989 106.314C153.488 106.26 156.002 106.316 158.501 106.361C160.999 106.405 163.482 106.438 165.961 106.542C168.429 106.662 170.896 106.881 173.247 107.26C175.612 107.651 177.873 108.186 179.973 109.072C184.019 110.757 187.36 113.405 189.437 117.617C186.385 117.933 183.492 117.307 180.373 117.353C176.956 117.477 173.534 117.475 170.065 117.439C166.612 117.414 163.167 117.543 159.691 117.747C157.947 117.858 156.215 118.05 154.506 118.309C152.771 118.573 151.059 118.903 149.331 119.32C148.448 119.539 147.564 119.758 146.716 120.027C145.857 120.313 145.013 120.61 144.189 120.945C142.524 121.605 140.884 122.331 139.299 123.147C137.698 123.951 136.168 124.856 134.677 125.839C133.171 126.81 131.716 127.843 130.293 128.899C127.45 131.038 124.8 133.441 122.236 135.857C119.688 138.285 117.302 140.854 114.959 143.332C112.122 146.385 109.336 149.5 106.479 152.515C108.852 144.133 108.826 134.944 113.659 127.12ZM97.2354 109.439C97.6646 113.168 98.0114 116.911 98.3698 120.638C99.0428 127.79 100.259 135.385 99.3765 142.587C98.9371 146.152 97.2865 149.231 95.152 151.984C93.0333 154.747 90.3755 157.193 87.8825 159.513C82.5006 164.529 76.8866 167.754 69.6115 167.977L74.1711 150.809C74.2256 150.603 74.1702 150.415 74.0402 150.296C74.8579 148.849 75.4669 147.226 76.1391 145.748C77.1982 143.444 78.2731 141.151 79.3205 138.863C80.4464 136.534 81.5683 134.177 82.6785 131.837C83.2257 130.66 83.7729 129.484 84.2886 128.285C84.82 127.098 85.3358 125.899 85.8357 124.689C87.4487 120.673 87.7765 116.436 88.8902 112.279C89.8756 108.692 92.6893 105.769 96.4102 104.341C97.1068 104.871 97.1673 108.874 97.2354 109.439ZM59.0769 152.066C58.6759 148.628 59.0523 145.016 59.8058 141.384C60.5751 137.763 61.6745 134.186 62.6331 130.899C63.5487 127.704 64.9518 124.666 66.6463 121.889C68.3133 119.117 70.4482 116.562 72.8668 114.311C74.0819 113.177 75.3405 112.149 76.7211 111.185C78.1016 110.221 79.5649 109.341 81.0676 108.54C82.586 107.749 84.1322 107.053 85.8043 106.448C87.4764 105.843 89.192 105.343 90.9393 104.965C92.0583 104.721 93.1736 104.547 94.2811 104.417C93.822 104.649 93.3709 104.936 92.9473 105.219C91.6805 106.093 90.5123 107.163 89.5956 108.218C88.4711 109.491 88.1377 111.363 87.7524 112.878C87.1184 115.589 86.7439 118.341 86.0667 121.046C85.4169 123.647 84.3347 126.18 83.2013 128.651C82.0679 131.123 80.8165 133.557 79.7026 135.969C78.4752 138.569 77.346 141.166 76.1736 143.757C75.2592 145.797 74.0151 147.991 73.3328 150.176C73.2426 150.233 73.1721 150.329 73.1489 150.46L68.6281 167.411C63.3947 163.856 59.8819 158.576 59.0769 152.066ZM96.98 174.061C103.93 175.962 110.301 180.368 116.422 183.928C122.775 187.534 129.945 190.946 134.716 196.648C137.083 199.474 138.038 202.749 137.896 205.941C137.84 207.302 137.573 208.656 137.112 209.944C134.153 211.385 130.116 208.403 127.488 206.888C124.51 205.193 121.583 203.362 118.746 201.375C112.898 197.276 108.595 191.495 103.19 186.857C95.5886 180.377 86.563 176.306 76.7758 175.713C83.5603 174.051 90.0025 172.166 96.98 174.061ZM130.833 217.8C129.578 218.56 128.193 219.103 126.74 219.474C123.823 220.232 120.699 220.151 117.634 219.498C111.038 218.101 105.658 213.726 101.524 208.536C96.7883 202.589 94.5635 195.417 90.9847 188.81C88.349 183.946 83.7512 181.664 78.6912 179.98C76.3834 179.214 74.0285 178.512 71.7597 177.626C70.8474 177.259 69.9546 176.832 69.1088 176.34C75.9272 175.687 82.698 176.547 89.0482 178.971C96.2046 181.71 102.243 186.636 107.535 192.053C109.965 194.531 112.25 197.174 114.911 199.401C117.784 201.832 120.936 203.851 124.107 205.809C125.928 206.911 128.514 208.813 131.125 210.022C132.439 210.631 133.764 211.028 135.001 211.116C135.599 211.156 136.168 211.102 136.726 210.966C136.136 212.333 135.326 213.637 134.307 214.865C133.285 216.064 132.116 217.035 130.833 217.8Z" fill="#A1A3D4" fill-opacity="0.62"/>
<path d="M161.29 172.752C161.334 171.407 161.001 170.181 160.715 168.892C160.441 167.685 160.058 166.497 159.544 165.386C156.598 158.87 149.274 156.427 142.683 155.255C133.522 153.642 123.912 153.3 114.662 152.336C107.443 151.592 100.154 150.65 92.9447 152.2C89.132 152.996 85.5296 154.657 82.1325 156.763C78.8609 158.763 75.8024 161.164 73.0267 163.574C70.4477 164.43 67.8967 165.478 65.3933 166.758C65.3149 166.799 65.2796 166.847 65.2759 166.918C65.1304 166.887 65.0007 166.866 64.8553 166.834C64.6234 166.789 64.4425 166.707 64.2811 166.565C66.2901 165.565 68.2952 164.538 70.2725 163.417C73.5836 161.495 76.7605 159.328 79.6417 156.675C88.8767 148.041 94.3844 136.429 98.6975 124.638C98.7132 124.649 98.725 124.633 98.7407 124.645C102.82 123.748 106.068 121.484 108.787 118.591C111.491 115.687 113.71 112.16 115.71 108.769C118.401 104.135 121.125 99.7207 124.805 95.7794C128.39 91.9666 132.582 88.7417 136.636 85.4413C143.51 79.8368 149.632 73.908 153.36 65.749C157.335 57.0558 158.892 47.5162 164.542 39.5972C164.741 39.3243 164.599 38.9259 164.265 38.8553C163.695 38.7118 162.984 38.6625 162.476 38.3677C161.509 37.8124 160.404 37.3787 159.315 37.0549C157.77 36.5967 156.159 36.3608 154.532 36.3104C151.208 36.2076 147.871 36.8814 144.683 37.9101C141.939 38.7938 139.29 39.9432 136.736 41.2596C131.498 43.9706 126.449 47.1143 121.357 50.0541C116.108 53.0767 110.678 55.9185 106.292 60.1334C102.082 64.206 99.585 69.7928 97.3386 75.0699C95.0765 80.3355 92.7949 85.6608 91.7594 91.3256C90.8557 96.2502 91.5983 101.264 92.639 106.101C93.9777 112.31 95.3524 118.865 97.4685 124.901C93.2175 136.344 87.8538 147.396 78.9843 156.124C75.9859 159.036 72.6482 161.357 69.1095 163.359C67.3911 164.324 65.6215 165.227 63.8322 166.091C63.1457 164.855 63.3994 162.532 63.2984 161.352C63.2014 160.2 63.1044 159.047 62.9916 157.884C70.0966 155.521 75.1177 150.734 78.9091 144.268C82.5792 138.034 86.6032 130.261 86.7744 122.912C87.0061 114.623 82.2355 107.372 78.3259 100.427C73.5799 91.9889 68.4573 83.7694 63.1151 75.6854C62.9732 75.484 62.6743 75.3653 62.4349 75.4619C46.8317 82.4217 37.4006 97.8468 37.7549 114.724C37.869 119.773 38.7215 124.768 39.4641 129.782C40.1468 134.384 41.0179 138.926 42.8706 143.246C46.1296 150.85 53.5293 156.814 61.7312 158.124C61.9933 160.994 62.2397 163.853 62.4627 166.744C61.0264 167.422 59.5902 168.1 58.15 168.75C54.9399 170.205 51.6359 171.788 48.6234 173.731C45.5912 175.634 42.8388 177.913 40.748 180.869C40.6305 181.03 40.8981 181.224 41.0196 181.091C43.6881 178.235 46.7117 175.981 49.9323 174.018C53.1214 172.031 56.5392 170.358 59.9727 168.697C60.8399 168.27 61.6953 167.858 62.5625 167.431C62.6414 167.587 62.7831 167.689 62.96 167.744C69.2614 169.444 75.9059 168.369 82.3762 168.422C86.183 168.457 89.748 169.252 93.0368 171.148C97.0965 173.507 100.19 177.548 103.533 180.787C114.038 190.974 128.091 199.311 143.907 194.596C150.506 192.628 156.179 187.577 159.071 181.318C159.767 179.808 160.286 178.242 160.628 176.622C160.872 175.398 161.164 174.11 161.216 172.82C161.306 172.763 161.29 172.752 161.29 172.752ZM154.05 61.6769C150.435 71.3936 144.056 78.1682 136.143 84.6654C132.822 87.3919 129.497 90.091 126.432 93.0279C123.367 95.9648 120.562 99.1396 118.269 102.834C113.166 111.125 108.821 121.049 98.8497 124.232C100.267 120.319 101.558 116.414 102.817 112.584C108.079 96.5643 113.512 79.9811 125.803 67.7638C136.42 57.2076 150.964 52.5518 161.727 42.2245C158.23 48.2892 156.455 55.1624 154.05 61.6769ZM92.5814 93.3978C93.0366 88.1966 95.1343 83.1557 97.1304 78.3852C99.3178 73.0899 101.552 67.8288 105.018 63.1914C108.382 58.726 113.321 55.8963 118.088 53.1379C122.945 50.3221 127.817 47.5178 132.674 44.702C142.18 39.1898 152.627 34.7301 163.045 39.7643C151.793 50.9904 136.272 56.0921 124.894 67.0297C112.959 78.4974 107.517 94.8286 102.525 110.085C101.004 114.733 99.463 119.441 97.7612 124.105C96.2951 113.821 91.6753 103.926 92.5814 93.3978ZM65.8758 81.8946C68.2928 85.6414 70.6472 89.441 72.9505 93.2774C77.352 100.604 82.5912 108.269 85.0857 116.522C86.3132 120.61 85.9654 124.709 84.871 128.708C83.7451 132.685 81.8843 136.546 80.1212 140.207C78.1429 144.228 75.8688 147.764 73.0159 150.708C70.2529 153.495 67.0055 155.759 62.9942 157.32C62.7321 154.45 62.4542 151.568 62.1645 148.703C61.7382 144.509 61.3198 140.369 60.8385 136.184C60.8143 135.921 60.6489 135.752 60.468 135.669C60.7619 133.719 60.702 131.66 60.7918 129.758C60.9498 126.775 61.0999 123.836 61.2304 120.857C61.495 114.829 61.9246 108.774 61.6117 102.744C61.3642 97.7456 59.6325 93.0951 58.6427 88.2213C57.8038 83.998 59.2436 79.8561 62.2693 76.8413C63.252 77.1125 65.4933 81.2972 65.8758 81.8946ZM44.3486 143.631C40.5363 136.29 39.9791 126.641 39.1863 118.665C37.6486 103.042 43.9745 88.5336 56.9412 79.7082C57.9648 79.0011 59.0319 78.3993 60.1305 77.8204C58.7636 79.5566 57.8219 81.7001 57.2806 83.6917C56.7938 85.4771 57.4116 87.5977 57.8087 89.3611C58.5076 92.524 59.4891 95.597 60.0938 98.7898C60.6785 101.845 60.8 105.006 60.7525 108.168C60.6892 111.318 60.457 114.469 60.3583 117.569C60.2523 120.909 60.1188 124.254 59.997 127.583C59.9011 130.218 59.4799 133.133 59.6788 135.858C59.6083 135.955 59.5576 136.09 59.5815 136.255C60.1397 141.356 60.6703 146.462 61.1932 151.611C61.3744 153.439 61.5437 155.283 61.7091 157.1C54.1658 155.186 47.9833 150.623 44.3486 143.631ZM96.8974 152.464C101.3 151.949 105.81 152.177 110.345 152.667C114.864 153.146 119.356 153.827 123.729 154.274C132.759 155.178 142.737 155.049 151.063 158.759C156.934 161.376 159.858 166.671 159.931 172.6C156.957 176.071 150.783 174.856 146.967 174.568C142.653 174.238 138.374 173.761 134.172 172.947C125.478 171.255 117.941 166.764 109.638 164.077C97.9806 160.307 85.9343 159.672 74.4517 163.109C81.5313 158.343 88.0922 153.494 96.8974 152.464ZM140.434 194.335C131.948 196.016 123.752 193.578 116.773 189.543C108.764 184.906 103.204 177.745 96.2912 171.84C91.1934 167.474 84.8986 166.885 78.3857 167.122C75.4043 167.243 72.4191 167.435 69.4489 167.343C68.2467 167.306 67.06 167.182 65.8771 166.986C69.609 165.247 73.4989 163.917 77.4606 162.983C81.5204 162.047 85.7031 161.569 89.9222 161.535C99.319 161.476 108.444 164.292 116.95 167.888C120.851 169.541 124.685 171.416 128.79 172.627C133.248 173.947 137.818 174.685 142.467 175.184C147.072 175.677 155.55 177.63 159.922 173.995C159.797 175.945 159.381 177.93 158.655 179.91C157.192 183.887 154.63 187.091 151.434 189.515C148.195 191.932 144.388 193.544 140.434 194.335Z" fill="#4A608C"/>
<path d="M161.6 153.9L163.254 152.775L163.241 152.757L163.228 152.738L161.6 153.9ZM165.3 157.9L164.1 159.5L164.144 159.533L164.191 159.564L165.3 157.9ZM170.4 160L172.4 160L172.4 158.413L170.854 158.052L170.4 160ZM170.4 162L170.275 163.996L172.4 164.129L172.4 162L170.4 162ZM148.1 162L146.1 162L146.1 164.126L148.222 163.996L148.1 162ZM148.1 160L148.017 158.002L146.1 158.082L146.1 160L148.1 160ZM151.6 159.4L152.428 161.221L152.428 161.221L151.6 159.4ZM151.7 155.5L150.034 156.606L150.053 156.635L150.073 156.662L151.7 155.5ZM137.1 133.5L135.43 134.601L135.434 134.606L137.1 133.5ZM132.2 127.8L131.053 129.438L131.081 129.458L131.11 129.477L132.2 127.8ZM126.6 126.2L126.711 124.203L124.6 124.086L124.6 126.2L126.6 126.2ZM127.2 156.9L129.086 156.234L129.086 156.234L127.2 156.9ZM129.4 159.2L128.698 161.073L128.716 161.079L128.734 161.086L129.4 159.2ZM134.7 160L136.7 160L136.7 158.108L134.811 158.003L134.7 160ZM134.7 162L134.57 163.996L136.7 164.135L136.7 162L134.7 162ZM109.2 162L107.2 162L107.2 164.148L109.342 163.995L109.2 162ZM109.2 160L109.089 158.003L107.2 158.108L107.2 160L109.2 160ZM114.4 159.2L113.734 157.314L113.716 157.321L113.698 157.327L114.4 159.2ZM116.7 96.3L114.814 96.9656L114.814 96.9656L116.7 96.3ZM114.4 94L113.698 95.8727L113.716 95.8795L113.734 95.886L114.4 94ZM109.2 93.2L107.2 93.2L107.2 95.092L109.089 95.1969L109.2 93.2ZM109.2 91.2L109.342 89.2051L107.2 89.052L107.2 91.2L109.2 91.2ZM134.7 91.2L136.7 91.2L136.7 89.0683L134.573 89.2041L134.7 91.2ZM134.7 93.2L134.811 95.1969L136.7 95.092L136.7 93.2L134.7 93.2ZM129.4 94L128.734 92.114L128.716 92.1205L128.698 92.1273L129.4 94ZM127.2 96.3L129.086 96.9656L129.086 96.9656L127.2 96.3ZM126.6 124.2L124.6 124.2L124.6 126.284L126.682 126.198L126.6 124.2ZM138 118.6L136.428 117.363L136.423 117.37L136.418 117.376L138 118.6ZM147.6 106.4L146.046 105.142L146.037 105.152L146.028 105.163L147.6 106.4ZM146.5 93.2L144.5 93.2L144.5 95.168L146.468 95.1997L146.5 93.2ZM146.5 91.2L146.605 89.2028L144.5 89.092L144.5 91.2L146.5 91.2ZM166.5 91.2L168.5 91.2L168.5 88.99L166.301 89.2099L166.5 91.2ZM166.5 93.2L166.8 95.1774L168.5 94.9198L168.5 93.2L166.5 93.2ZM160.3 95.4L161.266 97.1512L161.289 97.1386L161.311 97.1254L160.3 95.4ZM154.7 100.5L156.277 101.73L156.284 101.722L154.7 100.5ZM138.4 121.4L136.823 120.17L135.905 121.347L136.772 122.562L138.4 121.4ZM159.946 155.025C161.178 156.837 162.558 158.343 164.1 159.5L166.5 156.3C165.376 155.457 164.288 154.297 163.254 152.775L159.946 155.025ZM164.191 159.564C165.829 160.656 167.762 161.438 169.946 161.948L170.854 158.052C169.038 157.629 167.571 157.01 166.409 156.236L164.191 159.564ZM168.4 160L168.4 162L172.4 162L172.4 160L168.4 160ZM170.525 160.004C167.268 159.8 163.223 159.7 158.4 159.7L158.4 163.7C163.177 163.7 167.132 163.8 170.275 163.996L170.525 160.004ZM158.4 159.7C154.763 159.7 151.289 159.801 147.978 160.004L148.222 163.996C151.444 163.799 154.837 163.7 158.4 163.7L158.4 159.7ZM150.1 162L150.1 160L146.1 160L146.1 162L150.1 162ZM148.183 161.998C149.837 161.929 151.327 161.721 152.428 161.221L150.772 157.579C150.406 157.746 149.563 157.937 148.017 158.002L148.183 161.998ZM152.428 161.221C153.016 160.954 153.6 160.555 154.038 159.958C154.492 159.338 154.7 158.625 154.7 157.9L150.7 157.9C150.7 157.882 150.703 157.834 150.723 157.769C150.744 157.703 150.776 157.642 150.812 157.592C150.883 157.495 150.918 157.513 150.772 157.579L152.428 161.221ZM154.7 157.9C154.7 156.611 154.081 155.392 153.327 154.338L150.073 156.662C150.345 157.044 150.51 157.344 150.604 157.569C150.65 157.679 150.674 157.762 150.687 157.818C150.7 157.874 150.7 157.9 150.7 157.9L154.7 157.9ZM153.366 154.394L138.766 132.394L135.434 134.606L150.034 156.606L153.366 154.394ZM138.77 132.399C136.825 129.448 135 127.234 133.29 126.123L131.11 129.477C132.067 130.099 133.509 131.685 135.43 134.601L138.77 132.399ZM133.347 126.162C131.596 124.936 129.317 124.348 126.711 124.203L126.489 128.197C128.683 128.319 130.137 128.798 131.053 129.438L133.347 126.162ZM124.6 126.2L124.6 151.4L128.6 151.4L128.6 126.2L124.6 126.2ZM124.6 151.4C124.6 153.966 124.793 156.091 125.314 157.566L129.086 156.234C128.807 155.443 128.6 153.901 128.6 151.4L124.6 151.4ZM125.314 157.566C125.898 159.221 127.044 160.452 128.698 161.073L130.102 157.327C129.623 157.148 129.302 156.845 129.086 156.234L125.314 157.566ZM128.734 161.086C130.147 161.585 132.149 161.861 134.589 161.997L134.811 158.003C132.451 157.872 130.92 157.615 130.066 157.314L128.734 161.086ZM132.7 160L132.7 162L136.7 162L136.7 160L132.7 160ZM134.83 160.004C131.7 159.8 127.416 159.7 122 159.7L122 163.7C127.384 163.7 131.567 163.8 134.57 163.996L134.83 160.004ZM122 159.7C116.257 159.7 111.932 159.8 109.058 160.005L109.342 163.995C112.068 163.8 116.276 163.7 122 163.7L122 159.7ZM111.2 162L111.2 160L107.2 160L107.2 162L111.2 162ZM109.311 161.997C111.74 161.862 113.733 161.586 115.102 161.073L113.698 157.327C112.934 157.614 111.46 157.871 109.089 158.003L109.311 161.997ZM115.066 161.086C116.769 160.485 117.985 159.269 118.586 157.566L114.814 156.234C114.615 156.797 114.297 157.115 113.734 157.314L115.066 161.086ZM118.586 157.566C119.107 156.091 119.3 153.966 119.3 151.4L115.3 151.4C115.3 153.901 115.093 155.443 114.814 156.234L118.586 157.566ZM119.3 151.4L119.3 101.8L115.3 101.8L115.3 151.4L119.3 151.4ZM119.3 101.8C119.3 99.2342 119.107 97.1093 118.586 95.6344L114.814 96.9656C115.093 97.7574 115.3 99.2991 115.3 101.8L119.3 101.8ZM118.586 95.6344C117.985 93.9306 116.769 92.7153 115.066 92.114L113.734 95.886C114.297 96.0847 114.615 96.4027 114.814 96.9656L118.586 95.6344ZM115.102 92.1273C113.733 91.6138 111.74 91.338 109.311 91.2031L109.089 95.1969C111.46 95.3286 112.934 95.5862 113.698 95.8727L115.102 92.1273ZM111.2 93.2L111.2 91.2L107.2 91.2L107.2 93.2L111.2 93.2ZM109.058 93.1949C111.932 93.4002 116.257 93.5 122 93.5L122 89.5C116.276 89.5 112.068 89.3998 109.342 89.2051L109.058 93.1949ZM122 93.5C127.351 93.5 131.633 93.3999 134.827 93.1959L134.573 89.2041C131.501 89.4001 127.316 89.5 122 89.5L122 93.5ZM132.7 91.2L132.7 93.2L136.7 93.2L136.7 91.2L132.7 91.2ZM134.589 91.2031C132.149 91.3386 130.147 91.6154 128.734 92.114L130.066 95.886C130.92 95.5846 132.451 95.328 134.811 95.1969L134.589 91.2031ZM128.698 92.1273C127.044 92.7477 125.898 93.9786 125.314 95.6344L129.086 96.9656C129.302 96.3547 129.623 96.0523 130.102 95.8727L128.698 92.1273ZM125.314 95.6344C124.793 97.1093 124.6 99.2342 124.6 101.8L128.6 101.8C128.6 99.2991 128.807 97.7574 129.086 96.9656L125.314 95.6344ZM124.6 101.8L124.6 124.2L128.6 124.2L128.6 101.8L124.6 101.8ZM126.682 126.198C132.078 125.977 136.452 123.87 139.582 119.824L136.418 117.376C134.081 120.397 130.855 122.023 126.518 122.202L126.682 126.198ZM139.572 119.837L149.172 107.637L146.028 105.163L136.428 117.363L139.572 119.837ZM149.154 107.658C150.9 105.502 152.26 103.542 153.191 101.788C154.107 100.065 154.7 98.3738 154.7 96.8L150.7 96.8C150.7 97.4262 150.443 98.4351 149.659 99.9117C148.89 101.358 147.7 103.098 146.046 105.142L149.154 107.658ZM154.7 96.8C154.7 94.8995 153.786 93.3676 152.154 92.4204C150.682 91.5654 148.724 91.2356 146.532 91.2003L146.468 95.1997C148.41 95.2311 149.552 95.5346 150.146 95.8796C150.581 96.1324 150.7 96.3671 150.7 96.8L154.7 96.8ZM148.5 93.2L148.5 91.2L144.5 91.2L144.5 93.2L148.5 93.2ZM146.395 93.1972C150.23 93.3991 154.099 93.5 158 93.5L158 89.5C154.168 89.5 150.37 89.4009 146.605 89.2028L146.395 93.1972ZM158 93.5C161.689 93.5 164.6 93.4 166.699 93.1901L166.301 89.2099C164.4 89.4 161.645 89.5 158 89.5L158 93.5ZM164.5 91.2L164.5 93.2L168.5 93.2L168.5 91.2L164.5 91.2ZM166.2 91.2226C163.747 91.5942 161.439 92.4138 159.289 93.6746L161.311 97.1254C163.027 96.1196 164.853 95.4724 166.8 95.1774L166.2 91.2226ZM159.334 93.6488C157.095 94.8842 155.031 96.7969 153.116 99.2784L156.284 101.722C157.969 99.5365 159.639 98.0491 161.266 97.1512L159.334 93.6488ZM153.123 99.27L136.823 120.17L139.977 122.63L156.277 101.73L153.123 99.27ZM136.772 122.562L159.972 155.062L163.228 152.738L140.028 120.238L136.772 122.562ZM214.327 115.9L212.849 117.248L212.86 117.259L212.87 117.27L214.327 115.9ZM214.327 156.7L212.87 155.33L212.865 155.336L212.859 155.342L214.327 156.7ZM181.427 156.7L179.959 158.058L179.965 158.064L179.97 158.07L181.427 156.7ZM181.427 115.9L179.96 114.541L179.959 114.542L181.427 115.9ZM188.427 117.3L190.162 118.295L190.169 118.283L188.427 117.3ZM188.427 155.3L186.693 156.295L186.693 156.295L188.427 155.3ZM207.427 155.3L209.162 156.295L207.427 155.3ZM207.427 117.3L205.686 118.283L205.693 118.295L207.427 117.3ZM197.927 111.1C204.233 111.1 209.139 113.177 212.849 117.248L215.805 114.552C211.25 109.556 205.222 107.1 197.927 107.1L197.927 111.1ZM212.87 117.27C216.584 121.219 218.627 127.431 218.627 136.3L222.627 136.3C222.627 126.902 220.471 119.514 215.784 114.53L212.87 117.27ZM218.627 136.3C218.627 145.169 216.584 151.381 212.87 155.33L215.784 158.07C220.471 153.086 222.627 145.698 222.627 136.3L218.627 136.3ZM212.859 155.342C209.151 159.349 204.242 161.4 197.927 161.4L197.927 165.4C205.212 165.4 211.237 162.984 215.795 158.058L212.859 155.342ZM197.927 161.4C191.612 161.4 186.663 159.349 182.884 155.33L179.97 158.07C184.592 162.985 190.642 165.4 197.927 165.4L197.927 161.4ZM182.895 155.342C179.241 151.393 177.227 145.176 177.227 136.3L173.227 136.3C173.227 145.691 175.347 153.074 179.959 158.058L182.895 155.342ZM177.227 136.3C177.227 127.424 179.241 121.207 182.895 117.258L179.959 114.542C175.347 119.526 173.227 126.909 173.227 136.3L177.227 136.3ZM182.894 117.259C186.676 113.178 191.622 111.1 197.927 111.1L197.927 107.1C190.633 107.1 184.579 109.555 179.96 114.541L182.894 117.259ZM197.927 109.1C193.059 109.1 189.295 111.695 186.686 116.317L190.169 118.283C192.226 114.639 194.796 113.1 197.927 113.1L197.927 109.1ZM186.693 116.305C184.094 120.834 182.927 127.598 182.927 136.3L186.927 136.3C186.927 127.802 188.094 121.899 190.162 118.295L186.693 116.305ZM182.927 136.3C182.927 145.002 184.094 151.766 186.693 156.295L190.162 154.305C188.094 150.701 186.927 144.798 186.927 136.3L182.927 136.3ZM186.693 156.295C189.309 160.856 193.075 163.4 197.927 163.4L197.927 159.4C194.779 159.4 192.212 157.877 190.162 154.305L186.693 156.295ZM197.927 163.4C202.779 163.4 206.545 160.856 209.162 156.295L205.693 154.305C203.643 157.877 201.075 159.4 197.927 159.4L197.927 163.4ZM209.162 156.295C211.761 151.766 212.927 145.002 212.927 136.3L208.927 136.3C208.927 144.798 207.761 150.701 205.693 154.305L209.162 156.295ZM212.927 136.3C212.927 127.598 211.761 120.834 209.162 116.305L205.693 118.295C207.761 121.899 208.927 127.802 208.927 136.3L212.927 136.3ZM209.169 116.317C206.56 111.695 202.796 109.1 197.927 109.1L197.927 113.1C201.059 113.1 203.628 114.639 205.686 118.283L209.169 116.317ZM232.213 159.6L230.753 160.968L230.775 160.991L230.798 161.014L232.213 159.6ZM231.613 143.4L230.098 142.094L230.085 142.109L230.072 142.125L231.613 143.4ZM237.413 138.8L236.518 137.011L236.507 137.017L236.497 137.022L237.413 138.8ZM246.313 135.2L245.67 133.306L245.659 133.31L246.313 135.2ZM254.813 113.3L253.461 114.774L253.493 114.804L253.526 114.831L254.813 113.3ZM238.113 114.7L236.555 113.445L234.592 115.882L237.627 116.64L238.113 114.7ZM241.413 116.8L239.86 118.061L239.883 118.09L239.907 118.117L241.413 116.8ZM241.213 124.8L242.53 126.305L242.555 126.283L242.58 126.259L241.213 124.8ZM232.913 124.5L231.334 125.728L231.351 125.75L231.369 125.771L232.913 124.5ZM232.613 116.2L231.013 115L230.988 115.033L230.964 115.067L232.613 116.2ZM236.113 113L237.255 114.642L237.262 114.637L237.269 114.632L236.113 113ZM242.213 110.2L242.782 112.117L242.782 112.117L242.213 110.2ZM262.113 112.8L260.754 114.268L260.758 114.272L262.113 112.8ZM265.413 118.4L263.469 118.871L263.477 118.907L263.487 118.941L265.413 118.4ZM271.613 158.9L272.507 160.689L272.539 160.673L272.57 160.656L271.613 158.9ZM273.913 157.3L275.592 156.213L274.366 154.319L272.632 155.764L273.913 157.3ZM275.013 159L276.232 160.585L277.693 159.461L276.692 157.913L275.013 159ZM270.513 161.9L271.325 163.728L271.347 163.718L271.369 163.707L270.513 161.9ZM259.213 160.3L260.781 159.059L259.213 160.3ZM257.313 153.8L259.313 153.8L259.313 146.579L255.598 152.771L257.313 153.8ZM250.413 160.8L251.288 162.598L251.307 162.589L251.325 162.58L250.413 160.8ZM257.313 151.1L259.014 152.152L259.313 151.668L259.313 151.1L257.313 151.1ZM257.313 131.5L259.313 131.5L259.313 124.69L255.63 130.418L257.313 131.5ZM249.913 136.2L250.689 138.043L250.715 138.032L250.74 138.021L249.913 136.2ZM243.713 139.3L244.752 141.008L244.762 141.002L244.773 140.996L243.713 139.3ZM240.213 156.4L238.767 157.782L240.213 156.4ZM241.613 160.7C237.71 160.7 235.181 159.74 233.627 158.186L230.798 161.014C233.378 163.594 237.115 164.7 241.613 164.7L241.613 160.7ZM233.672 158.232C232.108 156.564 231.213 154.171 231.213 150.8L227.213 150.8C227.213 154.895 228.317 158.37 230.753 160.968L233.672 158.232ZM231.213 150.8C231.213 148.171 231.905 146.183 233.153 144.675L230.072 142.125C228.12 144.484 227.213 147.429 227.213 150.8L231.213 150.8ZM233.127 144.706C234.632 142.961 236.364 141.59 238.328 140.578L236.497 137.022C234.061 138.277 231.926 139.973 230.098 142.094L233.127 144.706ZM238.307 140.589C240.466 139.509 243.343 138.342 246.966 137.09L245.659 133.31C241.949 134.592 238.892 135.824 236.518 137.011L238.307 140.589ZM246.955 137.094C250.726 135.814 253.65 134.595 255.632 133.421L253.593 129.979C251.975 130.938 249.365 132.052 245.67 133.306L246.955 137.094ZM255.632 133.421C257.923 132.063 259.313 130.033 259.313 127.4L255.313 127.4C255.313 128.367 254.902 129.203 253.593 129.979L255.632 133.421ZM259.313 127.4L259.313 121.2L255.313 121.2L255.313 127.4L259.313 127.4ZM259.313 121.2C259.313 117.176 258.469 113.759 256.099 111.769L253.526 114.831C254.49 115.641 255.313 117.491 255.313 121.2L259.313 121.2ZM256.164 111.826C254.082 109.917 251.268 109.1 248.013 109.1L248.013 113.1C250.624 113.1 252.343 113.75 253.461 114.774L256.164 111.826ZM248.013 109.1C243.058 109.1 239.03 110.373 236.555 113.445L239.67 115.955C241.061 114.227 243.634 113.1 248.013 113.1L248.013 109.1ZM237.627 116.64C238.541 116.869 239.266 117.33 239.86 118.061L242.965 115.539C241.825 114.136 240.351 113.198 238.598 112.76L237.627 116.64ZM239.907 118.117C240.48 118.772 240.813 119.618 240.813 120.8L244.813 120.8C244.813 118.782 244.211 116.962 242.918 115.483L239.907 118.117ZM240.813 120.8C240.813 121.999 240.45 122.773 239.845 123.341L242.58 126.259C244.108 124.827 244.813 122.935 244.813 120.8L240.813 120.8ZM239.895 123.295C239.256 123.855 238.385 124.2 237.113 124.2L237.113 128.2C239.174 128.2 241.036 127.612 242.53 126.305L239.895 123.295ZM237.113 124.2C235.668 124.2 234.911 123.78 234.456 123.229L231.369 125.771C232.781 127.487 234.824 128.2 237.113 128.2L237.113 124.2ZM234.491 123.272C233.858 122.457 233.513 121.467 233.513 120.2L229.513 120.2C229.513 122.266 230.101 124.143 231.334 125.728L234.491 123.272ZM233.513 120.2C233.513 118.908 233.806 117.995 234.261 117.333L230.964 115.067C229.953 116.538 229.513 118.292 229.513 120.2L233.513 120.2ZM234.213 117.4C234.844 116.557 235.832 115.632 237.255 114.642L234.97 111.358C233.326 112.502 231.981 113.709 231.013 115L234.213 117.4ZM237.269 114.632C238.644 113.658 240.464 112.806 242.782 112.117L241.643 108.283C239.028 109.06 236.781 110.076 234.956 111.368L237.269 114.632ZM242.782 112.117C245.04 111.446 247.546 111.1 250.313 111.1L250.313 107.1C247.213 107.1 244.318 107.488 241.643 108.283L242.782 112.117ZM250.313 111.1C255.225 111.1 258.59 112.266 260.754 114.268L263.471 111.332C260.301 108.4 255.8 107.1 250.313 107.1L250.313 111.1ZM260.758 114.272C262.134 115.537 263.029 117.056 263.469 118.871L267.356 117.929C266.73 115.344 265.424 113.129 263.467 111.328L260.758 114.272ZM263.487 118.941C264.017 120.826 264.313 123.455 264.313 126.9L268.313 126.9C268.313 123.278 268.008 120.241 267.338 117.859L263.487 118.941ZM264.313 126.9L264.313 154.7L268.313 154.7L268.313 126.9L264.313 126.9ZM264.313 154.7C264.313 156.454 264.54 158.139 265.325 159.374L268.7 157.226C268.552 156.994 268.313 156.279 268.313 154.7L264.313 154.7ZM265.325 159.374C266.269 160.857 267.829 161.4 269.413 161.4L269.413 157.4C269.054 157.4 268.871 157.341 268.796 157.307C268.742 157.282 268.723 157.263 268.7 157.226L265.325 159.374ZM269.413 161.4C270.5 161.4 271.542 161.171 272.507 160.689L270.718 157.111C270.349 157.296 269.925 157.4 269.413 157.4L269.413 161.4ZM272.57 160.656C273.442 160.18 274.316 159.567 275.193 158.836L272.632 155.764C271.909 156.366 271.25 156.82 270.655 157.144L272.57 160.656ZM272.233 158.386L273.333 160.086L276.692 157.913L275.592 156.213L272.233 158.386ZM273.793 157.415C272.117 158.704 270.744 159.577 269.656 160.093L271.369 163.707C272.815 163.023 274.441 161.963 276.232 160.585L273.793 157.415ZM269.7 160.072C268.84 160.455 267.609 160.7 265.913 160.7L265.913 164.7C267.95 164.7 269.785 164.412 271.325 163.728L269.7 160.072ZM265.913 160.7C262.974 160.7 261.494 159.96 260.781 159.059L257.644 161.541C259.464 163.84 262.451 164.7 265.913 164.7L265.913 160.7ZM260.781 159.059C259.876 157.915 259.313 156.235 259.313 153.8L255.313 153.8C255.313 156.831 256.016 159.485 257.644 161.541L260.781 159.059ZM255.598 152.771C253.728 155.887 251.675 157.905 249.5 159.02L251.325 162.58C254.35 161.028 256.897 158.379 259.027 154.829L255.598 152.771ZM249.537 159.002C247.243 160.119 244.615 160.7 241.613 160.7L241.613 164.7C245.143 164.7 248.382 164.014 251.288 162.598L249.537 159.002ZM246.013 160.7C251.341 160.7 255.66 157.575 259.014 152.152L255.611 150.048C252.698 154.758 249.484 156.7 246.013 156.7L246.013 160.7ZM259.313 151.1L259.313 131.5L255.313 131.5L255.313 151.1L259.313 151.1ZM255.63 130.418C255.224 131.05 254.644 131.6 253.832 132.057L255.793 135.543C257.114 134.8 258.201 133.817 258.995 132.582L255.63 130.418ZM253.832 132.057C252.842 132.613 251.273 133.385 249.085 134.379L250.74 138.021C252.952 137.015 254.649 136.187 255.793 135.543L253.832 132.057ZM249.136 134.357C246.545 135.448 244.374 136.528 242.653 137.604L244.773 140.996C246.251 140.072 248.214 139.085 250.689 138.043L249.136 134.357ZM242.673 137.592C240.867 138.691 239.333 140.202 238.059 142.075L241.366 144.325C242.359 142.865 243.491 141.776 244.752 141.008L242.673 137.592ZM238.059 142.075C236.643 144.158 236.013 146.714 236.013 149.6L240.013 149.6C240.013 147.286 240.516 145.575 241.366 144.325L238.059 142.075ZM236.013 149.6C236.013 152.901 236.82 155.747 238.767 157.782L241.658 155.018C240.672 153.987 240.013 152.299 240.013 149.6L236.013 149.6ZM238.767 157.782C240.662 159.764 243.145 160.7 246.013 160.7L246.013 156.7C244.08 156.7 242.696 156.103 241.658 155.018L238.767 157.782ZM295.617 158.4L294.246 159.856L294.27 159.878L294.294 159.9L295.617 158.4ZM301.517 159.9L303.517 159.9L303.517 157.9L301.517 157.9L301.517 159.9ZM301.517 162L301.43 163.998L303.517 164.089L303.517 162L301.517 162ZM277.317 162L275.317 162L275.317 164.089L277.404 163.998L277.317 162ZM277.317 159.9L277.317 157.9L275.317 157.9L275.317 159.9L277.317 159.9ZM283.217 158.4L284.54 159.9L284.565 159.878L284.588 159.856L283.217 158.4ZM283.217 88.9L281.663 90.1584L281.663 90.1584L283.217 88.9ZM277.317 86.8L275.317 86.8L275.317 88.8L277.317 88.8L277.317 86.8ZM277.317 84.7L277.51 82.7093L275.317 82.4971L275.317 84.7L277.317 84.7ZM293.917 83.6L295.917 83.6L295.917 80.8037L293.271 81.7073L293.917 83.6ZM291.917 152.7C291.917 155.596 292.497 158.209 294.246 159.856L296.988 156.944C296.471 156.457 295.917 155.271 295.917 152.7L291.917 152.7ZM294.294 159.9C295.997 161.402 298.598 161.9 301.517 161.9L301.517 157.9C298.837 157.9 297.504 157.398 296.94 156.9L294.294 159.9ZM299.517 159.9L299.517 162L303.517 162L303.517 159.9L299.517 159.9ZM301.604 160.002C295.48 159.736 291.402 159.6 289.417 159.6L289.417 163.6C291.299 163.6 295.288 163.731 301.43 163.998L301.604 160.002ZM289.417 159.6C287.433 159.6 283.355 159.736 277.23 160.002L277.404 163.998C283.546 163.731 287.535 163.6 289.417 163.6L289.417 159.6ZM279.317 162L279.317 159.9L275.317 159.9L275.317 162L279.317 162ZM277.317 161.9C280.237 161.9 282.837 161.402 284.54 159.9L281.894 156.9C281.33 157.398 279.998 157.9 277.317 157.9L277.317 161.9ZM284.588 159.856C286.338 158.209 286.917 155.596 286.917 152.7L282.917 152.7C282.917 155.271 282.363 156.457 281.846 156.944L284.588 159.856ZM286.917 152.7L286.917 95.6L282.917 95.6L282.917 152.7L286.917 152.7ZM286.917 95.6C286.917 92.3681 286.335 89.573 284.772 87.6416L281.663 90.1584C282.366 91.027 282.917 92.6986 282.917 95.6L286.917 95.6ZM284.772 87.6416C283.088 85.5616 280.383 84.8 277.317 84.8L277.317 88.8C279.851 88.8 281.08 89.4384 281.663 90.1584L284.772 87.6416ZM279.317 86.8L279.317 84.7L275.317 84.7L275.317 86.8L279.317 86.8ZM277.125 86.6907C279.255 86.8969 281.386 87 283.517 87L283.517 83C281.515 83 279.513 82.9031 277.51 82.7093L277.125 86.6907ZM283.517 87C287.846 87 291.551 86.5214 294.563 85.4927L293.271 81.7073C290.817 82.5452 287.588 83 283.517 83L283.517 87ZM291.917 83.6L291.917 152.7L295.917 152.7L295.917 83.6L291.917 83.6ZM310.63 159.6L309.171 160.968L309.193 160.991L309.216 161.014L310.63 159.6ZM310.03 143.4L308.516 142.094L308.503 142.109L308.49 142.125L310.03 143.4ZM315.83 138.8L314.936 137.011L314.925 137.017L314.915 137.022L315.83 138.8ZM324.73 135.2L324.088 133.306L324.077 133.31L324.73 135.2ZM333.23 113.3L331.879 114.774L331.911 114.804L331.944 114.831L333.23 113.3ZM316.53 114.7L314.973 113.445L313.01 115.882L316.045 116.64L316.53 114.7ZM319.83 116.8L318.278 118.061L318.301 118.09L318.325 118.117L319.83 116.8ZM319.63 124.8L320.947 126.305L320.973 126.283L320.998 126.259L319.63 124.8ZM311.33 124.5L309.752 125.728L309.769 125.75L309.787 125.771L311.33 124.5ZM311.03 116.2L309.43 115L309.406 115.033L309.382 115.067L311.03 116.2ZM314.53 113L315.673 114.642L315.68 114.637L315.687 114.632L314.53 113ZM320.63 110.2L321.2 112.117L321.2 112.117L320.63 110.2ZM340.53 112.8L339.172 114.268L339.176 114.272L340.53 112.8ZM343.83 118.4L341.887 118.871L341.895 118.907L341.905 118.941L343.83 118.4ZM350.03 158.9L350.925 160.689L350.957 160.673L350.988 160.656L350.03 158.9ZM352.33 157.3L354.01 156.213L352.784 154.319L351.05 155.764L352.33 157.3ZM353.43 159L354.65 160.585L356.111 159.461L355.11 157.913L353.43 159ZM348.93 161.9L349.743 163.728L349.765 163.718L349.787 163.707L348.93 161.9ZM337.63 160.3L339.199 159.059L337.63 160.3ZM335.73 153.8L337.73 153.8L337.73 146.579L334.015 152.771L335.73 153.8ZM328.83 160.8L329.706 162.598L329.725 162.589L329.743 162.58L328.83 160.8ZM335.73 151.1L337.431 152.152L337.73 151.668L337.73 151.1L335.73 151.1ZM335.73 131.5L337.73 131.5L337.73 124.69L334.048 130.418L335.73 131.5ZM328.33 136.2L329.107 138.043L329.132 138.032L329.158 138.021L328.33 136.2ZM322.13 139.3L323.17 141.008L323.18 141.002L323.19 140.996L322.13 139.3ZM318.63 156.4L317.185 157.782L318.63 156.4ZM320.03 160.7C316.128 160.7 313.599 159.74 312.045 158.186L309.216 161.014C311.796 163.594 315.533 164.7 320.03 164.7L320.03 160.7ZM312.09 158.232C310.525 156.564 309.63 154.171 309.63 150.8L305.63 150.8C305.63 154.895 306.735 158.37 309.171 160.968L312.09 158.232ZM309.63 150.8C309.63 148.171 310.323 146.183 311.571 144.675L308.49 142.125C306.538 144.484 305.63 147.429 305.63 150.8L309.63 150.8ZM311.545 144.706C313.05 142.961 314.782 141.59 316.746 140.578L314.915 137.022C312.479 138.277 310.344 139.973 308.516 142.094L311.545 144.706ZM316.725 140.589C318.884 139.509 321.761 138.342 325.384 137.09L324.077 133.31C320.367 134.592 317.31 135.824 314.936 137.011L316.725 140.589ZM325.373 137.094C329.144 135.814 332.068 134.595 334.05 133.421L332.011 129.979C330.393 130.938 327.783 132.052 324.088 133.306L325.373 137.094ZM334.05 133.421C336.341 132.063 337.73 130.033 337.73 127.4L333.73 127.4C333.73 128.367 333.32 129.203 332.011 129.979L334.05 133.421ZM337.73 127.4L337.73 121.2L333.73 121.2L333.73 127.4L337.73 127.4ZM337.73 121.2C337.73 117.176 336.886 113.759 334.517 111.769L331.944 114.831C332.908 115.641 333.73 117.491 333.73 121.2L337.73 121.2ZM334.582 111.826C332.5 109.917 329.686 109.1 326.43 109.1L326.43 113.1C329.042 113.1 330.761 113.75 331.879 114.774L334.582 111.826ZM326.43 109.1C321.476 109.1 317.448 110.373 314.973 113.445L318.088 115.955C319.479 114.227 322.052 113.1 326.43 113.1L326.43 109.1ZM316.045 116.64C316.959 116.869 317.684 117.33 318.278 118.061L321.383 115.539C320.243 114.136 318.769 113.198 317.016 112.76L316.045 116.64ZM318.325 118.117C318.898 118.772 319.23 119.618 319.23 120.8L323.23 120.8C323.23 118.782 322.629 116.962 321.336 115.483L318.325 118.117ZM319.23 120.8C319.23 121.999 318.868 122.773 318.263 123.341L320.998 126.259C322.526 124.827 323.23 122.935 323.23 120.8L319.23 120.8ZM318.313 123.295C317.674 123.855 316.803 124.2 315.53 124.2L315.53 128.2C317.592 128.2 319.454 127.612 320.947 126.305L318.313 123.295ZM315.53 124.2C314.086 124.2 313.329 123.78 312.874 123.229L309.787 125.771C311.199 127.487 313.242 128.2 315.53 128.2L315.53 124.2ZM312.909 123.272C312.276 122.457 311.93 121.467 311.93 120.2L307.93 120.2C307.93 122.266 308.519 124.143 309.752 125.728L312.909 123.272ZM311.93 120.2C311.93 118.908 312.224 117.995 312.679 117.333L309.382 115.067C308.371 116.538 307.93 118.292 307.93 120.2L311.93 120.2ZM312.63 117.4C313.262 116.557 314.25 115.632 315.673 114.642L313.388 111.358C311.744 112.502 310.398 113.709 309.43 115L312.63 117.4ZM315.687 114.632C317.062 113.658 318.882 112.806 321.2 112.117L320.061 108.283C317.446 109.06 315.199 110.076 313.374 111.368L315.687 114.632ZM321.2 112.117C323.458 111.446 325.964 111.1 328.73 111.1L328.73 107.1C325.631 107.1 322.736 107.488 320.061 108.283L321.2 112.117ZM328.73 111.1C333.643 111.1 337.008 112.266 339.172 114.268L341.889 111.332C338.719 108.4 334.218 107.1 328.73 107.1L328.73 111.1ZM339.176 114.272C340.552 115.537 341.447 117.056 341.887 118.871L345.774 117.929C345.148 115.344 343.842 113.129 341.885 111.328L339.176 114.272ZM341.905 118.941C342.435 120.826 342.73 123.455 342.73 126.9L346.73 126.9C346.73 123.278 346.426 120.241 345.756 117.859L341.905 118.941ZM342.73 126.9L342.73 154.7L346.73 154.7L346.73 126.9L342.73 126.9ZM342.73 154.7C342.73 156.454 342.958 158.139 343.743 159.374L347.118 157.226C346.97 156.994 346.73 156.279 346.73 154.7L342.73 154.7ZM343.743 159.374C344.687 160.857 346.247 161.4 347.83 161.4L347.83 157.4C347.472 157.4 347.288 157.341 347.214 157.307C347.16 157.282 347.141 157.263 347.118 157.226L343.743 159.374ZM347.83 161.4C348.918 161.4 349.96 161.171 350.925 160.689L349.136 157.111C348.767 157.296 348.343 157.4 347.83 157.4L347.83 161.4ZM350.988 160.656C351.86 160.18 352.734 159.567 353.611 158.836L351.05 155.764C350.327 156.366 349.668 156.82 349.073 157.144L350.988 160.656ZM350.651 158.386L351.751 160.086L355.11 157.913L354.01 156.213L350.651 158.386ZM352.211 157.415C350.535 158.704 349.162 159.577 348.074 160.093L349.787 163.707C351.233 163.023 352.859 161.963 354.65 160.585L352.211 157.415ZM348.118 160.072C347.258 160.455 346.027 160.7 344.33 160.7L344.33 164.7C346.368 164.7 348.203 164.412 349.743 163.728L348.118 160.072ZM344.33 160.7C341.392 160.7 339.912 159.96 339.199 159.059L336.062 161.541C337.882 163.84 340.869 164.7 344.33 164.7L344.33 160.7ZM339.199 159.059C338.294 157.915 337.73 156.235 337.73 153.8L333.73 153.8C333.73 156.831 334.434 159.485 336.062 161.541L339.199 159.059ZM334.015 152.771C332.146 155.887 330.093 157.905 327.918 159.02L329.743 162.58C332.768 161.028 335.315 158.379 337.445 154.829L334.015 152.771ZM327.955 159.002C325.661 160.119 323.033 160.7 320.03 160.7L320.03 164.7C323.561 164.7 326.8 164.014 329.706 162.598L327.955 159.002ZM324.43 160.7C329.759 160.7 334.078 157.575 337.431 152.152L334.029 150.048C331.116 154.758 327.902 156.7 324.43 156.7L324.43 160.7ZM337.73 151.1L337.73 131.5L333.73 131.5L333.73 151.1L337.73 151.1ZM334.048 130.418C333.642 131.05 333.062 131.6 332.25 132.057L334.211 135.543C335.532 134.8 336.619 133.817 337.413 132.582L334.048 130.418ZM332.25 132.057C331.26 132.613 329.691 133.385 327.503 134.379L329.158 138.021C331.37 137.015 333.067 136.187 334.211 135.543L332.25 132.057ZM327.554 134.357C324.963 135.448 322.792 136.528 321.07 137.604L323.19 140.996C324.669 140.072 326.631 139.085 329.107 138.043L327.554 134.357ZM321.091 137.592C319.285 138.691 317.751 140.202 316.477 142.075L319.784 144.325C320.777 142.865 321.909 141.776 323.17 141.008L321.091 137.592ZM316.477 142.075C315.061 144.158 314.43 146.714 314.43 149.6L318.43 149.6C318.43 147.286 318.934 145.575 319.784 144.325L316.477 142.075ZM314.43 149.6C314.43 152.901 315.238 155.747 317.185 157.782L320.076 155.018C319.09 153.987 318.43 152.299 318.43 149.6L314.43 149.6ZM317.185 157.782C319.08 159.764 321.563 160.7 324.43 160.7L324.43 156.7C322.498 156.7 321.114 156.103 320.076 155.018L317.185 157.782Z" fill="#A1A3D4"/>
<path d="M158.6 151.9C159.733 153.567 160.967 154.9 162.3 155.9C163.7 156.833 165.4 157.533 167.4 158L167.4 160C164.2 159.8 160.2 159.7 155.4 159.7C151.8 159.7 148.367 159.8 145.1 160L145.1 158C146.7 157.933 147.867 157.733 148.6 157.4C149.333 157.067 149.7 156.567 149.7 155.9C149.7 155.233 149.367 154.433 148.7 153.5L134.1 131.5C132.167 128.567 130.533 126.667 129.2 125.8C127.867 124.867 126 124.333 123.6 124.2L123.6 149.4C123.6 151.933 123.8 153.767 124.2 154.9C124.6 156.033 125.333 156.8 126.4 157.2C127.533 157.6 129.3 157.867 131.7 158L131.7 160C128.633 159.8 124.4 159.7 119 159.7C113.267 159.7 109 159.8 106.2 160L106.2 158C108.6 157.867 110.333 157.6 111.4 157.2C112.533 156.8 113.3 156.033 113.7 154.9C114.1 153.767 114.3 151.933 114.3 149.4L114.3 99.8C114.3 97.2667 114.1 95.4333 113.7 94.3C113.3 93.1667 112.533 92.4 111.4 92C110.333 91.6 108.6 91.3333 106.2 91.2L106.2 89.2C109 89.4 113.267 89.5 119 89.5C124.333 89.5 128.567 89.4 131.7 89.2L131.7 91.2C129.3 91.3333 127.533 91.6 126.4 92C125.333 92.4 124.6 93.1667 124.2 94.3C123.8 95.4333 123.6 97.2667 123.6 99.8L123.6 122.2C128.467 122 132.267 120.133 135 116.6L144.6 104.4C148 100.2 149.7 97 149.7 94.8C149.7 92.4667 147.633 91.2667 143.5 91.2L143.5 89.2C147.3 89.4 151.133 89.5 155 89.5C158.667 89.5 161.5 89.4 163.5 89.2L163.5 91.2C161.3 91.5333 159.233 92.2667 157.3 93.4C155.367 94.4667 153.5 96.1667 151.7 98.5L135.4 119.4L158.6 151.9ZM194.927 107.1C201.727 107.1 207.194 109.367 211.327 113.9C215.527 118.367 217.627 125.167 217.627 134.3C217.627 143.433 215.527 150.233 211.327 154.7C207.194 159.167 201.727 161.4 194.927 161.4C188.127 161.4 182.627 159.167 178.427 154.7C174.294 150.233 172.227 143.433 172.227 134.3C172.227 125.167 174.294 118.367 178.427 113.9C182.627 109.367 188.127 107.1 194.927 107.1ZM194.927 109.1C190.927 109.1 187.761 111.167 185.427 115.3C183.094 119.367 181.927 125.7 181.927 134.3C181.927 142.9 183.094 149.233 185.427 153.3C187.761 157.367 190.927 159.4 194.927 159.4C198.927 159.4 202.094 157.367 204.427 153.3C206.761 149.233 207.927 142.9 207.927 134.3C207.927 125.7 206.761 119.367 204.427 115.3C202.094 111.167 198.927 109.1 194.927 109.1ZM238.613 160.7C234.413 160.7 231.279 159.667 229.213 157.6C227.213 155.467 226.213 152.533 226.213 148.8C226.213 145.8 227.013 143.333 228.613 141.4C230.279 139.467 232.213 137.933 234.413 136.8C236.679 135.667 239.646 134.467 243.313 133.2C247.046 131.933 249.813 130.767 251.613 129.7C253.413 128.633 254.313 127.2 254.313 125.4L254.313 119.2C254.313 115.333 253.479 112.7 251.813 111.3C250.213 109.833 247.946 109.1 245.013 109.1C240.346 109.1 237.046 110.3 235.113 112.7C236.446 113.033 237.546 113.733 238.413 114.8C239.346 115.867 239.813 117.2 239.813 118.8C239.813 120.467 239.279 121.8 238.213 122.8C237.146 123.733 235.779 124.2 234.113 124.2C232.246 124.2 230.846 123.633 229.913 122.5C228.979 121.3 228.513 119.867 228.513 118.2C228.513 116.6 228.879 115.267 229.613 114.2C230.413 113.133 231.579 112.067 233.113 111C234.713 109.867 236.746 108.933 239.213 108.2C241.679 107.467 244.379 107.1 247.313 107.1C252.513 107.1 256.446 108.333 259.113 110.8C260.779 112.333 261.879 114.2 262.413 116.4C263.013 118.533 263.313 121.367 263.313 124.9L263.313 152.7C263.313 154.367 263.546 155.567 264.013 156.3C264.479 157.033 265.279 157.4 266.413 157.4C267.213 157.4 267.946 157.233 268.613 156.9C269.346 156.5 270.113 155.967 270.913 155.3L272.013 157C270.279 158.333 268.779 159.3 267.513 159.9C266.313 160.433 264.779 160.7 262.913 160.7C259.713 160.7 257.479 159.9 256.213 158.3C254.946 156.7 254.313 154.533 254.313 151.8C252.313 155.133 250.013 157.467 247.413 158.8C244.813 160.067 241.879 160.7 238.613 160.7ZM243.013 156.7C247.413 156.7 251.179 154.167 254.313 149.1L254.313 129.5C253.713 130.433 252.879 131.2 251.813 131.8C250.746 132.4 249.113 133.2 246.913 134.2C244.379 135.267 242.313 136.3 240.713 137.3C239.179 138.233 237.846 139.533 236.713 141.2C235.579 142.867 235.013 145 235.013 147.6C235.013 150.6 235.746 152.867 237.213 154.4C238.679 155.933 240.613 156.7 243.013 156.7ZM290.917 150.7C290.917 153.433 291.484 155.333 292.617 156.4C293.751 157.4 295.717 157.9 298.517 157.9L298.517 160C292.384 159.733 288.351 159.6 286.417 159.6C284.484 159.6 280.451 159.733 274.317 160L274.317 157.9C277.117 157.9 279.084 157.4 280.217 156.4C281.351 155.333 281.917 153.433 281.917 150.7L281.917 93.6C281.917 90.5333 281.351 88.3 280.217 86.9C279.084 85.5 277.117 84.8 274.317 84.8L274.317 82.7C276.384 82.9 278.451 83 280.517 83C284.717 83 288.184 82.5333 290.917 81.6L290.917 150.7ZM317.03 160.7C312.83 160.7 309.697 159.667 307.63 157.6C305.63 155.467 304.63 152.533 304.63 148.8C304.63 145.8 305.43 143.333 307.03 141.4C308.697 139.467 310.63 137.933 312.83 136.8C315.097 135.667 318.064 134.467 321.73 133.2C325.464 131.933 328.23 130.767 330.03 129.7C331.83 128.633 332.73 127.2 332.73 125.4L332.73 119.2C332.73 115.333 331.897 112.7 330.23 111.3C328.63 109.833 326.364 109.1 323.43 109.1C318.764 109.1 315.464 110.3 313.53 112.7C314.864 113.033 315.964 113.733 316.83 114.8C317.764 115.867 318.23 117.2 318.23 118.8C318.23 120.467 317.697 121.8 316.63 122.8C315.564 123.733 314.197 124.2 312.53 124.2C310.664 124.2 309.264 123.633 308.33 122.5C307.397 121.3 306.93 119.867 306.93 118.2C306.93 116.6 307.297 115.267 308.03 114.2C308.83 113.133 309.997 112.067 311.53 111C313.13 109.867 315.164 108.933 317.63 108.2C320.097 107.467 322.797 107.1 325.73 107.1C330.93 107.1 334.864 108.333 337.53 110.8C339.197 112.333 340.297 114.2 340.83 116.4C341.43 118.533 341.73 121.367 341.73 124.9L341.73 152.7C341.73 154.367 341.964 155.567 342.43 156.3C342.897 157.033 343.697 157.4 344.83 157.4C345.63 157.4 346.364 157.233 347.03 156.9C347.764 156.5 348.53 155.967 349.33 155.3L350.43 157C348.697 158.333 347.197 159.3 345.93 159.9C344.73 160.433 343.197 160.7 341.33 160.7C338.13 160.7 335.897 159.9 334.63 158.3C333.364 156.7 332.73 154.533 332.73 151.8C330.73 155.133 328.43 157.467 325.83 158.8C323.23 160.067 320.297 160.7 317.03 160.7ZM321.43 156.7C325.83 156.7 329.597 154.167 332.73 149.1L332.73 129.5C332.13 130.433 331.297 131.2 330.23 131.8C329.164 132.4 327.53 133.2 325.33 134.2C322.797 135.267 320.73 136.3 319.13 137.3C317.597 138.233 316.264 139.533 315.13 141.2C313.997 142.867 313.43 145 313.43 147.6C313.43 150.6 314.164 152.867 315.63 154.4C317.097 155.933 319.03 156.7 321.43 156.7Z" fill="#4A608C"/>
</svg>
