<svg width="356" height="238" viewBox="0 0 356 238" fill="none" xmlns="http://www.w3.org/2000/svg">
<path d="M137.934 210.468C137.942 210.424 137.966 210.392 137.973 210.348C138.243 209.684 138.28 208.973 138.432 208.272C138.518 207.892 138.627 207.479 138.669 207.092C138.769 206.23 138.787 205.383 138.761 204.528C138.519 198.698 134.14 194.239 129.796 191.084C123.755 186.623 116.868 183.219 110.299 179.481C105.161 176.586 99.9882 173.64 94.0421 172.641C87.9387 171.626 81.2921 173.461 75.5461 175.68C73.3263 175.617 71.0598 175.717 68.782 176.029C68.7113 176.027 68.6761 176.075 68.6408 176.123C68.5346 176.071 68.4402 176.002 68.334 175.95C68.1649 175.851 68.0624 175.728 67.9717 175.588C72.9241 174.981 77.88 174.204 82.5895 172.215C92.1379 168.16 99.8362 160.868 107.015 153.199C107.031 153.21 107.031 153.21 107.047 153.222C110.434 153.863 113.646 153.196 116.668 151.9C119.722 150.626 122.601 148.734 125.299 146.858C127.158 145.603 128.998 144.406 130.908 143.311C131.869 142.755 132.823 142.243 133.823 141.765C134.828 141.314 135.864 140.887 136.92 140.498C138.996 139.769 141.097 139.204 143.225 138.734C145.373 138.302 147.533 137.953 149.657 137.554C156.89 136.267 163.711 134.754 170.042 130.747C171.713 129.65 173.352 128.53 174.972 127.37C176.603 126.195 178.207 125.024 179.839 123.849C181.482 122.657 183.165 121.642 184.926 120.684C186.625 119.779 188.395 118.975 190.275 118.349C190.303 118.344 190.33 118.34 190.342 118.324C190.397 118.314 190.448 118.278 190.503 118.269C191.323 118.004 189.906 116.679 189.756 116.325C189.258 115.029 188.391 113.809 187.457 112.811C186.102 111.336 184.442 110.179 182.676 109.265C182.66 109.253 182.644 109.242 182.629 109.231C180.819 108.31 178.81 107.564 176.762 107.035C174.734 106.546 172.643 106.207 170.643 106.009C165.46 105.416 160.212 105.538 154.932 105.44C152.193 105.394 149.522 105.421 146.78 105.544C145.425 105.617 144.046 105.722 142.68 105.909C141.313 106.097 139.99 106.39 138.635 106.758C136.064 107.472 133.615 108.644 131.34 110.04C129.085 111.476 126.944 113.117 124.908 114.712C122.858 116.296 120.889 117.964 118.984 119.678C117.111 121.415 115.288 123.214 113.796 125.253C111.168 128.778 109.791 132.867 108.823 136.958C107.586 142.206 106.358 147.706 105.946 153.013C98.9159 160.446 91.4996 167.352 82.1756 171.595C77.5253 173.7 72.6363 174.55 67.7034 175.098C67.5357 173.944 68.3801 172.197 68.6332 171.225L69.3808 168.424C75.5568 168.583 80.7801 166.254 85.646 162.339C87.9908 160.452 90.5353 158.293 92.8356 155.907C95.1085 153.526 97.1491 150.902 98.4467 148.107C101.378 141.729 100.289 134.62 99.8289 127.967C99.2715 119.867 98.4195 111.774 97.5558 103.698C97.5396 103.489 97.3427 103.297 97.103 103.295C95.1272 103.36 93.2185 103.596 91.3572 103.966C89.4803 104.323 87.639 104.83 85.8412 105.442C82.2614 106.678 78.9655 108.414 75.922 110.531C72.9493 112.65 70.3035 115.178 68.0278 118.025C65.8346 120.857 64.0231 123.992 62.6994 127.382C61.1572 131.4 60.2793 135.631 59.3228 139.804C58.4283 143.629 57.7852 147.44 57.9752 151.364C58.3019 158.264 62.372 164.957 68.3275 168.25L66.4662 175.208C65.1623 175.343 63.8701 175.461 62.5661 175.596C59.6754 175.857 56.6984 176.202 53.8283 176.896C50.9543 177.562 48.2068 178.616 45.7988 180.358C45.6576 180.452 45.8035 180.681 45.9605 180.598C52.3402 177.217 59.3472 176.602 66.3812 175.785C66.4011 175.923 66.4761 176.051 66.602 176.142C70.9935 179.233 76.3897 180.227 81.3284 182.142C84.2224 183.26 86.7288 184.908 88.6595 187.343C91.0827 190.357 92.2905 194.405 93.9212 197.876C99.0345 208.842 107.415 219.33 120.037 220.826C123.389 221.22 126.837 220.626 129.886 219.128C132.829 217.676 135.345 215.324 136.91 212.428C137.364 211.774 137.677 211.116 137.934 210.468ZM180.946 122.072C178.036 124.039 175.256 126.224 172.432 128.206C170.659 129.475 168.894 130.602 167.07 131.515C165.276 132.45 163.408 133.158 161.524 133.855C159.652 134.536 157.732 135.084 155.745 135.559C154.752 135.796 153.739 135.995 152.726 136.193C151.717 136.419 150.688 136.606 149.647 136.809C146.137 137.456 142.607 138.063 139.219 139.07C137.519 139.581 135.839 140.131 134.194 140.829C132.55 141.528 130.969 142.371 129.419 143.336C122.461 147.674 115.883 153.763 107.262 152.96C109.637 150.407 111.952 147.835 114.276 145.319C116.713 142.713 119.19 140.086 121.788 137.523C124.422 135.011 127.135 132.555 130.033 130.308C132.966 128.112 135.998 126.011 139.258 124.322C140.895 123.47 142.57 122.696 144.301 122.01C146.016 121.314 147.786 120.706 149.62 120.243C151.332 119.815 153.04 119.457 154.76 119.182C156.48 118.907 158.196 118.703 159.944 118.62C163.42 118.416 166.862 118.358 170.319 118.41C173.78 118.49 177.206 118.519 180.607 118.384C182.996 118.348 185.083 118.659 187.29 118.64C185.077 119.589 182.982 120.772 180.946 122.072ZM113.659 127.12C114.25 126.148 114.931 125.217 115.676 124.331C116.42 123.446 117.227 122.606 118.066 121.79C119.744 120.156 121.563 118.625 123.347 117.143C125.35 115.525 127.37 113.918 129.492 112.435C130.554 111.707 131.629 110.963 132.747 110.325C133.893 109.682 135.046 109.093 136.263 108.551C138.622 107.535 141.04 106.931 143.534 106.653C146.028 106.374 148.558 106.343 150.989 106.314C153.488 106.26 156.002 106.316 158.501 106.361C160.999 106.405 163.482 106.438 165.961 106.542C168.429 106.662 170.896 106.881 173.247 107.26C175.612 107.651 177.873 108.186 179.973 109.072C184.019 110.757 187.36 113.405 189.437 117.617C186.385 117.933 183.492 117.307 180.373 117.353C176.956 117.477 173.534 117.475 170.065 117.439C166.612 117.414 163.167 117.543 159.691 117.747C157.947 117.858 156.215 118.05 154.506 118.309C152.771 118.573 151.059 118.903 149.331 119.32C148.448 119.539 147.564 119.758 146.716 120.027C145.857 120.313 145.013 120.61 144.189 120.945C142.524 121.605 140.884 122.331 139.299 123.147C137.698 123.951 136.168 124.856 134.677 125.839C133.171 126.81 131.716 127.843 130.293 128.899C127.45 131.038 124.8 133.441 122.236 135.857C119.688 138.285 117.302 140.854 114.959 143.332C112.122 146.385 109.336 149.5 106.479 152.515C108.852 144.133 108.826 134.944 113.659 127.12ZM97.2354 109.439C97.6646 113.168 98.0114 116.911 98.3698 120.638C99.0428 127.79 100.259 135.385 99.3765 142.587C98.9371 146.152 97.2865 149.231 95.152 151.984C93.0333 154.747 90.3755 157.193 87.8825 159.513C82.5006 164.529 76.8866 167.754 69.6115 167.977L74.1711 150.809C74.2256 150.603 74.1702 150.415 74.0402 150.296C74.8579 148.849 75.4669 147.226 76.1391 145.748C77.1982 143.444 78.2731 141.151 79.3205 138.863C80.4464 136.534 81.5683 134.177 82.6785 131.837C83.2257 130.66 83.7729 129.484 84.2886 128.285C84.82 127.098 85.3358 125.899 85.8357 124.689C87.4487 120.673 87.7765 116.436 88.8902 112.279C89.8756 108.692 92.6893 105.769 96.4102 104.341C97.1068 104.871 97.1673 108.874 97.2354 109.439ZM59.0769 152.066C58.6759 148.628 59.0523 145.016 59.8058 141.384C60.5751 137.763 61.6745 134.186 62.6331 130.899C63.5487 127.704 64.9518 124.666 66.6463 121.889C68.3133 119.117 70.4482 116.562 72.8668 114.311C74.0819 113.177 75.3405 112.149 76.7211 111.185C78.1016 110.221 79.5649 109.341 81.0676 108.54C82.586 107.749 84.1322 107.053 85.8043 106.448C87.4764 105.843 89.192 105.343 90.9393 104.965C92.0583 104.721 93.1736 104.547 94.2811 104.417C93.822 104.649 93.3709 104.936 92.9473 105.219C91.6805 106.093 90.5123 107.163 89.5956 108.218C88.4711 109.491 88.1377 111.363 87.7524 112.878C87.1184 115.589 86.7439 118.341 86.0667 121.046C85.4169 123.647 84.3347 126.18 83.2013 128.651C82.0679 131.123 80.8165 133.557 79.7026 135.969C78.4752 138.569 77.346 141.166 76.1736 143.757C75.2592 145.797 74.0151 147.991 73.3328 150.176C73.2426 150.233 73.1721 150.329 73.1489 150.46L68.6281 167.411C63.3947 163.856 59.8819 158.576 59.0769 152.066ZM96.98 174.061C103.93 175.962 110.301 180.368 116.422 183.928C122.775 187.534 129.945 190.946 134.716 196.648C137.083 199.474 138.038 202.749 137.896 205.941C137.84 207.302 137.573 208.656 137.112 209.944C134.153 211.385 130.116 208.403 127.488 206.888C124.51 205.193 121.583 203.362 118.746 201.375C112.898 197.276 108.595 191.495 103.19 186.857C95.5886 180.377 86.563 176.306 76.7758 175.713C83.5603 174.051 90.0025 172.166 96.98 174.061ZM130.833 217.8C129.578 218.56 128.193 219.103 126.74 219.474C123.823 220.232 120.699 220.151 117.634 219.498C111.038 218.101 105.658 213.726 101.524 208.536C96.7883 202.589 94.5635 195.417 90.9847 188.81C88.349 183.946 83.7512 181.664 78.6912 179.98C76.3834 179.214 74.0285 178.512 71.7597 177.626C70.8474 177.259 69.9546 176.832 69.1088 176.34C75.9272 175.687 82.698 176.547 89.0482 178.971C96.2046 181.71 102.243 186.636 107.535 192.053C109.965 194.531 112.25 197.174 114.911 199.401C117.784 201.832 120.936 203.851 124.107 205.809C125.928 206.911 128.514 208.813 131.125 210.022C132.439 210.631 133.764 211.028 135.001 211.116C135.599 211.156 136.168 211.102 136.726 210.966C136.136 212.333 135.326 213.637 134.307 214.865C133.285 216.064 132.116 217.035 130.833 217.8Z" fill="#A1A3D4" fill-opacity="0.62"/>
<path d="M161.29 172.752C161.334 171.407 161.001 170.181 160.715 168.892C160.441 167.685 160.058 166.497 159.544 165.386C156.598 158.87 149.274 156.427 142.683 155.255C133.522 153.642 123.912 153.3 114.662 152.336C107.443 151.592 100.154 150.65 92.9447 152.2C89.132 152.996 85.5296 154.657 82.1325 156.763C78.8609 158.763 75.8024 161.164 73.0267 163.574C70.4477 164.43 67.8967 165.478 65.3933 166.758C65.3149 166.799 65.2796 166.847 65.2759 166.918C65.1304 166.887 65.0007 166.866 64.8553 166.834C64.6234 166.789 64.4425 166.707 64.2811 166.565C66.2901 165.565 68.2952 164.538 70.2725 163.417C73.5836 161.495 76.7605 159.328 79.6417 156.675C88.8767 148.041 94.3844 136.429 98.6975 124.638C98.7132 124.649 98.725 124.633 98.7407 124.645C102.82 123.748 106.068 121.484 108.787 118.591C111.491 115.687 113.71 112.16 115.71 108.769C118.401 104.135 121.125 99.7207 124.805 95.7794C128.39 91.9666 132.582 88.7417 136.636 85.4413C143.51 79.8368 149.632 73.908 153.36 65.749C157.335 57.0558 158.892 47.5162 164.542 39.5972C164.741 39.3243 164.599 38.9259 164.265 38.8553C163.695 38.7118 162.984 38.6625 162.476 38.3677C161.509 37.8124 160.404 37.3787 159.315 37.0549C157.77 36.5967 156.159 36.3608 154.532 36.3104C151.208 36.2076 147.871 36.8814 144.683 37.9101C141.939 38.7938 139.29 39.9432 136.736 41.2596C131.498 43.9706 126.449 47.1143 121.357 50.0541C116.108 53.0767 110.678 55.9185 106.292 60.1334C102.082 64.206 99.585 69.7928 97.3386 75.0699C95.0765 80.3355 92.7949 85.6608 91.7594 91.3256C90.8557 96.2502 91.5983 101.264 92.639 106.101C93.9777 112.31 95.3524 118.865 97.4685 124.901C93.2175 136.344 87.8538 147.396 78.9843 156.124C75.9859 159.036 72.6482 161.357 69.1095 163.359C67.3911 164.324 65.6215 165.227 63.8322 166.091C63.1457 164.855 63.3994 162.532 63.2984 161.352C63.2014 160.2 63.1044 159.047 62.9916 157.884C70.0966 155.521 75.1177 150.734 78.9091 144.268C82.5792 138.034 86.6032 130.261 86.7744 122.912C87.0061 114.623 82.2355 107.372 78.3259 100.427C73.5799 91.9889 68.4573 83.7694 63.1151 75.6854C62.9732 75.484 62.6743 75.3653 62.4349 75.4619C46.8317 82.4217 37.4006 97.8468 37.7549 114.724C37.869 119.773 38.7215 124.768 39.4641 129.782C40.1468 134.384 41.0179 138.926 42.8706 143.246C46.1296 150.85 53.5293 156.814 61.7312 158.124C61.9933 160.994 62.2397 163.853 62.4627 166.744C61.0264 167.422 59.5902 168.1 58.15 168.75C54.9399 170.205 51.6359 171.788 48.6234 173.731C45.5912 175.634 42.8388 177.913 40.748 180.869C40.6305 181.03 40.8981 181.224 41.0196 181.091C43.6881 178.235 46.7117 175.981 49.9323 174.018C53.1214 172.031 56.5392 170.358 59.9727 168.697C60.8399 168.27 61.6953 167.858 62.5625 167.431C62.6414 167.587 62.7831 167.689 62.96 167.744C69.2614 169.444 75.9059 168.369 82.3762 168.422C86.183 168.457 89.748 169.252 93.0368 171.148C97.0965 173.507 100.19 177.548 103.533 180.787C114.038 190.974 128.091 199.311 143.907 194.596C150.506 192.628 156.179 187.577 159.071 181.318C159.767 179.808 160.286 178.242 160.628 176.622C160.872 175.398 161.164 174.11 161.216 172.82C161.306 172.763 161.29 172.752 161.29 172.752ZM154.05 61.6769C150.435 71.3936 144.056 78.1682 136.143 84.6654C132.822 87.3919 129.497 90.091 126.432 93.0279C123.367 95.9648 120.562 99.1396 118.269 102.834C113.166 111.125 108.821 121.049 98.8497 124.232C100.267 120.319 101.558 116.414 102.817 112.584C108.079 96.5643 113.512 79.9811 125.803 67.7638C136.42 57.2076 150.964 52.5518 161.727 42.2245C158.23 48.2892 156.455 55.1624 154.05 61.6769ZM92.5814 93.3978C93.0366 88.1966 95.1343 83.1557 97.1304 78.3852C99.3178 73.0899 101.552 67.8288 105.018 63.1914C108.382 58.726 113.321 55.8963 118.088 53.1379C122.945 50.3221 127.817 47.5178 132.674 44.702C142.18 39.1898 152.627 34.7301 163.045 39.7643C151.793 50.9904 136.272 56.0921 124.894 67.0297C112.959 78.4974 107.517 94.8286 102.525 110.085C101.004 114.733 99.463 119.441 97.7612 124.105C96.2951 113.821 91.6753 103.926 92.5814 93.3978ZM65.8758 81.8946C68.2928 85.6414 70.6472 89.441 72.9505 93.2774C77.352 100.604 82.5912 108.269 85.0857 116.522C86.3132 120.61 85.9654 124.709 84.871 128.708C83.7451 132.685 81.8843 136.546 80.1212 140.207C78.1429 144.228 75.8688 147.764 73.0159 150.708C70.2529 153.495 67.0055 155.759 62.9942 157.32C62.7321 154.45 62.4542 151.568 62.1645 148.703C61.7382 144.509 61.3198 140.369 60.8385 136.184C60.8143 135.921 60.6489 135.752 60.468 135.669C60.7619 133.719 60.702 131.66 60.7918 129.758C60.9498 126.775 61.0999 123.836 61.2304 120.857C61.495 114.829 61.9246 108.774 61.6117 102.744C61.3642 97.7456 59.6325 93.0951 58.6427 88.2213C57.8038 83.998 59.2436 79.8561 62.2693 76.8413C63.252 77.1125 65.4933 81.2972 65.8758 81.8946ZM44.3486 143.631C40.5363 136.29 39.9791 126.641 39.1863 118.665C37.6486 103.042 43.9745 88.5336 56.9412 79.7082C57.9648 79.0011 59.0319 78.3993 60.1305 77.8204C58.7636 79.5566 57.8219 81.7001 57.2806 83.6917C56.7938 85.4771 57.4116 87.5977 57.8087 89.3611C58.5076 92.524 59.4891 95.597 60.0938 98.7898C60.6785 101.845 60.8 105.006 60.7525 108.168C60.6892 111.318 60.457 114.469 60.3583 117.569C60.2523 120.909 60.1188 124.254 59.997 127.583C59.9011 130.218 59.4799 133.133 59.6788 135.858C59.6083 135.955 59.5576 136.09 59.5815 136.255C60.1397 141.356 60.6703 146.462 61.1932 151.611C61.3744 153.439 61.5437 155.283 61.7091 157.1C54.1658 155.186 47.9833 150.623 44.3486 143.631ZM96.8974 152.464C101.3 151.949 105.81 152.177 110.345 152.667C114.864 153.146 119.356 153.827 123.729 154.274C132.759 155.178 142.737 155.049 151.063 158.759C156.934 161.376 159.858 166.671 159.931 172.6C156.957 176.071 150.783 174.856 146.967 174.568C142.653 174.238 138.374 173.761 134.172 172.947C125.478 171.255 117.941 166.764 109.638 164.077C97.9806 160.307 85.9343 159.672 74.4517 163.109C81.5313 158.343 88.0922 153.494 96.8974 152.464ZM140.434 194.335C131.948 196.016 123.752 193.578 116.773 189.543C108.764 184.906 103.204 177.745 96.2912 171.84C91.1934 167.474 84.8986 166.885 78.3857 167.122C75.4043 167.243 72.4191 167.435 69.4489 167.343C68.2467 167.306 67.06 167.182 65.8771 166.986C69.609 165.247 73.4989 163.917 77.4606 162.983C81.5204 162.047 85.7031 161.569 89.9222 161.535C99.319 161.476 108.444 164.292 116.95 167.888C120.851 169.541 124.685 171.416 128.79 172.627C133.248 173.947 137.818 174.685 142.467 175.184C147.072 175.677 155.55 177.63 159.922 173.995C159.797 175.945 159.381 177.93 158.655 179.91C157.192 183.887 154.63 187.091 151.434 189.515C148.195 191.932 144.388 193.544 140.434 194.335Z" fill="#4A608C"/>
<path d="M160.6 154.9L162.254 153.775L162.241 153.757L162.228 153.738L160.6 154.9ZM164.3 158.9L163.1 160.5L163.144 160.533L163.191 160.564L164.3 158.9ZM169.4 161L171.4 161L171.4 159.413L169.854 159.052L169.4 161ZM169.4 163L169.275 164.996L171.4 165.129L171.4 163L169.4 163ZM147.1 163L145.1 163L145.1 165.126L147.222 164.996L147.1 163ZM147.1 161L147.017 159.002L145.1 159.082L145.1 161L147.1 161ZM150.6 160.4L151.428 162.221L151.428 162.221L150.6 160.4ZM150.7 156.5L149.034 157.606L149.053 157.635L149.073 157.662L150.7 156.5ZM136.1 134.5L134.43 135.601L134.434 135.606L136.1 134.5ZM131.2 128.8L130.053 130.438L130.081 130.458L130.11 130.477L131.2 128.8ZM125.6 127.2L125.711 125.203L123.6 125.086L123.6 127.2L125.6 127.2ZM126.2 157.9L128.086 157.234L128.086 157.234L126.2 157.9ZM128.4 160.2L127.698 162.073L127.716 162.079L127.734 162.086L128.4 160.2ZM133.7 161L135.7 161L135.7 159.108L133.811 159.003L133.7 161ZM133.7 163L133.57 164.996L135.7 165.135L135.7 163L133.7 163ZM108.2 163L106.2 163L106.2 165.148L108.342 164.995L108.2 163ZM108.2 161L108.089 159.003L106.2 159.108L106.2 161L108.2 161ZM113.4 160.2L112.734 158.314L112.716 158.321L112.698 158.327L113.4 160.2ZM115.7 97.3L113.814 97.9656L113.814 97.9656L115.7 97.3ZM113.4 95L112.698 96.8727L112.716 96.8795L112.734 96.886L113.4 95ZM108.2 94.2L106.2 94.2L106.2 96.092L108.089 96.1969L108.2 94.2ZM108.2 92.2L108.342 90.2051L106.2 90.052L106.2 92.2L108.2 92.2ZM133.7 92.2L135.7 92.2L135.7 90.0683L133.573 90.2041L133.7 92.2ZM133.7 94.2L133.811 96.1969L135.7 96.092L135.7 94.2L133.7 94.2ZM128.4 95L127.734 93.114L127.716 93.1205L127.698 93.1273L128.4 95ZM126.2 97.3L128.086 97.9656L128.086 97.9656L126.2 97.3ZM125.6 125.2L123.6 125.2L123.6 127.284L125.682 127.198L125.6 125.2ZM137 119.6L135.428 118.363L135.423 118.37L135.418 118.376L137 119.6ZM146.6 107.4L145.046 106.142L145.037 106.152L145.028 106.163L146.6 107.4ZM145.5 94.2L143.5 94.2L143.5 96.168L145.468 96.1997L145.5 94.2ZM145.5 92.2L145.605 90.2028L143.5 90.092L143.5 92.2L145.5 92.2ZM165.5 92.2L167.5 92.2L167.5 89.99L165.301 90.2099L165.5 92.2ZM165.5 94.2L165.8 96.1774L167.5 95.9198L167.5 94.2L165.5 94.2ZM159.3 96.4L160.266 98.1512L160.289 98.1386L160.311 98.1254L159.3 96.4ZM153.7 101.5L155.277 102.73L155.284 102.722L153.7 101.5ZM137.4 122.4L135.823 121.17L134.905 122.347L135.772 123.562L137.4 122.4ZM158.946 156.025C160.178 157.837 161.558 159.343 163.1 160.5L165.5 157.3C164.376 156.457 163.288 155.297 162.254 153.775L158.946 156.025ZM163.191 160.564C164.829 161.656 166.762 162.438 168.946 162.948L169.854 159.052C168.038 158.629 166.571 158.01 165.409 157.236L163.191 160.564ZM167.4 161L167.4 163L171.4 163L171.4 161L167.4 161ZM169.525 161.004C166.268 160.8 162.223 160.7 157.4 160.7L157.4 164.7C162.177 164.7 166.132 164.8 169.275 164.996L169.525 161.004ZM157.4 160.7C153.763 160.7 150.289 160.801 146.978 161.004L147.222 164.996C150.444 164.799 153.837 164.7 157.4 164.7L157.4 160.7ZM149.1 163L149.1 161L145.1 161L145.1 163L149.1 163ZM147.183 162.998C148.837 162.929 150.327 162.721 151.428 162.221L149.772 158.579C149.406 158.746 148.563 158.937 147.017 159.002L147.183 162.998ZM151.428 162.221C152.016 161.954 152.6 161.555 153.038 160.958C153.492 160.338 153.7 159.625 153.7 158.9L149.7 158.9C149.7 158.882 149.703 158.834 149.723 158.769C149.744 158.703 149.776 158.642 149.812 158.592C149.883 158.495 149.918 158.513 149.772 158.579L151.428 162.221ZM153.7 158.9C153.7 157.611 153.081 156.392 152.327 155.338L149.073 157.662C149.345 158.044 149.51 158.344 149.604 158.569C149.65 158.679 149.674 158.762 149.687 158.818C149.7 158.874 149.7 158.9 149.7 158.9L153.7 158.9ZM152.366 155.394L137.766 133.394L134.434 135.606L149.034 157.606L152.366 155.394ZM137.77 133.399C135.825 130.448 134 128.234 132.29 127.123L130.11 130.477C131.067 131.099 132.509 132.685 134.43 135.601L137.77 133.399ZM132.347 127.162C130.596 125.936 128.317 125.348 125.711 125.203L125.489 129.197C127.683 129.319 129.137 129.798 130.053 130.438L132.347 127.162ZM123.6 127.2L123.6 152.4L127.6 152.4L127.6 127.2L123.6 127.2ZM123.6 152.4C123.6 154.966 123.793 157.091 124.314 158.566L128.086 157.234C127.807 156.443 127.6 154.901 127.6 152.4L123.6 152.4ZM124.314 158.566C124.898 160.221 126.044 161.452 127.698 162.073L129.102 158.327C128.623 158.148 128.302 157.845 128.086 157.234L124.314 158.566ZM127.734 162.086C129.147 162.585 131.149 162.861 133.589 162.997L133.811 159.003C131.451 158.872 129.92 158.615 129.066 158.314L127.734 162.086ZM131.7 161L131.7 163L135.7 163L135.7 161L131.7 161ZM133.83 161.004C130.7 160.8 126.416 160.7 121 160.7L121 164.7C126.384 164.7 130.567 164.8 133.57 164.996L133.83 161.004ZM121 160.7C115.257 160.7 110.932 160.8 108.058 161.005L108.342 164.995C111.068 164.8 115.276 164.7 121 164.7L121 160.7ZM110.2 163L110.2 161L106.2 161L106.2 163L110.2 163ZM108.311 162.997C110.74 162.862 112.733 162.586 114.102 162.073L112.698 158.327C111.934 158.614 110.46 158.871 108.089 159.003L108.311 162.997ZM114.066 162.086C115.769 161.485 116.985 160.269 117.586 158.566L113.814 157.234C113.615 157.797 113.297 158.115 112.734 158.314L114.066 162.086ZM117.586 158.566C118.107 157.091 118.3 154.966 118.3 152.4L114.3 152.4C114.3 154.901 114.093 156.443 113.814 157.234L117.586 158.566ZM118.3 152.4L118.3 102.8L114.3 102.8L114.3 152.4L118.3 152.4ZM118.3 102.8C118.3 100.234 118.107 98.1093 117.586 96.6344L113.814 97.9656C114.093 98.7574 114.3 100.299 114.3 102.8L118.3 102.8ZM117.586 96.6344C116.985 94.9306 115.769 93.7153 114.066 93.114L112.734 96.886C113.297 97.0847 113.615 97.4027 113.814 97.9656L117.586 96.6344ZM114.102 93.1273C112.733 92.6138 110.74 92.338 108.311 92.2031L108.089 96.1969C110.46 96.3286 111.934 96.5862 112.698 96.8727L114.102 93.1273ZM110.2 94.2L110.2 92.2L106.2 92.2L106.2 94.2L110.2 94.2ZM108.058 94.1949C110.932 94.4002 115.257 94.5 121 94.5L121 90.5C115.276 90.5 111.068 90.3998 108.342 90.2051L108.058 94.1949ZM121 94.5C126.351 94.5 130.633 94.3999 133.827 94.1959L133.573 90.2041C130.501 90.4001 126.316 90.5 121 90.5L121 94.5ZM131.7 92.2L131.7 94.2L135.7 94.2L135.7 92.2L131.7 92.2ZM133.589 92.2031C131.149 92.3386 129.147 92.6154 127.734 93.114L129.066 96.886C129.92 96.5846 131.451 96.328 133.811 96.1969L133.589 92.2031ZM127.698 93.1273C126.044 93.7477 124.898 94.9786 124.314 96.6344L128.086 97.9656C128.302 97.3547 128.623 97.0523 129.102 96.8727L127.698 93.1273ZM124.314 96.6344C123.793 98.1093 123.6 100.234 123.6 102.8L127.6 102.8C127.6 100.299 127.807 98.7574 128.086 97.9656L124.314 96.6344ZM123.6 102.8L123.6 125.2L127.6 125.2L127.6 102.8L123.6 102.8ZM125.682 127.198C131.078 126.977 135.452 124.87 138.582 120.824L135.418 118.376C133.081 121.397 129.855 123.023 125.518 123.202L125.682 127.198ZM138.572 120.837L148.172 108.637L145.028 106.163L135.428 118.363L138.572 120.837ZM148.154 108.658C149.9 106.502 151.26 104.542 152.191 102.788C153.107 101.065 153.7 99.3738 153.7 97.8L149.7 97.8C149.7 98.4262 149.443 99.4351 148.659 100.912C147.89 102.358 146.7 104.098 145.046 106.142L148.154 108.658ZM153.7 97.8C153.7 95.8995 152.786 94.3676 151.154 93.4204C149.682 92.5654 147.724 92.2356 145.532 92.2003L145.468 96.1997C147.41 96.2311 148.552 96.5346 149.146 96.8796C149.581 97.1324 149.7 97.3671 149.7 97.8L153.7 97.8ZM147.5 94.2L147.5 92.2L143.5 92.2L143.5 94.2L147.5 94.2ZM145.395 94.1972C149.23 94.3991 153.099 94.5 157 94.5L157 90.5C153.168 90.5 149.37 90.4009 145.605 90.2028L145.395 94.1972ZM157 94.5C160.689 94.5 163.6 94.4 165.699 94.1901L165.301 90.2099C163.4 90.4 160.645 90.5 157 90.5L157 94.5ZM163.5 92.2L163.5 94.2L167.5 94.2L167.5 92.2L163.5 92.2ZM165.2 92.2226C162.747 92.5942 160.439 93.4138 158.289 94.6746L160.311 98.1254C162.027 97.1196 163.853 96.4724 165.8 96.1774L165.2 92.2226ZM158.334 94.6488C156.095 95.8842 154.031 97.7969 152.116 100.278L155.284 102.722C156.969 100.536 158.639 99.0491 160.266 98.1512L158.334 94.6488ZM152.123 100.27L135.823 121.17L138.977 123.63L155.277 102.73L152.123 100.27ZM135.772 123.562L158.972 156.062L162.228 153.738L139.028 121.238L135.772 123.562ZM213.327 116.9L211.849 118.248L211.86 118.259L211.87 118.27L213.327 116.9ZM213.327 157.7L211.87 156.33L211.865 156.336L211.859 156.342L213.327 157.7ZM180.427 157.7L178.959 159.058L178.965 159.064L178.97 159.07L180.427 157.7ZM180.427 116.9L178.96 115.541L178.959 115.542L180.427 116.9ZM187.427 118.3L189.162 119.295L189.169 119.283L187.427 118.3ZM187.427 156.3L185.693 157.295L185.693 157.295L187.427 156.3ZM206.427 156.3L208.162 157.295L206.427 156.3ZM206.427 118.3L204.686 119.283L204.693 119.295L206.427 118.3ZM196.927 112.1C203.233 112.1 208.139 114.177 211.849 118.248L214.805 115.552C210.25 110.556 204.222 108.1 196.927 108.1L196.927 112.1ZM211.87 118.27C215.584 122.219 217.627 128.431 217.627 137.3L221.627 137.3C221.627 127.902 219.471 120.514 214.784 115.53L211.87 118.27ZM217.627 137.3C217.627 146.169 215.584 152.381 211.87 156.33L214.784 159.07C219.471 154.086 221.627 146.698 221.627 137.3L217.627 137.3ZM211.859 156.342C208.151 160.349 203.242 162.4 196.927 162.4L196.927 166.4C204.212 166.4 210.237 163.984 214.795 159.058L211.859 156.342ZM196.927 162.4C190.612 162.4 185.663 160.349 181.884 156.33L178.97 159.07C183.592 163.985 189.642 166.4 196.927 166.4L196.927 162.4ZM181.895 156.342C178.241 152.393 176.227 146.176 176.227 137.3L172.227 137.3C172.227 146.691 174.347 154.074 178.959 159.058L181.895 156.342ZM176.227 137.3C176.227 128.424 178.241 122.207 181.895 118.258L178.959 115.542C174.347 120.526 172.227 127.909 172.227 137.3L176.227 137.3ZM181.894 118.259C185.676 114.178 190.622 112.1 196.927 112.1L196.927 108.1C189.633 108.1 183.579 110.555 178.96 115.541L181.894 118.259ZM196.927 110.1C192.059 110.1 188.295 112.695 185.686 117.317L189.169 119.283C191.226 115.639 193.796 114.1 196.927 114.1L196.927 110.1ZM185.693 117.305C183.094 121.834 181.927 128.598 181.927 137.3L185.927 137.3C185.927 128.802 187.094 122.899 189.162 119.295L185.693 117.305ZM181.927 137.3C181.927 146.002 183.094 152.766 185.693 157.295L189.162 155.305C187.094 151.701 185.927 145.798 185.927 137.3L181.927 137.3ZM185.693 157.295C188.309 161.856 192.075 164.4 196.927 164.4L196.927 160.4C193.779 160.4 191.212 158.877 189.162 155.305L185.693 157.295ZM196.927 164.4C201.779 164.4 205.545 161.856 208.162 157.295L204.693 155.305C202.643 158.877 200.075 160.4 196.927 160.4L196.927 164.4ZM208.162 157.295C210.761 152.766 211.927 146.002 211.927 137.3L207.927 137.3C207.927 145.798 206.761 151.701 204.693 155.305L208.162 157.295ZM211.927 137.3C211.927 128.598 210.761 121.834 208.162 117.305L204.693 119.295C206.761 122.899 207.927 128.802 207.927 137.3L211.927 137.3ZM208.169 117.317C205.56 112.695 201.796 110.1 196.927 110.1L196.927 114.1C200.059 114.1 202.628 115.639 204.686 119.283L208.169 117.317ZM231.213 160.6L229.753 161.968L229.775 161.991L229.798 162.014L231.213 160.6ZM230.613 144.4L229.098 143.094L229.085 143.109L229.072 143.125L230.613 144.4ZM236.413 139.8L235.518 138.011L235.507 138.017L235.497 138.022L236.413 139.8ZM245.313 136.2L244.67 134.306L244.659 134.31L245.313 136.2ZM253.813 114.3L252.461 115.774L252.493 115.804L252.526 115.831L253.813 114.3ZM237.113 115.7L235.555 114.445L233.592 116.882L236.627 117.64L237.113 115.7ZM240.413 117.8L238.86 119.061L238.883 119.09L238.907 119.117L240.413 117.8ZM240.213 125.8L241.53 127.305L241.555 127.283L241.58 127.259L240.213 125.8ZM231.913 125.5L230.334 126.728L230.351 126.75L230.369 126.771L231.913 125.5ZM231.613 117.2L230.013 116L229.988 116.033L229.964 116.067L231.613 117.2ZM235.113 114L236.255 115.642L236.262 115.637L236.269 115.632L235.113 114ZM241.213 111.2L241.782 113.117L241.782 113.117L241.213 111.2ZM261.113 113.8L259.754 115.268L259.758 115.272L261.113 113.8ZM264.413 119.4L262.469 119.871L262.477 119.907L262.487 119.941L264.413 119.4ZM270.613 159.9L271.507 161.689L271.539 161.673L271.57 161.656L270.613 159.9ZM272.913 158.3L274.592 157.213L273.366 155.319L271.632 156.764L272.913 158.3ZM274.013 160L275.232 161.585L276.693 160.461L275.692 158.913L274.013 160ZM269.513 162.9L270.325 164.728L270.347 164.718L270.369 164.707L269.513 162.9ZM258.213 161.3L259.781 160.059L258.213 161.3ZM256.313 154.8L258.313 154.8L258.313 147.579L254.598 153.771L256.313 154.8ZM249.413 161.8L250.288 163.598L250.307 163.589L250.325 163.58L249.413 161.8ZM256.313 152.1L258.014 153.152L258.313 152.668L258.313 152.1L256.313 152.1ZM256.313 132.5L258.313 132.5L258.313 125.69L254.63 131.418L256.313 132.5ZM248.913 137.2L249.689 139.043L249.715 139.032L249.74 139.021L248.913 137.2ZM242.713 140.3L243.752 142.008L243.762 142.002L243.773 141.996L242.713 140.3ZM239.213 157.4L237.767 158.782L239.213 157.4ZM240.613 161.7C236.71 161.7 234.181 160.74 232.627 159.186L229.798 162.014C232.378 164.594 236.115 165.7 240.613 165.7L240.613 161.7ZM232.672 159.232C231.108 157.564 230.213 155.171 230.213 151.8L226.213 151.8C226.213 155.895 227.317 159.37 229.753 161.968L232.672 159.232ZM230.213 151.8C230.213 149.171 230.905 147.183 232.153 145.675L229.072 143.125C227.12 145.484 226.213 148.429 226.213 151.8L230.213 151.8ZM232.127 145.706C233.632 143.961 235.364 142.59 237.328 141.578L235.497 138.022C233.061 139.277 230.926 140.973 229.098 143.094L232.127 145.706ZM237.307 141.589C239.466 140.509 242.343 139.342 245.966 138.09L244.659 134.31C240.949 135.592 237.892 136.824 235.518 138.011L237.307 141.589ZM245.955 138.094C249.726 136.814 252.65 135.595 254.632 134.421L252.593 130.979C250.975 131.938 248.365 133.052 244.67 134.306L245.955 138.094ZM254.632 134.421C256.923 133.063 258.313 131.033 258.313 128.4L254.313 128.4C254.313 129.367 253.902 130.203 252.593 130.979L254.632 134.421ZM258.313 128.4L258.313 122.2L254.313 122.2L254.313 128.4L258.313 128.4ZM258.313 122.2C258.313 118.176 257.469 114.759 255.099 112.769L252.526 115.831C253.49 116.641 254.313 118.491 254.313 122.2L258.313 122.2ZM255.164 112.826C253.082 110.917 250.268 110.1 247.013 110.1L247.013 114.1C249.624 114.1 251.343 114.75 252.461 115.774L255.164 112.826ZM247.013 110.1C242.058 110.1 238.03 111.373 235.555 114.445L238.67 116.955C240.061 115.227 242.634 114.1 247.013 114.1L247.013 110.1ZM236.627 117.64C237.541 117.869 238.266 118.33 238.86 119.061L241.965 116.539C240.825 115.136 239.351 114.198 237.598 113.76L236.627 117.64ZM238.907 119.117C239.48 119.772 239.813 120.618 239.813 121.8L243.813 121.8C243.813 119.782 243.211 117.962 241.918 116.483L238.907 119.117ZM239.813 121.8C239.813 122.999 239.45 123.773 238.845 124.341L241.58 127.259C243.108 125.827 243.813 123.935 243.813 121.8L239.813 121.8ZM238.895 124.295C238.256 124.855 237.385 125.2 236.113 125.2L236.113 129.2C238.174 129.2 240.036 128.612 241.53 127.305L238.895 124.295ZM236.113 125.2C234.668 125.2 233.911 124.78 233.456 124.229L230.369 126.771C231.781 128.487 233.824 129.2 236.113 129.2L236.113 125.2ZM233.491 124.272C232.858 123.457 232.513 122.467 232.513 121.2L228.513 121.2C228.513 123.266 229.101 125.143 230.334 126.728L233.491 124.272ZM232.513 121.2C232.513 119.908 232.806 118.995 233.261 118.333L229.964 116.067C228.953 117.538 228.513 119.292 228.513 121.2L232.513 121.2ZM233.213 118.4C233.844 117.557 234.832 116.632 236.255 115.642L233.97 112.358C232.326 113.502 230.981 114.709 230.013 116L233.213 118.4ZM236.269 115.632C237.644 114.658 239.464 113.806 241.782 113.117L240.643 109.283C238.028 110.06 235.781 111.076 233.956 112.368L236.269 115.632ZM241.782 113.117C244.04 112.446 246.546 112.1 249.313 112.1L249.313 108.1C246.213 108.1 243.318 108.488 240.643 109.283L241.782 113.117ZM249.313 112.1C254.225 112.1 257.59 113.266 259.754 115.268L262.471 112.332C259.301 109.4 254.8 108.1 249.313 108.1L249.313 112.1ZM259.758 115.272C261.134 116.537 262.029 118.056 262.469 119.871L266.356 118.929C265.73 116.344 264.424 114.129 262.467 112.328L259.758 115.272ZM262.487 119.941C263.017 121.826 263.313 124.455 263.313 127.9L267.313 127.9C267.313 124.278 267.008 121.241 266.338 118.859L262.487 119.941ZM263.313 127.9L263.313 155.7L267.313 155.7L267.313 127.9L263.313 127.9ZM263.313 155.7C263.313 157.454 263.54 159.139 264.325 160.374L267.7 158.226C267.552 157.994 267.313 157.279 267.313 155.7L263.313 155.7ZM264.325 160.374C265.269 161.857 266.829 162.4 268.413 162.4L268.413 158.4C268.054 158.4 267.871 158.341 267.796 158.307C267.742 158.282 267.723 158.263 267.7 158.226L264.325 160.374ZM268.413 162.4C269.5 162.4 270.542 162.171 271.507 161.689L269.718 158.111C269.349 158.296 268.925 158.4 268.413 158.4L268.413 162.4ZM271.57 161.656C272.442 161.18 273.316 160.567 274.193 159.836L271.632 156.764C270.909 157.366 270.25 157.82 269.655 158.144L271.57 161.656ZM271.233 159.386L272.333 161.086L275.692 158.913L274.592 157.213L271.233 159.386ZM272.793 158.415C271.117 159.704 269.744 160.577 268.656 161.093L270.369 164.707C271.815 164.023 273.441 162.963 275.232 161.585L272.793 158.415ZM268.7 161.072C267.84 161.455 266.609 161.7 264.913 161.7L264.913 165.7C266.95 165.7 268.785 165.412 270.325 164.728L268.7 161.072ZM264.913 161.7C261.974 161.7 260.494 160.96 259.781 160.059L256.644 162.541C258.464 164.84 261.451 165.7 264.913 165.7L264.913 161.7ZM259.781 160.059C258.876 158.915 258.313 157.235 258.313 154.8L254.313 154.8C254.313 157.831 255.016 160.485 256.644 162.541L259.781 160.059ZM254.598 153.771C252.728 156.887 250.675 158.905 248.5 160.02L250.325 163.58C253.35 162.028 255.897 159.379 258.027 155.829L254.598 153.771ZM248.537 160.002C246.243 161.119 243.615 161.7 240.613 161.7L240.613 165.7C244.143 165.7 247.382 165.014 250.288 163.598L248.537 160.002ZM245.013 161.7C250.341 161.7 254.66 158.575 258.014 153.152L254.611 151.048C251.698 155.758 248.484 157.7 245.013 157.7L245.013 161.7ZM258.313 152.1L258.313 132.5L254.313 132.5L254.313 152.1L258.313 152.1ZM254.63 131.418C254.224 132.05 253.644 132.6 252.832 133.057L254.793 136.543C256.114 135.8 257.201 134.817 257.995 133.582L254.63 131.418ZM252.832 133.057C251.842 133.613 250.273 134.385 248.085 135.379L249.74 139.021C251.952 138.015 253.649 137.187 254.793 136.543L252.832 133.057ZM248.136 135.357C245.545 136.448 243.374 137.528 241.653 138.604L243.773 141.996C245.251 141.072 247.214 140.085 249.689 139.043L248.136 135.357ZM241.673 138.592C239.867 139.691 238.333 141.202 237.059 143.075L240.366 145.325C241.359 143.865 242.491 142.776 243.752 142.008L241.673 138.592ZM237.059 143.075C235.643 145.158 235.013 147.714 235.013 150.6L239.013 150.6C239.013 148.286 239.516 146.575 240.366 145.325L237.059 143.075ZM235.013 150.6C235.013 153.901 235.82 156.747 237.767 158.782L240.658 156.018C239.672 154.987 239.013 153.299 239.013 150.6L235.013 150.6ZM237.767 158.782C239.662 160.764 242.145 161.7 245.013 161.7L245.013 157.7C243.08 157.7 241.696 157.103 240.658 156.018L237.767 158.782ZM294.617 159.4L293.246 160.856L293.27 160.878L293.294 160.9L294.617 159.4ZM300.517 160.9L302.517 160.9L302.517 158.9L300.517 158.9L300.517 160.9ZM300.517 163L300.43 164.998L302.517 165.089L302.517 163L300.517 163ZM276.317 163L274.317 163L274.317 165.089L276.404 164.998L276.317 163ZM276.317 160.9L276.317 158.9L274.317 158.9L274.317 160.9L276.317 160.9ZM282.217 159.4L283.54 160.9L283.565 160.878L283.588 160.856L282.217 159.4ZM282.217 89.9L280.663 91.1584L280.663 91.1584L282.217 89.9ZM276.317 87.8L274.317 87.8L274.317 89.8L276.317 89.8L276.317 87.8ZM276.317 85.7L276.51 83.7093L274.317 83.4971L274.317 85.7L276.317 85.7ZM292.917 84.6L294.917 84.6L294.917 81.8037L292.271 82.7073L292.917 84.6ZM290.917 153.7C290.917 156.596 291.497 159.209 293.246 160.856L295.988 157.944C295.471 157.457 294.917 156.271 294.917 153.7L290.917 153.7ZM293.294 160.9C294.997 162.402 297.598 162.9 300.517 162.9L300.517 158.9C297.837 158.9 296.504 158.398 295.94 157.9L293.294 160.9ZM298.517 160.9L298.517 163L302.517 163L302.517 160.9L298.517 160.9ZM300.604 161.002C294.48 160.736 290.402 160.6 288.417 160.6L288.417 164.6C290.299 164.6 294.288 164.731 300.43 164.998L300.604 161.002ZM288.417 160.6C286.433 160.6 282.355 160.736 276.23 161.002L276.404 164.998C282.546 164.731 286.535 164.6 288.417 164.6L288.417 160.6ZM278.317 163L278.317 160.9L274.317 160.9L274.317 163L278.317 163ZM276.317 162.9C279.237 162.9 281.837 162.402 283.54 160.9L280.894 157.9C280.33 158.398 278.998 158.9 276.317 158.9L276.317 162.9ZM283.588 160.856C285.338 159.209 285.917 156.596 285.917 153.7L281.917 153.7C281.917 156.271 281.363 157.457 280.846 157.944L283.588 160.856ZM285.917 153.7L285.917 96.6L281.917 96.6L281.917 153.7L285.917 153.7ZM285.917 96.6C285.917 93.3681 285.335 90.573 283.772 88.6416L280.663 91.1584C281.366 92.027 281.917 93.6986 281.917 96.6L285.917 96.6ZM283.772 88.6416C282.088 86.5616 279.383 85.8 276.317 85.8L276.317 89.8C278.851 89.8 280.08 90.4384 280.663 91.1584L283.772 88.6416ZM278.317 87.8L278.317 85.7L274.317 85.7L274.317 87.8L278.317 87.8ZM276.125 87.6907C278.255 87.8969 280.386 88 282.517 88L282.517 84C280.515 84 278.513 83.9031 276.51 83.7093L276.125 87.6907ZM282.517 88C286.846 88 290.551 87.5214 293.563 86.4927L292.271 82.7073C289.817 83.5452 286.588 84 282.517 84L282.517 88ZM290.917 84.6L290.917 153.7L294.917 153.7L294.917 84.6L290.917 84.6ZM309.63 160.6L308.171 161.968L308.193 161.991L308.216 162.014L309.63 160.6ZM309.03 144.4L307.516 143.094L307.503 143.109L307.49 143.125L309.03 144.4ZM314.83 139.8L313.936 138.011L313.925 138.017L313.915 138.022L314.83 139.8ZM323.73 136.2L323.088 134.306L323.077 134.31L323.73 136.2ZM332.23 114.3L330.879 115.774L330.911 115.804L330.944 115.831L332.23 114.3ZM315.53 115.7L313.973 114.445L312.01 116.882L315.045 117.64L315.53 115.7ZM318.83 117.8L317.278 119.061L317.301 119.09L317.325 119.117L318.83 117.8ZM318.63 125.8L319.947 127.305L319.973 127.283L319.998 127.259L318.63 125.8ZM310.33 125.5L308.752 126.728L308.769 126.75L308.787 126.771L310.33 125.5ZM310.03 117.2L308.43 116L308.406 116.033L308.382 116.067L310.03 117.2ZM313.53 114L314.673 115.642L314.68 115.637L314.687 115.632L313.53 114ZM319.63 111.2L320.2 113.117L320.2 113.117L319.63 111.2ZM339.53 113.8L338.172 115.268L338.176 115.272L339.53 113.8ZM342.83 119.4L340.887 119.871L340.895 119.907L340.905 119.941L342.83 119.4ZM349.03 159.9L349.925 161.689L349.957 161.673L349.988 161.656L349.03 159.9ZM351.33 158.3L353.01 157.213L351.784 155.319L350.05 156.764L351.33 158.3ZM352.43 160L353.65 161.585L355.111 160.461L354.11 158.913L352.43 160ZM347.93 162.9L348.743 164.728L348.765 164.718L348.787 164.707L347.93 162.9ZM336.63 161.3L338.199 160.059L336.63 161.3ZM334.73 154.8L336.73 154.8L336.73 147.579L333.015 153.771L334.73 154.8ZM327.83 161.8L328.706 163.598L328.725 163.589L328.743 163.58L327.83 161.8ZM334.73 152.1L336.431 153.152L336.73 152.668L336.73 152.1L334.73 152.1ZM334.73 132.5L336.73 132.5L336.73 125.69L333.048 131.418L334.73 132.5ZM327.33 137.2L328.107 139.043L328.132 139.032L328.158 139.021L327.33 137.2ZM321.13 140.3L322.17 142.008L322.18 142.002L322.19 141.996L321.13 140.3ZM317.63 157.4L316.185 158.782L317.63 157.4ZM319.03 161.7C315.128 161.7 312.599 160.74 311.045 159.186L308.216 162.014C310.796 164.594 314.533 165.7 319.03 165.7L319.03 161.7ZM311.09 159.232C309.525 157.564 308.63 155.171 308.63 151.8L304.63 151.8C304.63 155.895 305.735 159.37 308.171 161.968L311.09 159.232ZM308.63 151.8C308.63 149.171 309.323 147.183 310.571 145.675L307.49 143.125C305.538 145.484 304.63 148.429 304.63 151.8L308.63 151.8ZM310.545 145.706C312.05 143.961 313.782 142.59 315.746 141.578L313.915 138.022C311.479 139.277 309.344 140.973 307.516 143.094L310.545 145.706ZM315.725 141.589C317.884 140.509 320.761 139.342 324.384 138.09L323.077 134.31C319.367 135.592 316.31 136.824 313.936 138.011L315.725 141.589ZM324.373 138.094C328.144 136.814 331.068 135.595 333.05 134.421L331.011 130.979C329.393 131.938 326.783 133.052 323.088 134.306L324.373 138.094ZM333.05 134.421C335.341 133.063 336.73 131.033 336.73 128.4L332.73 128.4C332.73 129.367 332.32 130.203 331.011 130.979L333.05 134.421ZM336.73 128.4L336.73 122.2L332.73 122.2L332.73 128.4L336.73 128.4ZM336.73 122.2C336.73 118.176 335.886 114.759 333.517 112.769L330.944 115.831C331.908 116.641 332.73 118.491 332.73 122.2L336.73 122.2ZM333.582 112.826C331.5 110.917 328.686 110.1 325.43 110.1L325.43 114.1C328.042 114.1 329.761 114.75 330.879 115.774L333.582 112.826ZM325.43 110.1C320.476 110.1 316.448 111.373 313.973 114.445L317.088 116.955C318.479 115.227 321.052 114.1 325.43 114.1L325.43 110.1ZM315.045 117.64C315.959 117.869 316.684 118.33 317.278 119.061L320.383 116.539C319.243 115.136 317.769 114.198 316.016 113.76L315.045 117.64ZM317.325 119.117C317.898 119.772 318.23 120.618 318.23 121.8L322.23 121.8C322.23 119.782 321.629 117.962 320.336 116.483L317.325 119.117ZM318.23 121.8C318.23 122.999 317.868 123.773 317.263 124.341L319.998 127.259C321.526 125.827 322.23 123.935 322.23 121.8L318.23 121.8ZM317.313 124.295C316.674 124.855 315.803 125.2 314.53 125.2L314.53 129.2C316.592 129.2 318.454 128.612 319.947 127.305L317.313 124.295ZM314.53 125.2C313.086 125.2 312.329 124.78 311.874 124.229L308.787 126.771C310.199 128.487 312.242 129.2 314.53 129.2L314.53 125.2ZM311.909 124.272C311.276 123.457 310.93 122.467 310.93 121.2L306.93 121.2C306.93 123.266 307.519 125.143 308.752 126.728L311.909 124.272ZM310.93 121.2C310.93 119.908 311.224 118.995 311.679 118.333L308.382 116.067C307.371 117.538 306.93 119.292 306.93 121.2L310.93 121.2ZM311.63 118.4C312.262 117.557 313.25 116.632 314.673 115.642L312.388 112.358C310.744 113.502 309.398 114.709 308.43 116L311.63 118.4ZM314.687 115.632C316.062 114.658 317.882 113.806 320.2 113.117L319.061 109.283C316.446 110.06 314.199 111.076 312.374 112.368L314.687 115.632ZM320.2 113.117C322.458 112.446 324.964 112.1 327.73 112.1L327.73 108.1C324.631 108.1 321.736 108.488 319.061 109.283L320.2 113.117ZM327.73 112.1C332.643 112.1 336.008 113.266 338.172 115.268L340.889 112.332C337.719 109.4 333.218 108.1 327.73 108.1L327.73 112.1ZM338.176 115.272C339.552 116.537 340.447 118.056 340.887 119.871L344.774 118.929C344.148 116.344 342.842 114.129 340.885 112.328L338.176 115.272ZM340.905 119.941C341.435 121.826 341.73 124.455 341.73 127.9L345.73 127.9C345.73 124.278 345.426 121.241 344.756 118.859L340.905 119.941ZM341.73 127.9L341.73 155.7L345.73 155.7L345.73 127.9L341.73 127.9ZM341.73 155.7C341.73 157.454 341.958 159.139 342.743 160.374L346.118 158.226C345.97 157.994 345.73 157.279 345.73 155.7L341.73 155.7ZM342.743 160.374C343.687 161.857 345.247 162.4 346.83 162.4L346.83 158.4C346.472 158.4 346.288 158.341 346.214 158.307C346.16 158.282 346.141 158.263 346.118 158.226L342.743 160.374ZM346.83 162.4C347.918 162.4 348.96 162.171 349.925 161.689L348.136 158.111C347.767 158.296 347.343 158.4 346.83 158.4L346.83 162.4ZM349.988 161.656C350.86 161.18 351.734 160.567 352.611 159.836L350.05 156.764C349.327 157.366 348.668 157.82 348.073 158.144L349.988 161.656ZM349.651 159.386L350.751 161.086L354.11 158.913L353.01 157.213L349.651 159.386ZM351.211 158.415C349.535 159.704 348.162 160.577 347.074 161.093L348.787 164.707C350.233 164.023 351.859 162.963 353.65 161.585L351.211 158.415ZM347.118 161.072C346.258 161.455 345.027 161.7 343.33 161.7L343.33 165.7C345.368 165.7 347.203 165.412 348.743 164.728L347.118 161.072ZM343.33 161.7C340.392 161.7 338.912 160.96 338.199 160.059L335.062 162.541C336.882 164.84 339.869 165.7 343.33 165.7L343.33 161.7ZM338.199 160.059C337.294 158.915 336.73 157.235 336.73 154.8L332.73 154.8C332.73 157.831 333.434 160.485 335.062 162.541L338.199 160.059ZM333.015 153.771C331.146 156.887 329.093 158.905 326.918 160.02L328.743 163.58C331.768 162.028 334.315 159.379 336.445 155.829L333.015 153.771ZM326.955 160.002C324.661 161.119 322.033 161.7 319.03 161.7L319.03 165.7C322.561 165.7 325.8 165.014 328.706 163.598L326.955 160.002ZM323.43 161.7C328.759 161.7 333.078 158.575 336.431 153.152L333.029 151.048C330.116 155.758 326.902 157.7 323.43 157.7L323.43 161.7ZM336.73 152.1L336.73 132.5L332.73 132.5L332.73 152.1L336.73 152.1ZM333.048 131.418C332.642 132.05 332.062 132.6 331.25 133.057L333.211 136.543C334.532 135.8 335.619 134.817 336.413 133.582L333.048 131.418ZM331.25 133.057C330.26 133.613 328.691 134.385 326.503 135.379L328.158 139.021C330.37 138.015 332.067 137.187 333.211 136.543L331.25 133.057ZM326.554 135.357C323.963 136.448 321.792 137.528 320.07 138.604L322.19 141.996C323.669 141.072 325.631 140.085 328.107 139.043L326.554 135.357ZM320.091 138.592C318.285 139.691 316.751 141.202 315.477 143.075L318.784 145.325C319.777 143.865 320.909 142.776 322.17 142.008L320.091 138.592ZM315.477 143.075C314.061 145.158 313.43 147.714 313.43 150.6L317.43 150.6C317.43 148.286 317.934 146.575 318.784 145.325L315.477 143.075ZM313.43 150.6C313.43 153.901 314.238 156.747 316.185 158.782L319.076 156.018C318.09 154.987 317.43 153.299 317.43 150.6L313.43 150.6ZM316.185 158.782C318.08 160.764 320.563 161.7 323.43 161.7L323.43 157.7C321.498 157.7 320.114 157.103 319.076 156.018L316.185 158.782Z" fill="#A1A3D4"/>
<path d="M158.6 151.9C159.733 153.567 160.967 154.9 162.3 155.9C163.7 156.833 165.4 157.533 167.4 158L167.4 160C164.2 159.8 160.2 159.7 155.4 159.7C151.8 159.7 148.367 159.8 145.1 160L145.1 158C146.7 157.933 147.867 157.733 148.6 157.4C149.333 157.067 149.7 156.567 149.7 155.9C149.7 155.233 149.367 154.433 148.7 153.5L134.1 131.5C132.167 128.567 130.533 126.667 129.2 125.8C127.867 124.867 126 124.333 123.6 124.2L123.6 149.4C123.6 151.933 123.8 153.767 124.2 154.9C124.6 156.033 125.333 156.8 126.4 157.2C127.533 157.6 129.3 157.867 131.7 158L131.7 160C128.633 159.8 124.4 159.7 119 159.7C113.267 159.7 109 159.8 106.2 160L106.2 158C108.6 157.867 110.333 157.6 111.4 157.2C112.533 156.8 113.3 156.033 113.7 154.9C114.1 153.767 114.3 151.933 114.3 149.4L114.3 99.8C114.3 97.2667 114.1 95.4333 113.7 94.3C113.3 93.1667 112.533 92.4 111.4 92C110.333 91.6 108.6 91.3333 106.2 91.2L106.2 89.2C109 89.4 113.267 89.5 119 89.5C124.333 89.5 128.567 89.4 131.7 89.2L131.7 91.2C129.3 91.3333 127.533 91.6 126.4 92C125.333 92.4 124.6 93.1667 124.2 94.3C123.8 95.4333 123.6 97.2667 123.6 99.8L123.6 122.2C128.467 122 132.267 120.133 135 116.6L144.6 104.4C148 100.2 149.7 97 149.7 94.8C149.7 92.4667 147.633 91.2667 143.5 91.2L143.5 89.2C147.3 89.4 151.133 89.5 155 89.5C158.667 89.5 161.5 89.4 163.5 89.2L163.5 91.2C161.3 91.5333 159.233 92.2667 157.3 93.4C155.367 94.4667 153.5 96.1667 151.7 98.5L135.4 119.4L158.6 151.9ZM194.927 107.1C201.727 107.1 207.194 109.367 211.327 113.9C215.527 118.367 217.627 125.167 217.627 134.3C217.627 143.433 215.527 150.233 211.327 154.7C207.194 159.167 201.727 161.4 194.927 161.4C188.127 161.4 182.627 159.167 178.427 154.7C174.294 150.233 172.227 143.433 172.227 134.3C172.227 125.167 174.294 118.367 178.427 113.9C182.627 109.367 188.127 107.1 194.927 107.1ZM194.927 109.1C190.927 109.1 187.761 111.167 185.427 115.3C183.094 119.367 181.927 125.7 181.927 134.3C181.927 142.9 183.094 149.233 185.427 153.3C187.761 157.367 190.927 159.4 194.927 159.4C198.927 159.4 202.094 157.367 204.427 153.3C206.761 149.233 207.927 142.9 207.927 134.3C207.927 125.7 206.761 119.367 204.427 115.3C202.094 111.167 198.927 109.1 194.927 109.1ZM238.613 160.7C234.413 160.7 231.279 159.667 229.213 157.6C227.213 155.467 226.213 152.533 226.213 148.8C226.213 145.8 227.013 143.333 228.613 141.4C230.279 139.467 232.213 137.933 234.413 136.8C236.679 135.667 239.646 134.467 243.313 133.2C247.046 131.933 249.813 130.767 251.613 129.7C253.413 128.633 254.313 127.2 254.313 125.4L254.313 119.2C254.313 115.333 253.479 112.7 251.813 111.3C250.213 109.833 247.946 109.1 245.013 109.1C240.346 109.1 237.046 110.3 235.113 112.7C236.446 113.033 237.546 113.733 238.413 114.8C239.346 115.867 239.813 117.2 239.813 118.8C239.813 120.467 239.279 121.8 238.213 122.8C237.146 123.733 235.779 124.2 234.113 124.2C232.246 124.2 230.846 123.633 229.913 122.5C228.979 121.3 228.513 119.867 228.513 118.2C228.513 116.6 228.879 115.267 229.613 114.2C230.413 113.133 231.579 112.067 233.113 111C234.713 109.867 236.746 108.933 239.213 108.2C241.679 107.467 244.379 107.1 247.313 107.1C252.513 107.1 256.446 108.333 259.113 110.8C260.779 112.333 261.879 114.2 262.413 116.4C263.013 118.533 263.313 121.367 263.313 124.9L263.313 152.7C263.313 154.367 263.546 155.567 264.013 156.3C264.479 157.033 265.279 157.4 266.413 157.4C267.213 157.4 267.946 157.233 268.613 156.9C269.346 156.5 270.113 155.967 270.913 155.3L272.013 157C270.279 158.333 268.779 159.3 267.513 159.9C266.313 160.433 264.779 160.7 262.913 160.7C259.713 160.7 257.479 159.9 256.213 158.3C254.946 156.7 254.313 154.533 254.313 151.8C252.313 155.133 250.013 157.467 247.413 158.8C244.813 160.067 241.879 160.7 238.613 160.7ZM243.013 156.7C247.413 156.7 251.179 154.167 254.313 149.1L254.313 129.5C253.713 130.433 252.879 131.2 251.813 131.8C250.746 132.4 249.113 133.2 246.913 134.2C244.379 135.267 242.313 136.3 240.713 137.3C239.179 138.233 237.846 139.533 236.713 141.2C235.579 142.867 235.013 145 235.013 147.6C235.013 150.6 235.746 152.867 237.213 154.4C238.679 155.933 240.613 156.7 243.013 156.7ZM290.917 150.7C290.917 153.433 291.484 155.333 292.617 156.4C293.751 157.4 295.717 157.9 298.517 157.9L298.517 160C292.384 159.733 288.351 159.6 286.417 159.6C284.484 159.6 280.451 159.733 274.317 160L274.317 157.9C277.117 157.9 279.084 157.4 280.217 156.4C281.351 155.333 281.917 153.433 281.917 150.7L281.917 93.6C281.917 90.5333 281.351 88.3 280.217 86.9C279.084 85.5 277.117 84.8 274.317 84.8L274.317 82.7C276.384 82.9 278.451 83 280.517 83C284.717 83 288.184 82.5333 290.917 81.6L290.917 150.7ZM317.03 160.7C312.83 160.7 309.697 159.667 307.63 157.6C305.63 155.467 304.63 152.533 304.63 148.8C304.63 145.8 305.43 143.333 307.03 141.4C308.697 139.467 310.63 137.933 312.83 136.8C315.097 135.667 318.064 134.467 321.73 133.2C325.464 131.933 328.23 130.767 330.03 129.7C331.83 128.633 332.73 127.2 332.73 125.4L332.73 119.2C332.73 115.333 331.897 112.7 330.23 111.3C328.63 109.833 326.364 109.1 323.43 109.1C318.764 109.1 315.464 110.3 313.53 112.7C314.864 113.033 315.964 113.733 316.83 114.8C317.764 115.867 318.23 117.2 318.23 118.8C318.23 120.467 317.697 121.8 316.63 122.8C315.564 123.733 314.197 124.2 312.53 124.2C310.664 124.2 309.264 123.633 308.33 122.5C307.397 121.3 306.93 119.867 306.93 118.2C306.93 116.6 307.297 115.267 308.03 114.2C308.83 113.133 309.997 112.067 311.53 111C313.13 109.867 315.164 108.933 317.63 108.2C320.097 107.467 322.797 107.1 325.73 107.1C330.93 107.1 334.864 108.333 337.53 110.8C339.197 112.333 340.297 114.2 340.83 116.4C341.43 118.533 341.73 121.367 341.73 124.9L341.73 152.7C341.73 154.367 341.964 155.567 342.43 156.3C342.897 157.033 343.697 157.4 344.83 157.4C345.63 157.4 346.364 157.233 347.03 156.9C347.764 156.5 348.53 155.967 349.33 155.3L350.43 157C348.697 158.333 347.197 159.3 345.93 159.9C344.73 160.433 343.197 160.7 341.33 160.7C338.13 160.7 335.897 159.9 334.63 158.3C333.364 156.7 332.73 154.533 332.73 151.8C330.73 155.133 328.43 157.467 325.83 158.8C323.23 160.067 320.297 160.7 317.03 160.7ZM321.43 156.7C325.83 156.7 329.597 154.167 332.73 149.1L332.73 129.5C332.13 130.433 331.297 131.2 330.23 131.8C329.164 132.4 327.53 133.2 325.33 134.2C322.797 135.267 320.73 136.3 319.13 137.3C317.597 138.233 316.264 139.533 315.13 141.2C313.997 142.867 313.43 145 313.43 147.6C313.43 150.6 314.164 152.867 315.63 154.4C317.097 155.933 319.03 156.7 321.43 156.7Z" fill="#4A608C"/>
</svg>
