<svg width="77" height="77" viewBox="0 0 77 77" fill="none" xmlns="http://www.w3.org/2000/svg">
<rect width="77" height="77" rx="38.5" fill="#DFE0F2"/>
<path d="M40.1731 49.5596C39.6603 49.9029 39.1633 50.1033 38.4998 50.1033C36.7175 50.1033 35.2728 48.6585 35.2728 46.8763V41.976C35.2728 40.1938 36.7175 38.749 38.4998 38.749C39.1633 38.749 39.6603 38.9494 40.1731 39.2927C39.3084 39.8716 38.7388 40.8572 38.7388 41.976V46.8763C38.7388 47.9951 39.3084 48.9807 40.1731 49.5596ZM49.6151 46.8763V36.4183C49.6151 35.2996 50.1847 34.314 51.0494 33.735C50.5366 33.3917 50.0396 33.1913 49.3761 33.1913C47.5938 33.1913 46.1491 34.636 46.1491 36.4183V46.8763C46.1491 48.6585 47.5938 50.1033 49.3761 50.1033C50.0396 50.1033 50.5366 49.9029 51.0494 49.5596C50.1847 48.9807 49.6151 47.9951 49.6151 46.8763ZM27.8626 46.8763V35.5219C27.8626 34.4032 28.4321 33.4176 29.2968 32.8386C28.784 32.4954 28.287 32.2949 27.6235 32.2949C25.8413 32.2949 24.3965 33.7396 24.3965 35.5219V46.8763C24.3965 48.6585 25.8413 50.1033 27.6235 50.1033C28.287 50.1033 28.784 49.9029 29.2968 49.5596C28.4321 48.9807 27.8626 47.9951 27.8626 46.8763Z" fill="#E7BDD3"/>
<path d="M27.6235 51.2985C25.1851 51.2985 23.2013 49.3147 23.2013 46.8763V35.5219C23.2013 33.0835 25.1851 31.0997 27.6235 31.0997C30.062 31.0997 32.0458 33.0835 32.0458 35.5219V46.8763C32.0458 49.3147 30.062 51.2985 27.6235 51.2985ZM27.6235 33.4901C26.5031 33.4901 25.5917 34.4016 25.5917 35.5219V46.8763C25.5917 47.9967 26.5031 48.9081 27.6235 48.9081C28.7439 48.9081 29.6554 47.9967 29.6554 46.8763V35.5219C29.6554 34.4016 28.7439 33.4901 27.6235 33.4901ZM38.4998 51.2985C36.0614 51.2985 34.0776 49.3147 34.0776 46.8763V41.976C34.0776 39.5376 36.0614 37.5538 38.4998 37.5538C40.9383 37.5538 42.922 39.5376 42.922 41.976V46.8763C42.922 49.3147 40.9383 51.2985 38.4998 51.2985ZM38.4998 39.9442C37.3794 39.9442 36.468 40.8556 36.468 41.976V46.8763C36.468 47.9967 37.3794 48.9081 38.4998 48.9081C39.6202 48.9081 40.5317 47.9967 40.5317 46.8763V41.976C40.5317 40.8557 39.6202 39.9442 38.4998 39.9442ZM49.3761 51.2985C46.9377 51.2985 44.9539 49.3147 44.9539 46.8763V36.4183C44.9539 33.9799 46.9377 31.9961 49.3761 31.9961C51.8146 31.9961 53.7983 33.9799 53.7983 36.4183V46.8763C53.7983 49.3147 51.8146 51.2985 49.3761 51.2985ZM49.3761 34.3865C48.2557 34.3865 47.3443 35.298 47.3443 36.4183V46.8763C47.3443 47.9967 48.2557 48.9081 49.3761 48.9081C50.4965 48.9081 51.4079 47.9967 51.4079 46.8763V36.4183C51.4079 35.298 50.4965 34.3865 49.3761 34.3865Z" fill="#5A62B3"/>
<path d="M39.6304 35.2799C38.7188 35.2799 37.8028 34.9846 37.0393 34.3807C37.0179 34.3638 29.3886 27.4346 29.3886 27.4346C28.7096 26.9188 27.767 26.9509 27.1245 27.5131L25.2374 29.3797C24.768 29.844 24.0112 29.8398 23.5472 29.3705C23.0829 28.9012 23.0871 28.1444 23.5564 27.6803C23.5564 27.6803 25.4934 25.765 25.5074 25.7523C27.0279 24.3848 29.2956 24.3131 30.8996 25.5815C30.9209 25.5984 38.5502 32.5277 38.5502 32.5277C39.2889 33.0886 40.3437 32.9913 40.9667 32.299C40.9742 32.2907 40.9818 32.2825 40.9895 32.2745L47.6144 25.3155C48.0696 24.8375 48.8261 24.8188 49.3042 25.274C49.7822 25.7291 49.8009 26.4856 49.3457 26.9638L42.7315 33.9114C41.9112 34.8149 40.7742 35.2798 39.6304 35.2799ZM53.7987 27.5141V24.2871C53.7987 22.31 52.1902 20.7015 50.2131 20.7015H46.9861C46.326 20.7015 45.7909 21.2366 45.7909 21.8967C45.7909 22.5568 46.326 23.0919 46.9861 23.0919H50.2131C50.8721 23.0919 51.4083 23.628 51.4083 24.2871V27.5141C51.4083 28.1742 51.9434 28.7093 52.6035 28.7093C53.2636 28.7093 53.7987 28.1742 53.7987 27.5141Z" fill="#5A62B3"/>
</svg>
